<?xml version="1.0" encoding="UTF-8" standalone="no"?><!DOCTYPE svg PUBLIC "-//W3C//DTD SVG 1.1//EN" "http://www.w3.org/Graphics/SVG/1.1/DTD/svg11.dtd"><svg width="100%" height="100%" viewBox="0 0 300 100" version="1.1" xmlns="http://www.w3.org/2000/svg" xmlns:xlink="http://www.w3.org/1999/xlink" xml:space="preserve" xmlns:serif="http://www.serif.com/" style="fill-rule:evenodd;clip-rule:evenodd;stroke-linejoin:round;stroke-miterlimit:1.41421;"><rect id="Artboard2" x="0" y="0" width="300" height="100" style="fill:none;"/><g><path d="M37.838,32.411l-14.337,35.178l2.168,0l4.483,-11.135l17.787,0l4.434,11.135l2.118,0l-14.288,-35.178l-2.365,0Zm-6.996,22.27l8.13,-20.201l0.147,0l8.13,20.201l-16.407,0Z" style="fill-rule:nonzero;"/><path d="M58.137,32.411l0,35.178l14.978,0c3.4,0 6.159,-0.739 8.278,-2.217c2.364,-1.675 3.547,-4.188 3.547,-7.44c0,-2.266 -0.739,-4.237 -2.168,-5.813c-1.478,-1.577 -3.35,-2.513 -5.617,-2.858c1.774,-0.443 3.301,-1.38 4.533,-2.808c1.232,-1.478 1.872,-3.203 1.872,-5.223c0,-2.858 -0.985,-5.025 -2.907,-6.602c-1.872,-1.478 -4.286,-2.217 -7.242,-2.217l-15.274,0Zm1.922,1.774l13.007,0c2.562,0 4.631,0.542 6.159,1.724c1.576,1.232 2.414,3.055 2.414,5.42c0,2.266 -0.838,4.04 -2.464,5.321c-1.527,1.182 -3.547,1.823 -6.06,1.823l-13.056,0l0,-14.288Zm0,16.061l13.155,0c2.808,0 5.124,0.592 6.898,1.823c1.921,1.38 2.906,3.351 2.906,5.913c0,2.66 -0.985,4.68 -2.906,6.06c-1.725,1.182 -3.991,1.773 -6.75,1.773l-13.303,0l0,-15.569Z" style="fill-rule:nonzero;"/><path d="M105.781,31.721c-5.124,0 -9.214,1.774 -12.219,5.37c-2.858,3.351 -4.286,7.686 -4.286,12.909c0,5.223 1.428,9.558 4.286,12.909c2.956,3.547 7.046,5.37 12.219,5.37c5.124,0 9.164,-1.774 12.219,-5.321c2.808,-3.4 4.237,-7.735 4.237,-12.958c0,-5.272 -1.429,-9.558 -4.237,-12.909c-3.006,-3.596 -7.095,-5.37 -12.219,-5.37Zm0,1.823c4.533,0 8.08,1.577 10.741,4.73c2.512,2.956 3.793,6.898 3.793,11.726c0,4.828 -1.281,8.721 -3.793,11.726c-2.661,3.153 -6.208,4.73 -10.741,4.73c-4.533,0 -8.13,-1.577 -10.79,-4.73c-2.562,-3.005 -3.794,-6.898 -3.794,-11.726c0,-4.779 1.232,-8.671 3.794,-11.726c2.66,-3.153 6.257,-4.73 10.79,-4.73Z" style="fill-rule:nonzero;"/><path d="M128.051,32.411l0,21.432c0,4.582 1.034,8.08 3.103,10.544c2.218,2.562 5.617,3.892 10.199,3.892c4.632,0 8.031,-1.33 10.248,-3.942c2.07,-2.414 3.104,-5.912 3.104,-10.494l0,-21.432l-1.921,0l0,21.481c0,4.04 -0.887,7.095 -2.612,9.164c-1.872,2.267 -4.828,3.449 -8.819,3.449c-3.991,0 -6.897,-1.182 -8.77,-3.449c-1.773,-2.069 -2.611,-5.124 -2.611,-9.164l0,-21.481l-1.921,0Z" style="fill-rule:nonzero;"/><path d="M159.287,32.411l0,1.774l13.5,0l0,33.404l1.922,0l0,-33.404l13.401,0l0,-1.774l-28.823,0Z" style="fill-rule:nonzero;"/><path d="M209.099,32.411l0,35.178l1.921,0l0,-32.567l0.148,0l14.337,32.567l2.069,0l14.338,-32.567l0.148,0l0,32.567l1.921,0l0,-35.178l-2.907,0l-14.436,32.912l-0.147,0l-14.486,-32.912l-2.906,0Z" style="fill-rule:nonzero;"/><path d="M251.273,32.411l0,35.178l25.226,0l0,-1.774l-23.304,0l0,-15.618l21.333,0l0,-1.774l-21.333,0l0,-14.238l22.466,0l0,-1.774l-24.388,0Z" style="fill-rule:nonzero;"/></g></svg>