<?xml version="1.0" encoding="UTF-8" standalone="no"?><!DOCTYPE svg PUBLIC "-//W3C//DTD SVG 1.1//EN" "http://www.w3.org/Graphics/SVG/1.1/DTD/svg11.dtd"><svg width="100%" height="100%" viewBox="0 0 300 100" version="1.1" xmlns="http://www.w3.org/2000/svg" xmlns:xlink="http://www.w3.org/1999/xlink" xml:space="preserve" xmlns:serif="http://www.serif.com/" style="fill-rule:evenodd;clip-rule:evenodd;stroke-linejoin:round;stroke-miterlimit:1.41421;"><rect id="Artboard4" x="0" y="0" width="300" height="100" style="fill:none;"/><g><path d="M50.378,31.721c-5.223,0 -9.362,1.823 -12.367,5.568c-2.858,3.448 -4.237,7.735 -4.237,12.908c0,5.124 1.379,9.361 4.188,12.712c2.956,3.547 6.947,5.37 11.972,5.37c3.695,0 6.898,-1.035 9.608,-3.104c2.906,-2.316 4.729,-5.469 5.518,-9.509l-1.872,0c-0.69,3.449 -2.365,6.208 -4.927,8.179c-2.365,1.724 -5.124,2.611 -8.327,2.611c-4.434,0 -7.932,-1.577 -10.494,-4.681c-2.513,-3.005 -3.745,-6.848 -3.745,-11.578c0,-4.73 1.232,-8.671 3.745,-11.775c2.71,-3.252 6.355,-4.878 10.938,-4.878c3.054,0 5.715,0.788 8.08,2.464c2.414,1.724 3.843,4.04 4.237,6.897l1.872,0c-0.394,-3.399 -2.02,-6.158 -4.878,-8.228c-2.66,-1.971 -5.764,-2.956 -9.311,-2.956Z" style="fill-rule:nonzero;"/><path d="M85.901,31.721c-5.124,0 -9.214,1.774 -12.219,5.37c-2.858,3.351 -4.287,7.686 -4.287,12.909c0,5.223 1.429,9.558 4.287,12.909c2.956,3.547 7.045,5.37 12.219,5.37c5.124,0 9.164,-1.774 12.218,-5.321c2.809,-3.4 4.238,-7.735 4.238,-12.958c0,-5.272 -1.429,-9.558 -4.238,-12.909c-3.005,-3.596 -7.094,-5.37 -12.218,-5.37Zm0,1.823c4.532,0 8.08,1.577 10.74,4.73c2.513,2.956 3.794,6.898 3.794,11.726c0,4.828 -1.281,8.721 -3.794,11.726c-2.66,3.153 -6.208,4.73 -10.74,4.73c-4.533,0 -8.13,-1.577 -10.79,-4.73c-2.562,-3.005 -3.794,-6.898 -3.794,-11.726c0,-4.779 1.232,-8.671 3.794,-11.726c2.66,-3.153 6.257,-4.73 10.79,-4.73Z" style="fill-rule:nonzero;"/><path d="M108.17,32.411l0,35.178l1.922,0l0,-32.764l0.098,0l22.96,32.764l2.365,0l0,-35.178l-1.922,0l0,32.567l-0.098,0l-22.861,-32.567l-2.464,0Z" style="fill-rule:nonzero;"/><path d="M140.097,32.411l0,1.774l13.5,0l0,33.404l1.921,0l0,-33.404l13.401,0l0,-1.774l-28.822,0Z" style="fill-rule:nonzero;"/><path d="M184.193,32.411l-14.337,35.178l2.167,0l4.484,-11.135l17.786,0l4.434,11.135l2.119,0l-14.288,-35.178l-2.365,0Zm-6.996,22.27l8.129,-20.201l0.148,0l8.129,20.201l-16.406,0Z" style="fill-rule:nonzero;"/><path d="M219.617,31.721c-5.222,0 -9.361,1.823 -12.366,5.568c-2.858,3.448 -4.237,7.735 -4.237,12.908c0,5.124 1.379,9.361 4.188,12.712c2.956,3.547 6.947,5.37 11.972,5.37c3.695,0 6.898,-1.035 9.608,-3.104c2.906,-2.316 4.729,-5.469 5.518,-9.509l-1.872,0c-0.69,3.449 -2.365,6.208 -4.927,8.179c-2.365,1.724 -5.124,2.611 -8.327,2.611c-4.434,0 -7.932,-1.577 -10.494,-4.681c-2.513,-3.005 -3.745,-6.848 -3.745,-11.578c0,-4.73 1.232,-8.671 3.745,-11.775c2.71,-3.252 6.355,-4.878 10.937,-4.878c3.055,0 5.716,0.788 8.081,2.464c2.414,1.724 3.843,4.04 4.237,6.897l1.872,0c-0.394,-3.399 -2.02,-6.158 -4.878,-8.228c-2.66,-1.971 -5.764,-2.956 -9.312,-2.956Z" style="fill-rule:nonzero;"/><path d="M237.404,32.411l0,1.774l13.499,0l0,33.404l1.922,0l0,-33.404l13.401,0l0,-1.774l-28.822,0Z" style="fill-rule:nonzero;"/></g></svg>