<?xml version="1.0" encoding="UTF-8" standalone="no"?><!DOCTYPE svg PUBLIC "-//W3C//DTD SVG 1.1//EN" "http://www.w3.org/Graphics/SVG/1.1/DTD/svg11.dtd"><svg width="100%" height="100%" viewBox="0 0 300 100" version="1.1" xmlns="http://www.w3.org/2000/svg" xmlns:xlink="http://www.w3.org/1999/xlink" xml:space="preserve" xmlns:serif="http://www.serif.com/" style="fill-rule:evenodd;clip-rule:evenodd;stroke-linejoin:round;stroke-miterlimit:1.41421;"><rect id="Artboard1" x="0" y="0" width="300" height="100" style="fill:none;"/><g><path d="M80.739,32.507l0,34.986l1.911,0l0,-17.297l23.275,0l0,17.297l1.911,0l0,-34.986l-1.911,0l0,15.925l-23.275,0l0,-15.925l-1.911,0Z" style="fill-rule:nonzero;"/><path d="M130.082,31.821c-5.096,0 -9.163,1.764 -12.152,5.341c-2.842,3.332 -4.263,7.644 -4.263,12.838c0,5.194 1.421,9.506 4.263,12.838c2.94,3.528 7.007,5.341 12.152,5.341c5.096,0 9.114,-1.764 12.152,-5.292c2.793,-3.381 4.214,-7.693 4.214,-12.887c0,-5.243 -1.421,-9.506 -4.214,-12.838c-2.989,-3.577 -7.056,-5.341 -12.152,-5.341Zm0,1.813c4.508,0 8.036,1.568 10.682,4.704c2.499,2.94 3.773,6.86 3.773,11.662c0,4.802 -1.274,8.673 -3.773,11.662c-2.646,3.136 -6.174,4.704 -10.682,4.704c-4.508,0 -8.085,-1.568 -10.731,-4.704c-2.548,-2.989 -3.773,-6.86 -3.773,-11.662c0,-4.753 1.225,-8.624 3.773,-11.662c2.646,-3.136 6.223,-4.704 10.731,-4.704Z" style="fill-rule:nonzero;"/><path d="M152.23,32.507l0,34.986l1.911,0l0,-32.389l0.147,0l14.259,32.389l2.058,0l14.259,-32.389l0.147,0l0,32.389l1.911,0l0,-34.986l-2.891,0l-14.357,32.732l-0.147,0l-14.406,-32.732l-2.891,0Z" style="fill-rule:nonzero;"/><path d="M194.174,32.507l0,34.986l25.088,0l0,-1.764l-23.177,0l0,-15.533l21.217,0l0,-1.764l-21.217,0l0,-14.161l22.344,0l0,-1.764l-24.255,0Z" style="fill-rule:nonzero;"/></g></svg>