<?xml version="1.0" encoding="UTF-8" standalone="no"?><!DOCTYPE svg PUBLIC "-//W3C//DTD SVG 1.1//EN" "http://www.w3.org/Graphics/SVG/1.1/DTD/svg11.dtd"><svg width="100%" height="100%" viewBox="0 0 450 100" version="1.1" xmlns="http://www.w3.org/2000/svg" xmlns:xlink="http://www.w3.org/1999/xlink" xml:space="preserve" xmlns:serif="http://www.serif.com/" style="fill-rule:evenodd;clip-rule:evenodd;stroke-linejoin:round;stroke-miterlimit:1.41421;"><rect id="Artboard5" x="0" y="0" width="450" height="100" style="fill:none;"/><g><g><path d="M140.461,47.474c1.869,2.63 4.083,6.228 6.713,10.796l2.076,-3.114c-2.976,-4.291 -5.882,-8.166 -8.789,-11.557l0,-7.544l7.336,0l0,-3.667l-7.336,0l0,-13.703l-3.599,0l0,13.703l-8.858,0l0,3.667l8.789,0c-1.799,9.551 -4.982,18.063 -9.481,25.537l1.592,4.013c3.322,-5.882 5.952,-12.456 7.958,-19.723l0,35.433l3.599,0l0,-33.841Zm41.938,33.841c3.183,0 4.844,-1.661 4.844,-4.914l0,-27.681l-35.778,0l0,32.733l3.46,0l0,-29.411l9.135,0c-0.969,4.013 -3.599,7.612 -7.89,10.865l2.284,2.076c4.914,-3.737 7.82,-8.097 8.72,-12.941l5.052,0l0,5.674c0,2.215 1.176,3.322 3.598,3.322l7.959,0l0,14.671c0,1.592 -0.831,2.422 -2.492,2.422l-4.844,-0.138l0.969,3.322l4.983,0Zm-7.128,-29.273l8.512,0l0,6.228l-6.575,0c-1.314,0 -1.937,-0.692 -1.937,-1.938l0,-4.29Zm-14.187,12.249l0,11.834l16.747,0l0,-11.834l-16.747,0Zm13.841,9.065l-10.935,0l0,-6.297l10.935,0l0,6.297Zm-13.495,-48.373l-2.145,2.007c2.422,1.591 4.567,3.183 6.505,4.844l-16.263,0l0,3.045l15.363,0c-4.152,3.599 -10.588,6.574 -19.377,8.927l1.799,2.907c9.689,-3.184 16.748,-7.128 21.038,-11.834l1.8,0l0,6.09c0,1.107 -0.692,1.73 -2.077,1.73c-1.384,0 -2.768,-0.069 -4.152,-0.208l0.623,3.045l4.498,0c2.907,0 4.429,-1.315 4.429,-3.806l0,-6.851l10.935,0c-1.246,2.422 -2.838,4.637 -4.845,6.713l3.391,0.969c2.215,-2.838 4.014,-5.744 5.329,-8.651l0,-2.076l-14.187,0c3.599,-2.422 6.851,-5.121 9.62,-8.028l0,-2.837l-31.211,0l0,3.183l26.643,0c-2.976,2.838 -6.159,5.26 -9.481,7.336c-2.284,-2.215 -5.052,-4.36 -8.235,-6.505Z" style="fill-rule:nonzero;"/><path d="M257.347,71.349c2.145,0 4.013,-3.46 5.605,-10.311l-2.906,-1.73c-1.108,5.467 -2.146,8.235 -3.115,8.235c-1.245,0 -2.629,-1.522 -4.152,-4.567c-0.346,-0.761 -0.692,-1.592 -0.969,-2.492c3.53,-5.744 6.229,-12.664 8.097,-20.83l-3.045,-1.384c-1.522,6.713 -3.668,12.595 -6.367,17.647c-0.553,-2.353 -1.107,-4.914 -1.522,-7.751c-0.692,-4.014 -1.107,-9.204 -1.384,-15.571l14.187,0l0,-3.252l-14.326,0c-0.138,-3.322 -0.138,-6.99 -0.138,-10.865l-3.599,0c0,3.806 0,7.404 0.139,10.865l-12.803,0l0,32.318c0,1.107 -0.415,1.938 -1.246,2.353l0.9,3.391c4.291,-2.215 8.581,-4.706 12.734,-7.543l-0.623,-3.253c-2.976,2.076 -5.744,3.875 -8.374,5.259l0,-29.273l9.55,0c0.277,6.921 0.9,12.734 1.8,17.37c0.692,3.599 1.453,6.852 2.422,9.758c-2.768,4.083 -6.021,7.474 -9.758,10.242l2.007,2.907c3.46,-2.491 6.505,-5.536 9.204,-9.204c0.346,0.761 0.761,1.522 1.176,2.353c2.077,3.529 4.291,5.328 6.506,5.328Zm-3.668,-52.595l-2.561,1.523c2.768,2.906 5.052,5.536 6.782,7.889l2.561,-1.799c-1.592,-2.215 -3.876,-4.706 -6.782,-7.613Zm-51.073,9.274l0,3.46l11.073,0l0,10.45l-12.941,0l0,3.46l13.771,0l0,26.021c-2.491,-2.215 -4.775,-5.467 -6.782,-9.689c0.416,-3.322 0.692,-6.851 0.831,-10.519l-3.391,-0.415c-0.277,10.519 -2.146,20 -5.467,28.304l2.837,2.63c1.869,-4.567 3.322,-9.481 4.36,-14.81c2.906,5.121 6.367,8.651 10.242,10.589c4.083,2.006 14.395,3.045 31.003,3.045l13.91,0l0.693,-3.807c-3.461,0.139 -8.582,0.208 -15.433,0.277c-14.394,0 -23.668,-0.83 -27.751,-2.422c-0.484,-0.208 -0.969,-0.415 -1.453,-0.692l0,-14.81l7.958,0l0,-3.391l-7.958,0l0,-10.311l9.827,0l0,-3.46l-10.588,0l0,-10.45l10.103,0l0,-3.46l-10.103,0l0,-9.62l-3.668,0l0,9.62l-11.073,0Z" style="fill-rule:nonzero;"/><path d="M295.686,57.924l-20.07,0l0,22.56l3.53,0l0,-3.598l16.54,0l0,-18.962Zm-16.54,15.571l0,-12.249l13.079,0l0,12.249l-13.079,0Zm-6.159,-45.329l0,3.46l25.398,0l0,-3.46l-25.398,0Zm3.045,9.966l0,3.321l19.1,0l0,-3.321l-19.1,0Zm0.069,9.48l0,3.391l19.031,0l0,-3.391l-19.031,0Zm24.775,0.9l0,3.599l4.637,0c1.66,6.09 4.775,11.626 9.481,16.539c-4.845,4.014 -10.935,7.336 -18.34,9.827l2.077,3.115c7.612,-2.561 13.91,-6.021 19.031,-10.312c4.29,3.876 9.827,7.267 16.539,10.312l2.007,-3.184c-6.366,-2.699 -11.695,-5.882 -15.986,-9.55c4.568,-4.706 7.889,-10.381 9.896,-16.886l0,-3.46l-29.342,0Zm8.166,3.599l17.578,0c-1.938,5.328 -4.914,10.034 -9.066,14.187c-4.083,-4.153 -6.92,-8.928 -8.512,-14.187Zm-2.422,-30.588l0,7.681c0,5.398 -2.838,9.62 -8.374,12.595l2.491,2.768c6.367,-3.737 9.551,-8.996 9.551,-15.778l0,-3.737l12.041,0l0,12.387c0,3.668 1.938,5.537 5.813,5.537l6.229,0l0,-3.46l-5.398,0c-1.938,0 -2.907,-0.9 -2.907,-2.699l0,-15.294l-19.446,0Zm-22.076,-3.253l-3.53,0.969c1.73,2.699 3.184,5.467 4.36,8.374l3.253,-1.246c-0.969,-2.492 -2.353,-5.19 -4.083,-8.097Z" style="fill-rule:nonzero;"/><path d="M351.187,77.163l13.357,0l0,3.321l3.598,0l0,-22.699l-20.553,0l0,23.668l3.598,0l0,-4.29Zm13.357,-3.461l-13.357,0l0,-12.456l13.357,0l0,12.456Zm-19.516,-45.536l0,3.53l25.744,0l0,-3.53l-25.744,0Zm2.699,10.035l0,3.391l20.277,0l0,-3.391l-20.277,0Zm0,9.411l0,3.461l20.277,0l0,-3.461l-20.277,0Zm40.415,-29.065l0,23.183l-16.055,0l0,3.599l16.055,0l0,36.193l3.668,0l0,-36.193l16.332,0l0,-3.599l-16.332,0l0,-23.183l-3.668,0Zm-31.003,-0.277l-3.599,0.969c1.523,2.699 2.837,5.467 3.945,8.374l3.183,-1.177c-0.83,-2.491 -2.007,-5.259 -3.529,-8.166Z" style="fill-rule:nonzero;"/></g><path d="M104.935,18.27c0.101,0 0.199,0.04 0.271,0.112c0.072,0.072 0.112,0.169 0.112,0.271c0,3.599 0,31.347 0,31.347c0,17.512 -14.218,31.73 -31.73,31.73c-17.512,0 -31.73,-14.218 -31.73,-31.73c0,-17.512 14.218,-31.73 31.73,-31.73c0,0 27.747,0 31.347,0Z" style="fill:#ff6900;"/></g></svg>