<?xml version="1.0" encoding="UTF-8" standalone="no"?><!DOCTYPE svg PUBLIC "-//W3C//DTD SVG 1.1//EN" "http://www.w3.org/Graphics/SVG/1.1/DTD/svg11.dtd"><svg width="100%" height="100%" viewBox="0 0 1819 684" version="1.1" xmlns="http://www.w3.org/2000/svg" xmlns:xlink="http://www.w3.org/1999/xlink" xml:space="preserve" xmlns:serif="http://www.serif.com/" style="fill-rule:evenodd;clip-rule:evenodd;stroke-linejoin:round;stroke-miterlimit:1.41421;"><rect id="Artboard2" x="0" y="0" width="1818.48" height="683.56" style="fill:none;"/><clipPath id="_clip1"><rect x="0" y="0" width="1818.48" height="683.56"/></clipPath><g clip-path="url(#_clip1)"><g><path d="M1818.48,50c0,-13.261 -5.268,-25.979 -14.645,-35.355c-9.376,-9.377 -22.094,-14.645 -35.355,-14.645c-260.283,0 -1458.19,0 -1718.48,0c-13.261,0 -25.979,5.268 -35.355,14.645c-9.377,9.376 -14.645,22.094 -14.645,35.355c0,126.375 0,457.495 0,583.87c0,13.261 5.268,25.979 14.645,35.356c9.376,9.377 22.094,14.644 35.355,14.644c260.283,0 1458.19,0 1718.48,0c13.261,0 25.979,-5.267 35.355,-14.644c9.377,-9.377 14.645,-22.095 14.645,-35.356c0,-126.375 0,-457.495 0,-583.87Z" style="fill:#9ad7d8;"/><g><path d="M32.277,48.755c0,-6.82 2.709,-13.36 7.531,-18.182c4.822,-4.822 11.362,-7.531 18.182,-7.531c10.245,0 19.65,0 19.65,0c8.493,0 17.019,1.416 25.577,4.247c8.558,2.831 16.279,7.11 23.164,12.837c6.885,5.726 12.451,12.869 16.697,21.426c4.247,8.558 6.37,18.499 6.37,29.824c0,11.453 -2.123,21.427 -6.37,29.92c-4.246,8.494 -9.812,15.604 -16.697,21.331c-6.885,5.726 -14.606,10.005 -23.164,12.836c-8.558,2.831 -17.084,4.247 -25.577,4.247l-45.363,0c0,0 0,-71.365 0,-110.955Zm13.898,98.601l27.604,0c10.295,0 19.271,-1.609 26.928,-4.826c7.657,-3.217 13.995,-7.432 19.014,-12.644c5.019,-5.212 8.783,-11.163 11.293,-17.855c2.509,-6.692 3.764,-13.577 3.764,-20.655c0,-7.078 -1.255,-13.963 -3.764,-20.655c-2.51,-6.691 -6.274,-12.643 -11.293,-17.855c-5.019,-5.212 -11.357,-9.427 -19.014,-12.644c-7.657,-3.217 -16.633,-4.826 -26.928,-4.826c0,0 -0.705,0 -1.891,0c-6.819,0 -13.359,2.709 -18.182,7.531c-4.822,4.822 -7.531,11.362 -7.531,18.182c0,33.056 0,86.247 0,86.247Z" style="fill:#fff;fill-rule:nonzero;"/><path d="M246.544,107.591c-0.386,-8.494 -3.12,-15.539 -8.203,-21.137c-5.084,-5.598 -12.322,-8.397 -21.717,-8.397c-4.375,0 -8.429,0.804 -12.161,2.413c-3.732,1.608 -7.013,3.796 -9.845,6.563c-2.831,2.767 -5.083,5.919 -6.756,9.458c-1.673,3.539 -2.638,7.239 -2.895,11.1l61.577,0Zm13.32,4.247c0,0.9 0,1.866 0,2.895c0,1.03 -0.065,2.124 -0.193,3.282l-74.897,0c0.128,4.504 1.029,8.751 2.702,12.74c1.673,3.989 3.989,7.464 6.949,10.424c2.96,2.96 6.435,5.308 10.424,7.045c3.99,1.738 8.301,2.606 12.933,2.606c6.821,0 12.708,-1.576 17.663,-4.729c4.955,-3.153 8.719,-6.788 11.292,-10.906l9.845,7.721c-5.405,6.821 -11.357,11.711 -17.855,14.671c-6.499,2.959 -13.481,4.439 -20.945,4.439c-6.691,0 -12.901,-1.19 -18.627,-3.571c-5.727,-2.38 -10.649,-5.694 -14.767,-9.941c-4.118,-4.247 -7.368,-9.266 -9.749,-15.057c-2.38,-5.791 -3.571,-12.096 -3.571,-18.917c0,-6.82 1.158,-13.126 3.475,-18.917c2.316,-5.791 5.533,-10.81 9.652,-15.057c4.118,-4.247 8.943,-7.56 14.477,-9.941c5.534,-2.381 11.518,-3.571 17.952,-3.571c7.078,0 13.32,1.19 18.724,3.571c5.405,2.381 9.91,5.598 13.513,9.652c3.603,4.053 6.338,8.783 8.204,14.188c1.866,5.405 2.799,11.196 2.799,17.373Z" style="fill:#fff;fill-rule:nonzero;"/><path d="M336.112,90.797c-1.93,-3.732 -4.858,-6.788 -8.783,-9.169c-3.925,-2.381 -8.397,-3.571 -13.416,-3.571c-2.316,0 -4.633,0.257 -6.949,0.772c-2.316,0.515 -4.375,1.351 -6.177,2.509c-1.802,1.159 -3.249,2.638 -4.343,4.44c-1.094,1.802 -1.641,3.925 -1.641,6.37c0,4.247 1.737,7.496 5.212,9.748c3.474,2.252 8.944,4.151 16.408,5.695c10.681,2.188 18.563,5.373 23.646,9.555c5.084,4.182 7.625,9.813 7.625,16.891c0,5.147 -0.997,9.49 -2.992,13.029c-1.995,3.539 -4.601,6.435 -7.818,8.687c-3.217,2.252 -6.852,3.86 -10.906,4.826c-4.054,0.965 -8.14,1.447 -12.258,1.447c-6.82,0 -13.448,-1.415 -19.882,-4.246c-6.435,-2.831 -11.711,-7.271 -15.829,-13.32l10.424,-7.721c2.316,3.989 5.726,7.335 10.231,10.038c4.504,2.702 9.458,4.053 14.863,4.053c2.831,0 5.534,-0.257 8.108,-0.772c2.573,-0.514 4.825,-1.415 6.756,-2.702c1.93,-1.287 3.474,-2.928 4.633,-4.923c1.158,-1.994 1.737,-4.471 1.737,-7.431c0,-4.762 -2.284,-8.333 -6.853,-10.714c-4.568,-2.38 -11.164,-4.6 -19.786,-6.659c-2.702,-0.644 -5.566,-1.448 -8.59,-2.413c-3.024,-0.965 -5.823,-2.381 -8.397,-4.247c-2.574,-1.866 -4.697,-4.215 -6.37,-7.046c-1.673,-2.831 -2.509,-6.37 -2.509,-10.617c0,-4.632 0.901,-8.59 2.702,-11.871c1.802,-3.282 4.215,-5.984 7.239,-8.108c3.024,-2.123 6.467,-3.699 10.327,-4.729c3.861,-1.029 7.85,-1.544 11.968,-1.544c6.306,0 12.419,1.415 18.339,4.247c5.919,2.831 10.359,6.82 13.319,11.968l-10.038,7.528Z" style="fill:#fff;fill-rule:nonzero;"/><path d="M387.073,159.71l-13.126,0l0,-90.34l13.126,0l0,90.34Zm2.702,-125.086c0,2.703 -0.965,4.922 -2.895,6.66c-1.93,1.737 -4.054,2.606 -6.37,2.606c-2.317,0 -4.44,-0.869 -6.37,-2.606c-1.931,-1.738 -2.896,-3.957 -2.896,-6.66c0,-2.702 0.965,-4.922 2.896,-6.66c1.93,-1.737 4.053,-2.605 6.37,-2.605c2.316,0 4.44,0.868 6.37,2.605c1.93,1.738 2.895,3.958 2.895,6.66Z" style="fill:#fff;fill-rule:nonzero;"/><path d="M426.838,177.855c3.603,4.633 8.526,8.558 14.767,11.775c6.241,3.217 12.837,4.826 19.786,4.826c6.434,0 11.904,-0.933 16.408,-2.799c4.504,-1.866 8.139,-4.408 10.906,-7.625c2.767,-3.217 4.794,-6.981 6.081,-11.292c1.287,-4.311 1.93,-8.912 1.93,-13.802l0,-16.987l-0.386,0c-3.474,5.662 -8.397,10.038 -14.767,13.126c-6.37,3.089 -12.837,4.633 -19.4,4.633c-7.078,0 -13.48,-1.158 -19.207,-3.475c-5.726,-2.316 -10.617,-5.501 -14.67,-9.555c-4.054,-4.053 -7.207,-8.912 -9.459,-14.574c-2.252,-5.662 -3.378,-11.775 -3.378,-18.338c0,-6.434 1.126,-12.483 3.378,-18.145c2.252,-5.663 5.405,-10.617 9.459,-14.864c4.053,-4.247 8.944,-7.592 14.67,-10.038c5.727,-2.445 12.129,-3.667 19.207,-3.667c6.563,0 12.998,1.544 19.304,4.633c6.305,3.088 11.26,7.528 14.863,13.319l0.386,0l0,-15.636l13.126,0l0,89.568c0,4.89 -0.675,10.102 -2.026,15.636c-1.352,5.533 -3.861,10.616 -7.529,15.249c-3.667,4.633 -8.654,8.494 -14.96,11.582c-6.306,3.089 -14.477,4.633 -24.515,4.633c-8.365,0 -16.344,-1.609 -23.936,-4.826c-7.593,-3.217 -14.092,-7.657 -19.497,-13.319l9.459,-10.038Zm2.509,-64.473c0,4.761 0.773,9.266 2.317,13.512c1.544,4.247 3.764,7.979 6.659,11.196c2.896,3.217 6.467,5.759 10.714,7.625c4.247,1.866 9.072,2.799 14.477,2.799c5.019,0 9.652,-0.836 13.899,-2.509c4.247,-1.673 7.914,-4.054 11.003,-7.143c3.088,-3.088 5.501,-6.788 7.238,-11.099c1.738,-4.311 2.606,-9.105 2.606,-14.381c0,-4.762 -0.868,-9.266 -2.606,-13.512c-1.737,-4.247 -4.15,-7.979 -7.238,-11.196c-3.089,-3.218 -6.756,-5.791 -11.003,-7.722c-4.247,-1.93 -8.88,-2.895 -13.899,-2.895c-5.405,0 -10.23,0.965 -14.477,2.895c-4.247,1.931 -7.818,4.504 -10.714,7.722c-2.895,3.217 -5.115,6.949 -6.659,11.196c-1.544,4.246 -2.317,8.75 -2.317,13.512Z" style="fill:#fff;fill-rule:nonzero;"/><path d="M555.785,69.37c0.257,2.445 0.45,5.148 0.579,8.108c0.128,2.959 0.193,5.405 0.193,7.335l0.386,0c2.573,-5.276 6.756,-9.555 12.547,-12.837c5.791,-3.281 11.904,-4.922 18.338,-4.922c11.453,0 20.043,3.41 25.77,10.231c5.727,6.82 8.59,15.828 8.59,27.024l0,55.401l-13.126,0l0,-49.996c0,-4.761 -0.386,-9.072 -1.158,-12.933c-0.773,-3.861 -2.092,-7.174 -3.958,-9.941c-1.866,-2.767 -4.375,-4.923 -7.528,-6.467c-3.153,-1.544 -7.11,-2.316 -11.871,-2.316c-3.475,0 -6.853,0.708 -10.135,2.123c-3.281,1.416 -6.209,3.571 -8.783,6.467c-2.574,2.895 -4.633,6.563 -6.177,11.003c-1.544,4.439 -2.316,9.684 -2.316,15.732l0,46.328l-13.127,0l0,-70.457c0,-2.445 -0.064,-5.598 -0.193,-9.459c-0.128,-3.861 -0.321,-7.335 -0.579,-10.424l12.548,0Z" style="fill:#fff;fill-rule:nonzero;"/></g><g><path d="M32.277,189.04l31.778,0c5.95,0 11.923,0.992 17.918,2.975c5.995,1.983 11.404,4.981 16.227,8.992c4.823,4.012 8.722,9.016 11.697,15.011c2.975,5.995 4.462,12.959 4.462,20.892c0,8.023 -1.487,15.01 -4.462,20.96c-2.975,5.95 -6.874,10.931 -11.697,14.943c-4.823,4.011 -10.232,7.009 -16.227,8.992c-5.995,1.984 -11.968,2.975 -17.918,2.975l-31.778,0l0,-95.74Zm9.736,87.086l19.338,0c7.212,0 13.5,-1.127 18.864,-3.381c5.364,-2.254 9.804,-5.206 13.32,-8.857c3.515,-3.651 6.152,-7.821 7.91,-12.509c1.758,-4.688 2.637,-9.511 2.637,-14.469c0,-4.958 -0.879,-9.781 -2.637,-14.469c-1.758,-4.688 -4.395,-8.857 -7.91,-12.509c-3.516,-3.651 -7.956,-6.603 -13.32,-8.857c-5.364,-2.254 -11.652,-3.381 -18.864,-3.381l-19.338,0l0,78.432Z" style="fill:#fff;fill-rule:nonzero;"/><path d="M182.378,248.269c-0.27,-5.95 -2.186,-10.886 -5.747,-14.807c-3.561,-3.922 -8.632,-5.883 -15.213,-5.883c-3.065,0 -5.905,0.564 -8.519,1.691c-2.614,1.127 -4.913,2.659 -6.897,4.597c-1.983,1.939 -3.561,4.147 -4.733,6.627c-1.172,2.479 -1.848,5.071 -2.028,7.775l43.137,0Zm9.331,2.975c0,0.631 0,1.307 0,2.028c0,0.722 -0.045,1.488 -0.135,2.299l-52.468,0c0.09,3.156 0.721,6.131 1.893,8.925c1.172,2.795 2.795,5.229 4.868,7.302c2.074,2.074 4.508,3.719 7.302,4.936c2.795,1.217 5.815,1.826 9.061,1.826c4.778,0 8.902,-1.105 12.373,-3.313c3.471,-2.209 6.107,-4.756 7.91,-7.641l6.897,5.41c-3.786,4.778 -7.956,8.203 -12.508,10.277c-4.553,2.073 -9.444,3.11 -14.672,3.11c-4.688,0 -9.038,-0.834 -13.05,-2.502c-4.012,-1.668 -7.46,-3.989 -10.345,-6.964c-2.884,-2.975 -5.161,-6.491 -6.829,-10.548c-1.667,-4.056 -2.501,-8.474 -2.501,-13.252c0,-4.778 0.811,-9.195 2.434,-13.252c1.623,-4.057 3.876,-7.573 6.761,-10.548c2.885,-2.975 6.266,-5.296 10.142,-6.964c3.877,-1.668 8.069,-2.501 12.576,-2.501c4.958,0 9.331,0.833 13.117,2.501c3.786,1.668 6.942,3.922 9.466,6.762c2.524,2.839 4.44,6.152 5.747,9.939c1.307,3.786 1.961,7.843 1.961,12.17Z" style="fill:#fff;fill-rule:nonzero;"/><path d="M245.123,236.504c-1.352,-2.614 -3.403,-4.755 -6.153,-6.423c-2.749,-1.668 -5.882,-2.502 -9.398,-2.502c-1.622,0 -3.245,0.181 -4.868,0.541c-1.623,0.361 -3.065,0.947 -4.327,1.758c-1.262,0.812 -2.276,1.848 -3.043,3.111c-0.766,1.262 -1.149,2.749 -1.149,4.462c0,2.975 1.217,5.251 3.651,6.829c2.434,1.578 6.265,2.907 11.494,3.989c7.483,1.533 13.004,3.764 16.565,6.694c3.561,2.93 5.342,6.874 5.342,11.832c0,3.606 -0.699,6.649 -2.096,9.128c-1.398,2.479 -3.223,4.507 -5.477,6.085c-2.254,1.578 -4.8,2.705 -7.64,3.381c-2.84,0.676 -5.702,1.014 -8.587,1.014c-4.778,0 -9.421,-0.992 -13.928,-2.975c-4.508,-1.983 -8.204,-5.094 -11.089,-9.331l7.302,-5.409c1.623,2.795 4.012,5.139 7.167,7.032c3.156,1.893 6.626,2.84 10.413,2.84c1.983,0 3.876,-0.181 5.679,-0.541c1.803,-0.361 3.381,-0.992 4.733,-1.893c1.352,-0.902 2.434,-2.051 3.246,-3.449c0.811,-1.397 1.217,-3.132 1.217,-5.206c0,-3.335 -1.601,-5.837 -4.801,-7.505c-3.2,-1.668 -7.82,-3.223 -13.861,-4.665c-1.893,-0.451 -3.899,-1.014 -6.017,-1.69c-2.119,-0.677 -4.079,-1.668 -5.882,-2.975c-1.804,-1.308 -3.291,-2.953 -4.463,-4.936c-1.172,-1.984 -1.758,-4.463 -1.758,-7.438c0,-3.245 0.631,-6.017 1.893,-8.316c1.262,-2.299 2.953,-4.192 5.071,-5.68c2.119,-1.487 4.53,-2.591 7.235,-3.313c2.704,-0.721 5.499,-1.081 8.384,-1.081c4.417,0 8.699,0.991 12.846,2.975c4.147,1.983 7.258,4.778 9.331,8.384l-7.032,5.273Z" style="fill:#fff;fill-rule:nonzero;"/><path d="M280.823,284.78l-9.195,0l0,-63.286l9.195,0l0,63.286Zm1.893,-87.626c0,1.893 -0.676,3.448 -2.028,4.665c-1.352,1.217 -2.84,1.825 -4.463,1.825c-1.622,0 -3.11,-0.608 -4.462,-1.825c-1.352,-1.217 -2.029,-2.772 -2.029,-4.665c0,-1.894 0.677,-3.449 2.029,-4.666c1.352,-1.217 2.84,-1.825 4.462,-1.825c1.623,0 3.111,0.608 4.463,1.825c1.352,1.217 2.028,2.772 2.028,4.666Z" style="fill:#fff;fill-rule:nonzero;"/><path d="M308.68,297.491c2.524,3.246 5.972,5.996 10.344,8.249c4.373,2.254 8.993,3.381 13.861,3.381c4.508,0 8.339,-0.654 11.494,-1.961c3.156,-1.307 5.702,-3.088 7.641,-5.341c1.938,-2.254 3.358,-4.891 4.259,-7.911c0.902,-3.02 1.353,-6.243 1.353,-9.669l0,-11.9l-0.271,0c-2.434,3.967 -5.882,7.032 -10.345,9.196c-4.462,2.163 -8.992,3.245 -13.59,3.245c-4.958,0 -9.443,-0.811 -13.455,-2.434c-4.012,-1.623 -7.437,-3.854 -10.277,-6.694c-2.84,-2.839 -5.049,-6.243 -6.626,-10.209c-1.578,-3.967 -2.367,-8.249 -2.367,-12.847c0,-4.507 0.789,-8.744 2.367,-12.711c1.577,-3.967 3.786,-7.437 6.626,-10.412c2.84,-2.975 6.265,-5.319 10.277,-7.032c4.012,-1.713 8.497,-2.569 13.455,-2.569c4.598,0 9.105,1.081 13.523,3.245c4.417,2.164 7.888,5.274 10.412,9.331l0.271,0l0,-10.954l9.195,0l0,62.745c0,3.426 -0.473,7.077 -1.42,10.954c-0.946,3.876 -2.704,7.437 -5.274,10.683c-2.569,3.245 -6.062,5.949 -10.48,8.113c-4.417,2.164 -10.142,3.246 -17.174,3.246c-5.859,0 -11.449,-1.127 -16.768,-3.381c-5.318,-2.254 -9.871,-5.364 -13.657,-9.331l6.626,-7.032Zm1.758,-45.165c0,3.335 0.54,6.491 1.622,9.466c1.082,2.975 2.637,5.589 4.666,7.843c2.028,2.254 4.53,4.034 7.505,5.341c2.975,1.307 6.355,1.961 10.142,1.961c3.516,0 6.761,-0.586 9.736,-1.758c2.975,-1.172 5.544,-2.84 7.708,-5.003c2.163,-2.164 3.854,-4.756 5.071,-7.776c1.217,-3.02 1.825,-6.378 1.825,-10.074c0,-3.336 -0.608,-6.491 -1.825,-9.466c-1.217,-2.975 -2.908,-5.589 -5.071,-7.843c-2.164,-2.254 -4.733,-4.057 -7.708,-5.409c-2.975,-1.352 -6.22,-2.029 -9.736,-2.029c-3.787,0 -7.167,0.677 -10.142,2.029c-2.975,1.352 -5.477,3.155 -7.505,5.409c-2.029,2.254 -3.584,4.868 -4.666,7.843c-1.082,2.975 -1.622,6.13 -1.622,9.466Z" style="fill:#fff;fill-rule:nonzero;"/><path d="M399.011,221.494c0.18,1.713 0.315,3.606 0.406,5.68c0.09,2.073 0.135,3.786 0.135,5.138l0.27,0c1.803,-3.696 4.733,-6.693 8.79,-8.992c4.057,-2.299 8.339,-3.448 12.846,-3.448c8.024,0 14.041,2.389 18.053,7.167c4.012,4.778 6.018,11.088 6.018,18.931l0,38.81l-9.196,0l0,-35.023c0,-3.336 -0.27,-6.356 -0.811,-9.061c-0.541,-2.704 -1.465,-5.026 -2.772,-6.964c-1.307,-1.938 -3.065,-3.448 -5.274,-4.53c-2.209,-1.082 -4.981,-1.623 -8.316,-1.623c-2.435,0 -4.801,0.496 -7.1,1.488c-2.299,0.992 -4.35,2.502 -6.153,4.53c-1.803,2.028 -3.245,4.598 -4.327,7.708c-1.082,3.11 -1.623,6.784 -1.623,11.021l0,32.454l-9.195,0l0,-49.357c0,-1.713 -0.045,-3.922 -0.135,-6.627c-0.09,-2.704 -0.226,-5.138 -0.406,-7.302l8.79,0Z" style="fill:#fff;fill-rule:nonzero;"/></g><g><path d="M32.277,305.327l22.262,0c4.168,0 8.352,0.694 12.551,2.084c4.2,1.389 7.989,3.489 11.368,6.299c3.379,2.811 6.11,6.316 8.194,10.515c2.084,4.2 3.126,9.079 3.126,14.636c0,5.621 -1.042,10.515 -3.126,14.684c-2.084,4.168 -4.815,7.657 -8.194,10.467c-3.379,2.811 -7.168,4.91 -11.368,6.3c-4.199,1.389 -8.383,2.084 -12.551,2.084l-22.262,0l0,-67.069Zm6.821,61.006l13.546,0c5.052,0 9.457,-0.789 13.215,-2.368c3.758,-1.579 6.868,-3.647 9.331,-6.205c2.463,-2.558 4.31,-5.479 5.542,-8.763c1.231,-3.284 1.847,-6.662 1.847,-10.136c0,-3.473 -0.616,-6.852 -1.847,-10.136c-1.232,-3.284 -3.079,-6.205 -5.542,-8.762c-2.463,-2.558 -5.573,-4.626 -9.331,-6.205c-3.758,-1.579 -8.163,-2.368 -13.215,-2.368l-13.546,0l0,54.943Z" style="fill:#fff;fill-rule:nonzero;"/><path d="M137.428,346.819c-0.19,-4.168 -1.532,-7.626 -4.026,-10.373c-2.495,-2.747 -6.047,-4.121 -10.657,-4.121c-2.148,0 -4.137,0.395 -5.968,1.184c-1.832,0.789 -3.442,1.863 -4.832,3.221c-1.389,1.358 -2.494,2.905 -3.315,4.642c-0.821,1.736 -1.295,3.552 -1.421,5.447l30.219,0Zm6.536,2.084c0,0.442 0,0.915 0,1.421c0,0.505 -0.031,1.042 -0.095,1.61l-36.755,0c0.063,2.21 0.505,4.295 1.326,6.252c0.821,1.958 1.958,3.663 3.411,5.116c1.452,1.452 3.157,2.605 5.115,3.457c1.958,0.853 4.073,1.279 6.347,1.279c3.347,0 6.236,-0.773 8.668,-2.321c2.431,-1.547 4.278,-3.331 5.541,-5.352l4.832,3.789c-2.653,3.347 -5.574,5.747 -8.763,7.2c-3.189,1.452 -6.615,2.179 -10.278,2.179c-3.284,0 -6.331,-0.585 -9.142,-1.753c-2.81,-1.168 -5.226,-2.794 -7.246,-4.878c-2.021,-2.085 -3.616,-4.548 -4.784,-7.389c-1.169,-2.842 -1.753,-5.937 -1.753,-9.284c0,-3.347 0.569,-6.442 1.705,-9.284c1.137,-2.842 2.716,-5.305 4.737,-7.389c2.021,-2.084 4.389,-3.71 7.105,-4.878c2.715,-1.169 5.652,-1.753 8.81,-1.753c3.473,0 6.536,0.584 9.188,1.753c2.653,1.168 4.863,2.747 6.631,4.736c1.769,1.99 3.111,4.311 4.027,6.963c0.915,2.652 1.373,5.494 1.373,8.526Z" style="fill:#fff;fill-rule:nonzero;"/><path d="M181.383,338.577c-0.948,-1.831 -2.384,-3.331 -4.311,-4.5c-1.926,-1.168 -4.12,-1.752 -6.583,-1.752c-1.137,0 -2.274,0.126 -3.411,0.379c-1.136,0.252 -2.147,0.663 -3.031,1.231c-0.884,0.569 -1.595,1.295 -2.131,2.179c-0.537,0.884 -0.806,1.926 -0.806,3.126c0,2.084 0.853,3.679 2.558,4.784c1.705,1.105 4.389,2.037 8.052,2.795c5.242,1.073 9.11,2.636 11.605,4.689c2.494,2.052 3.741,4.815 3.741,8.289c0,2.526 -0.489,4.657 -1.468,6.394c-0.979,1.737 -2.258,3.158 -3.836,4.263c-1.579,1.105 -3.363,1.895 -5.353,2.368c-1.989,0.474 -3.994,0.711 -6.015,0.711c-3.347,0 -6.6,-0.695 -9.757,-2.084c-3.158,-1.39 -5.747,-3.569 -7.768,-6.537l5.115,-3.789c1.137,1.958 2.811,3.6 5.021,4.926c2.21,1.326 4.642,1.989 7.294,1.989c1.39,0 2.716,-0.126 3.979,-0.379c1.263,-0.252 2.368,-0.694 3.315,-1.326c0.948,-0.631 1.706,-1.437 2.274,-2.415c0.568,-0.979 0.853,-2.195 0.853,-3.648c0,-2.336 -1.121,-4.089 -3.363,-5.257c-2.242,-1.168 -5.479,-2.258 -9.71,-3.268c-1.326,-0.316 -2.732,-0.711 -4.216,-1.184c-1.484,-0.474 -2.857,-1.169 -4.121,-2.085c-1.263,-0.915 -2.305,-2.068 -3.126,-3.457c-0.821,-1.39 -1.231,-3.126 -1.231,-5.21c0,-2.274 0.442,-4.216 1.326,-5.826c0.884,-1.611 2.068,-2.937 3.552,-3.979c1.485,-1.042 3.174,-1.816 5.069,-2.321c1.894,-0.505 3.852,-0.758 5.873,-0.758c3.094,0 6.094,0.695 8.999,2.084c2.905,1.39 5.084,3.348 6.537,5.874l-4.926,3.694Z" style="fill:#fff;fill-rule:nonzero;"/><path d="M206.391,372.396l-6.441,0l0,-44.334l6.441,0l0,44.334Zm1.327,-61.385c0,1.326 -0.474,2.415 -1.421,3.268c-0.948,0.852 -1.99,1.279 -3.126,1.279c-1.137,0 -2.179,-0.427 -3.126,-1.279c-0.948,-0.853 -1.421,-1.942 -1.421,-3.268c0,-1.327 0.473,-2.416 1.421,-3.269c0.947,-0.852 1.989,-1.278 3.126,-1.278c1.136,0 2.178,0.426 3.126,1.278c0.947,0.853 1.421,1.942 1.421,3.269Z" style="fill:#fff;fill-rule:nonzero;"/><path d="M225.906,381.301c1.768,2.273 4.184,4.199 7.247,5.778c3.063,1.579 6.299,2.368 9.71,2.368c3.157,0 5.841,-0.457 8.052,-1.373c2.21,-0.916 3.994,-2.163 5.352,-3.742c1.358,-1.579 2.353,-3.426 2.984,-5.542c0.632,-2.115 0.947,-4.373 0.947,-6.773l0,-8.336l-0.189,0c-1.705,2.778 -4.121,4.926 -7.247,6.441c-3.126,1.516 -6.3,2.274 -9.52,2.274c-3.474,0 -6.616,-0.568 -9.426,-1.705c-2.81,-1.137 -5.21,-2.7 -7.2,-4.689c-1.989,-1.99 -3.536,-4.374 -4.641,-7.153c-1.106,-2.778 -1.658,-5.778 -1.658,-8.999c0,-3.158 0.552,-6.126 1.658,-8.905c1.105,-2.778 2.652,-5.21 4.641,-7.294c1.99,-2.084 4.39,-3.726 7.2,-4.926c2.81,-1.2 5.952,-1.8 9.426,-1.8c3.22,0 6.378,0.758 9.473,2.274c3.094,1.516 5.526,3.694 7.294,6.536l0.189,0l0,-7.673l6.442,0l0,43.955c0,2.4 -0.332,4.958 -0.995,7.673c-0.663,2.716 -1.894,5.21 -3.694,7.484c-1.8,2.273 -4.247,4.168 -7.342,5.684c-3.094,1.515 -7.105,2.273 -12.031,2.273c-4.104,0 -8.02,-0.789 -11.746,-2.368c-3.726,-1.579 -6.915,-3.758 -9.568,-6.536l4.642,-4.926Zm1.231,-31.64c0,2.336 0.379,4.547 1.137,6.631c0.758,2.084 1.847,3.915 3.268,5.494c1.421,1.579 3.174,2.826 5.258,3.742c2.084,0.916 4.452,1.374 7.105,1.374c2.463,0 4.736,-0.411 6.82,-1.232c2.084,-0.821 3.884,-1.989 5.4,-3.505c1.516,-1.516 2.7,-3.331 3.552,-5.447c0.853,-2.116 1.279,-4.468 1.279,-7.057c0,-2.337 -0.426,-4.547 -1.279,-6.632c-0.852,-2.084 -2.036,-3.915 -3.552,-5.494c-1.516,-1.579 -3.316,-2.842 -5.4,-3.789c-2.084,-0.947 -4.357,-1.421 -6.82,-1.421c-2.653,0 -5.021,0.474 -7.105,1.421c-2.084,0.947 -3.837,2.21 -5.258,3.789c-1.421,1.579 -2.51,3.41 -3.268,5.494c-0.758,2.085 -1.137,4.295 -1.137,6.632Z" style="fill:#fff;fill-rule:nonzero;"/><path d="M289.186,328.062c0.126,1.2 0.221,2.526 0.284,3.979c0.063,1.452 0.095,2.652 0.095,3.599l0.189,0c1.263,-2.589 3.316,-4.689 6.158,-6.299c2.842,-1.61 5.841,-2.416 8.999,-2.416c5.621,0 9.836,1.674 12.647,5.021c2.81,3.347 4.215,7.768 4.215,13.262l0,27.188l-6.442,0l0,-24.535c0,-2.337 -0.189,-4.453 -0.568,-6.347c-0.379,-1.895 -1.026,-3.521 -1.942,-4.879c-0.916,-1.358 -2.147,-2.415 -3.694,-3.173c-1.548,-0.758 -3.49,-1.137 -5.826,-1.137c-1.705,0 -3.363,0.347 -4.974,1.042c-1.61,0.695 -3.047,1.752 -4.31,3.173c-1.263,1.421 -2.273,3.221 -3.031,5.4c-0.758,2.179 -1.137,4.752 -1.137,7.721l0,22.735l-6.442,0l0,-34.577c0,-1.2 -0.031,-2.747 -0.094,-4.641c-0.064,-1.895 -0.158,-3.6 -0.285,-5.116l6.158,0Z" style="fill:#fff;fill-rule:nonzero;"/></g><g><path d="M32.277,386.789l15.595,0c2.92,0 5.851,0.487 8.793,1.46c2.942,0.974 5.596,2.445 7.963,4.413c2.367,1.969 4.281,4.425 5.741,7.367c1.46,2.942 2.19,6.359 2.19,10.252c0,3.938 -0.73,7.367 -2.19,10.287c-1.46,2.919 -3.374,5.364 -5.741,7.332c-2.367,1.969 -5.021,3.44 -7.963,4.414c-2.942,0.973 -5.873,1.46 -8.793,1.46l-15.595,0l0,-46.985Zm4.778,42.737l9.49,0c3.539,0 6.625,-0.553 9.257,-1.659c2.633,-1.106 4.811,-2.555 6.537,-4.346c1.725,-1.792 3.019,-3.838 3.882,-6.139c0.863,-2.3 1.294,-4.667 1.294,-7.101c0,-2.433 -0.431,-4.8 -1.294,-7.1c-0.863,-2.301 -2.157,-4.347 -3.882,-6.139c-1.726,-1.791 -3.904,-3.24 -6.537,-4.346c-2.632,-1.106 -5.718,-1.659 -9.257,-1.659l-9.49,0l0,38.489Z" style="fill:#fff;fill-rule:nonzero;"/><path d="M105.938,415.856c-0.132,-2.92 -1.072,-5.342 -2.82,-7.267c-1.747,-1.924 -4.236,-2.886 -7.466,-2.886c-1.504,0 -2.897,0.276 -4.18,0.829c-1.283,0.553 -2.412,1.305 -3.385,2.256c-0.973,0.952 -1.747,2.035 -2.322,3.252c-0.576,1.217 -0.907,2.489 -0.996,3.816l21.169,0Zm4.579,1.46c0,0.309 0,0.641 0,0.995c0,0.354 -0.022,0.73 -0.066,1.128l-25.748,0c0.044,1.549 0.354,3.009 0.929,4.38c0.575,1.372 1.371,2.566 2.389,3.584c1.017,1.017 2.212,1.825 3.583,2.422c1.372,0.597 2.854,0.896 4.447,0.896c2.344,0 4.368,-0.542 6.072,-1.626c1.703,-1.084 2.997,-2.334 3.882,-3.749l3.384,2.654c-1.858,2.345 -3.904,4.026 -6.138,5.044c-2.234,1.017 -4.634,1.526 -7.2,1.526c-2.301,0 -4.436,-0.409 -6.404,-1.228c-1.969,-0.818 -3.661,-1.958 -5.077,-3.417c-1.416,-1.46 -2.533,-3.186 -3.351,-5.177c-0.819,-1.991 -1.228,-4.158 -1.228,-6.503c0,-2.345 0.398,-4.513 1.195,-6.504c0.796,-1.99 1.902,-3.716 3.318,-5.176c1.415,-1.46 3.074,-2.599 4.977,-3.417c1.902,-0.819 3.959,-1.228 6.171,-1.228c2.434,0 4.579,0.409 6.437,1.228c1.859,0.818 3.407,1.924 4.646,3.318c1.239,1.393 2.179,3.019 2.82,4.877c0.642,1.858 0.962,3.849 0.962,5.973Z" style="fill:#fff;fill-rule:nonzero;"/><path d="M136.73,410.082c-0.663,-1.283 -1.67,-2.333 -3.019,-3.152c-1.35,-0.818 -2.887,-1.227 -4.612,-1.227c-0.797,0 -1.593,0.088 -2.389,0.265c-0.797,0.177 -1.505,0.464 -2.124,0.863c-0.619,0.398 -1.117,0.907 -1.493,1.526c-0.376,0.619 -0.564,1.349 -0.564,2.19c0,1.46 0.597,2.577 1.792,3.351c1.194,0.774 3.074,1.427 5.64,1.958c3.672,0.752 6.382,1.847 8.13,3.285c1.747,1.438 2.621,3.373 2.621,5.806c0,1.77 -0.343,3.263 -1.029,4.48c-0.685,1.216 -1.581,2.212 -2.687,2.986c-1.106,0.774 -2.356,1.327 -3.75,1.659c-1.393,0.332 -2.798,0.498 -4.214,0.498c-2.344,0 -4.623,-0.487 -6.835,-1.46c-2.212,-0.973 -4.026,-2.5 -5.442,-4.579l3.584,-2.655c0.796,1.372 1.969,2.522 3.517,3.451c1.549,0.929 3.252,1.394 5.11,1.394c0.973,0 1.902,-0.089 2.787,-0.266c0.885,-0.177 1.659,-0.486 2.323,-0.929c0.663,-0.442 1.194,-1.006 1.593,-1.692c0.398,-0.686 0.597,-1.537 0.597,-2.555c0,-1.637 -0.786,-2.864 -2.356,-3.683c-1.571,-0.818 -3.838,-1.581 -6.802,-2.289c-0.929,-0.222 -1.914,-0.498 -2.953,-0.83c-1.04,-0.332 -2.002,-0.818 -2.887,-1.46c-0.885,-0.641 -1.615,-1.449 -2.19,-2.422c-0.575,-0.973 -0.863,-2.19 -0.863,-3.65c0,-1.593 0.31,-2.953 0.929,-4.081c0.62,-1.128 1.449,-2.057 2.489,-2.787c1.04,-0.73 2.223,-1.272 3.55,-1.626c1.328,-0.354 2.699,-0.531 4.115,-0.531c2.168,0 4.269,0.487 6.304,1.46c2.035,0.973 3.562,2.345 4.579,4.114l-3.451,2.588Z" style="fill:#fff;fill-rule:nonzero;"/><path d="M154.25,433.774l-4.513,0l0,-31.058l4.513,0l0,31.058Zm0.929,-43.003c0,0.929 -0.332,1.692 -0.996,2.29c-0.663,0.597 -1.393,0.895 -2.19,0.895c-0.796,0 -1.526,-0.298 -2.189,-0.895c-0.664,-0.598 -0.996,-1.361 -0.996,-2.29c0,-0.929 0.332,-1.692 0.996,-2.289c0.663,-0.598 1.393,-0.896 2.189,-0.896c0.797,0 1.527,0.298 2.19,0.896c0.664,0.597 0.996,1.36 0.996,2.289Z" style="fill:#fff;fill-rule:nonzero;"/><path d="M167.92,440.012c1.239,1.592 2.931,2.942 5.077,4.048c2.146,1.106 4.413,1.659 6.802,1.659c2.212,0 4.092,-0.321 5.641,-0.963c1.548,-0.641 2.798,-1.515 3.749,-2.621c0.951,-1.106 1.648,-2.4 2.091,-3.882c0.442,-1.482 0.663,-3.064 0.663,-4.745l0,-5.84l-0.132,0c-1.195,1.947 -2.887,3.451 -5.077,4.513c-2.19,1.062 -4.413,1.593 -6.67,1.593c-2.433,0 -4.634,-0.399 -6.603,-1.195c-1.968,-0.796 -3.649,-1.891 -5.043,-3.285c-1.394,-1.394 -2.477,-3.064 -3.252,-5.01c-0.774,-1.947 -1.161,-4.048 -1.161,-6.305c0,-2.212 0.387,-4.291 1.161,-6.238c0.775,-1.946 1.858,-3.649 3.252,-5.109c1.394,-1.46 3.075,-2.611 5.043,-3.451c1.969,-0.841 4.17,-1.261 6.603,-1.261c2.257,0 4.469,0.531 6.637,1.593c2.167,1.061 3.871,2.588 5.11,4.579l0.132,0l0,-5.376l4.513,0l0,30.792c0,1.681 -0.232,3.473 -0.697,5.375c-0.465,1.903 -1.327,3.65 -2.588,5.243c-1.261,1.593 -2.975,2.92 -5.143,3.982c-2.168,1.061 -4.977,1.592 -8.428,1.592c-2.876,0 -5.619,-0.553 -8.229,-1.659c-2.61,-1.106 -4.844,-2.632 -6.702,-4.579l3.251,-3.45Zm0.863,-22.165c0,1.637 0.265,3.185 0.796,4.645c0.531,1.46 1.294,2.743 2.29,3.849c0.995,1.106 2.223,1.98 3.683,2.621c1.46,0.642 3.119,0.963 4.977,0.963c1.725,0 3.318,-0.288 4.778,-0.863c1.46,-0.575 2.721,-1.394 3.783,-2.456c1.061,-1.061 1.891,-2.333 2.488,-3.815c0.597,-1.482 0.896,-3.13 0.896,-4.944c0,-1.637 -0.299,-3.186 -0.896,-4.646c-0.597,-1.46 -1.427,-2.743 -2.488,-3.849c-1.062,-1.106 -2.323,-1.99 -3.783,-2.654c-1.46,-0.664 -3.053,-0.995 -4.778,-0.995c-1.858,0 -3.517,0.331 -4.977,0.995c-1.46,0.664 -2.688,1.548 -3.683,2.654c-0.996,1.106 -1.759,2.389 -2.29,3.849c-0.531,1.46 -0.796,3.009 -0.796,4.646Z" style="fill:#fff;fill-rule:nonzero;"/><path d="M212.25,402.716c0.088,0.841 0.155,1.77 0.199,2.787c0.044,1.018 0.066,1.859 0.066,2.522l0.133,0c0.885,-1.814 2.323,-3.285 4.314,-4.413c1.99,-1.128 4.092,-1.692 6.304,-1.692c3.937,0 6.891,1.172 8.859,3.517c1.969,2.345 2.953,5.442 2.953,9.291l0,19.046l-4.512,0l0,-17.188c0,-1.637 -0.133,-3.119 -0.398,-4.446c-0.266,-1.328 -0.719,-2.467 -1.361,-3.418c-0.641,-0.951 -1.504,-1.692 -2.588,-2.223c-1.084,-0.531 -2.444,-0.796 -4.081,-0.796c-1.195,0 -2.356,0.243 -3.484,0.729c-1.128,0.487 -2.135,1.228 -3.02,2.224c-0.884,0.995 -1.592,2.256 -2.123,3.782c-0.531,1.527 -0.797,3.329 -0.797,5.409l0,15.927l-4.512,0l0,-24.223c0,-0.84 -0.022,-1.924 -0.067,-3.251c-0.044,-1.327 -0.11,-2.522 -0.199,-3.584l4.314,0Z" style="fill:#fff;fill-rule:nonzero;"/></g><g><path d="M32.277,443.857l10.925,0c2.045,0 4.099,0.341 6.16,1.022c2.06,0.682 3.92,1.713 5.578,3.092c1.658,1.379 2.999,3.099 4.021,5.16c1.023,2.061 1.535,4.455 1.535,7.183c0,2.758 -0.512,5.16 -1.535,7.205c-1.022,2.046 -2.363,3.758 -4.021,5.137c-1.658,1.379 -3.518,2.41 -5.578,3.092c-2.061,0.682 -4.115,1.022 -6.16,1.022l-10.925,0l0,-32.913Zm3.347,29.938l6.648,0c2.479,0 4.641,-0.387 6.485,-1.162c1.844,-0.775 3.371,-1.79 4.579,-3.045c1.209,-1.255 2.115,-2.689 2.72,-4.3c0.604,-1.612 0.906,-3.27 0.906,-4.974c0,-1.705 -0.302,-3.363 -0.906,-4.975c-0.605,-1.611 -1.511,-3.045 -2.72,-4.3c-1.208,-1.255 -2.735,-2.27 -4.579,-3.045c-1.844,-0.775 -4.006,-1.162 -6.485,-1.162l-6.648,0l0,26.963Z" style="fill:#fff;fill-rule:nonzero;"/><path d="M83.879,464.219c-0.093,-2.046 -0.751,-3.743 -1.976,-5.091c-1.224,-1.348 -2.967,-2.022 -5.229,-2.022c-1.054,0 -2.03,0.194 -2.929,0.581c-0.899,0.387 -1.689,0.914 -2.371,1.581c-0.682,0.666 -1.224,1.425 -1.627,2.278c-0.403,0.852 -0.636,1.743 -0.698,2.673l14.83,0Zm3.208,1.022c0,0.217 0,0.45 0,0.698c0,0.248 -0.016,0.511 -0.047,0.79l-18.037,0c0.031,1.085 0.248,2.107 0.651,3.068c0.403,0.961 0.96,1.798 1.673,2.511c0.713,0.712 1.55,1.278 2.511,1.696c0.96,0.419 1.999,0.628 3.114,0.628c1.643,0 3.061,-0.38 4.254,-1.139c1.193,-0.759 2.1,-1.635 2.72,-2.627l2.371,1.86c-1.302,1.643 -2.735,2.82 -4.301,3.533c-1.565,0.713 -3.246,1.069 -5.044,1.069c-1.611,0 -3.107,-0.286 -4.486,-0.86c-1.379,-0.573 -2.564,-1.371 -3.556,-2.394c-0.992,-1.023 -1.774,-2.231 -2.348,-3.626c-0.573,-1.395 -0.86,-2.913 -0.86,-4.556c0,-1.642 0.279,-3.161 0.837,-4.556c0.558,-1.394 1.333,-2.603 2.324,-3.626c0.992,-1.023 2.154,-1.821 3.487,-2.394c1.333,-0.573 2.774,-0.86 4.324,-0.86c1.704,0 3.207,0.287 4.509,0.86c1.302,0.573 2.386,1.348 3.254,2.324c0.868,0.977 1.526,2.116 1.976,3.417c0.449,1.302 0.674,2.697 0.674,4.184Z" style="fill:#fff;fill-rule:nonzero;"/><path d="M105.45,460.174c-0.465,-0.899 -1.17,-1.635 -2.115,-2.208c-0.946,-0.573 -2.023,-0.86 -3.231,-0.86c-0.558,0 -1.116,0.062 -1.674,0.186c-0.558,0.124 -1.054,0.325 -1.488,0.604c-0.433,0.279 -0.782,0.636 -1.046,1.069c-0.263,0.434 -0.395,0.946 -0.395,1.535c0,1.022 0.419,1.805 1.256,2.347c0.836,0.543 2.154,1 3.951,1.372c2.572,0.526 4.471,1.294 5.695,2.301c1.224,1.007 1.836,2.363 1.836,4.068c0,1.239 -0.24,2.285 -0.72,3.137c-0.481,0.853 -1.108,1.55 -1.883,2.092c-0.775,0.543 -1.651,0.93 -2.627,1.163c-0.976,0.232 -1.96,0.348 -2.952,0.348c-1.642,0 -3.238,-0.341 -4.788,-1.022c-1.55,-0.682 -2.82,-1.751 -3.812,-3.208l2.51,-1.86c0.558,0.961 1.379,1.767 2.464,2.418c1.085,0.651 2.278,0.976 3.58,0.976c0.682,0 1.332,-0.062 1.952,-0.186c0.62,-0.124 1.162,-0.341 1.627,-0.651c0.465,-0.31 0.837,-0.705 1.116,-1.185c0.279,-0.481 0.418,-1.077 0.418,-1.79c0,-1.147 -0.55,-2.007 -1.65,-2.58c-1.1,-0.574 -2.688,-1.108 -4.765,-1.604c-0.651,-0.155 -1.34,-0.349 -2.069,-0.581c-0.728,-0.233 -1.402,-0.573 -2.022,-1.023c-0.62,-0.449 -1.131,-1.015 -1.534,-1.697c-0.403,-0.682 -0.604,-1.534 -0.604,-2.557c0,-1.115 0.217,-2.068 0.65,-2.859c0.434,-0.79 1.015,-1.441 1.744,-1.952c0.728,-0.511 1.557,-0.891 2.487,-1.139c0.93,-0.248 1.89,-0.372 2.882,-0.372c1.519,0 2.991,0.341 4.417,1.023c1.425,0.682 2.494,1.642 3.207,2.882l-2.417,1.813Z" style="fill:#fff;fill-rule:nonzero;"/><path d="M117.723,476.77l-3.161,0l0,-21.756l3.161,0l0,21.756Zm0.651,-30.124c0,0.651 -0.233,1.185 -0.698,1.604c-0.465,0.418 -0.976,0.627 -1.534,0.627c-0.558,0 -1.069,-0.209 -1.534,-0.627c-0.465,-0.419 -0.697,-0.953 -0.697,-1.604c0,-0.651 0.232,-1.186 0.697,-1.604c0.465,-0.418 0.976,-0.628 1.534,-0.628c0.558,0 1.069,0.21 1.534,0.628c0.465,0.418 0.698,0.953 0.698,1.604Z" style="fill:#fff;fill-rule:nonzero;"/><path d="M127.299,481.14c0.868,1.116 2.054,2.061 3.557,2.836c1.503,0.775 3.091,1.162 4.765,1.162c1.55,0 2.867,-0.224 3.951,-0.674c1.085,-0.449 1.961,-1.061 2.627,-1.836c0.666,-0.775 1.155,-1.681 1.464,-2.72c0.31,-1.038 0.465,-2.146 0.465,-3.323l0,-4.091l-0.093,0c-0.836,1.363 -2.022,2.417 -3.556,3.161c-1.534,0.744 -3.092,1.115 -4.672,1.115c-1.705,0 -3.247,-0.278 -4.626,-0.836c-1.379,-0.558 -2.557,-1.325 -3.533,-2.301c-0.976,-0.977 -1.735,-2.147 -2.278,-3.51c-0.542,-1.364 -0.813,-2.836 -0.813,-4.417c0,-1.549 0.271,-3.006 0.813,-4.37c0.543,-1.363 1.302,-2.557 2.278,-3.579c0.976,-1.023 2.154,-1.829 3.533,-2.418c1.379,-0.589 2.921,-0.883 4.626,-0.883c1.58,0 3.13,0.372 4.649,1.116c1.518,0.744 2.712,1.813 3.579,3.207l0.093,0l0,-3.765l3.162,0l0,21.571c0,1.177 -0.163,2.432 -0.489,3.765c-0.325,1.333 -0.929,2.557 -1.813,3.673c-0.883,1.115 -2.084,2.045 -3.602,2.789c-1.519,0.744 -3.487,1.116 -5.905,1.116c-2.014,0 -3.936,-0.388 -5.764,-1.162c-1.829,-0.775 -3.394,-1.845 -4.695,-3.208l2.277,-2.418Zm0.605,-15.527c0,1.147 0.186,2.232 0.558,3.254c0.372,1.023 0.906,1.922 1.604,2.697c0.697,0.775 1.557,1.387 2.58,1.836c1.022,0.449 2.185,0.674 3.486,0.674c1.209,0 2.325,-0.201 3.347,-0.604c1.023,-0.403 1.907,-0.976 2.65,-1.72c0.744,-0.744 1.325,-1.635 1.744,-2.673c0.418,-1.039 0.627,-2.193 0.627,-3.464c0,-1.146 -0.209,-2.231 -0.627,-3.254c-0.419,-1.023 -1,-1.921 -1.744,-2.696c-0.743,-0.775 -1.627,-1.395 -2.65,-1.86c-1.022,-0.465 -2.138,-0.697 -3.347,-0.697c-1.301,0 -2.464,0.232 -3.486,0.697c-1.023,0.465 -1.883,1.085 -2.58,1.86c-0.698,0.775 -1.232,1.673 -1.604,2.696c-0.372,1.023 -0.558,2.108 -0.558,3.254Z" style="fill:#fff;fill-rule:nonzero;"/><path d="M158.354,455.014c0.062,0.589 0.108,1.24 0.139,1.952c0.031,0.713 0.047,1.302 0.047,1.767l0.093,0c0.62,-1.271 1.627,-2.301 3.021,-3.092c1.395,-0.79 2.867,-1.185 4.417,-1.185c2.758,0 4.827,0.821 6.206,2.464c1.379,1.642 2.069,3.812 2.069,6.508l0,13.342l-3.161,0l0,-12.04c0,-1.147 -0.093,-2.185 -0.279,-3.115c-0.186,-0.93 -0.504,-1.728 -0.953,-2.394c-0.45,-0.666 -1.054,-1.185 -1.813,-1.557c-0.76,-0.372 -1.713,-0.558 -2.859,-0.558c-0.837,0 -1.651,0.17 -2.441,0.511c-0.79,0.341 -1.495,0.86 -2.115,1.558c-0.62,0.697 -1.116,1.58 -1.488,2.649c-0.372,1.07 -0.558,2.333 -0.558,3.789l0,11.157l-3.161,0l0,-16.968c0,-0.589 -0.015,-1.348 -0.046,-2.278c-0.031,-0.93 -0.078,-1.766 -0.14,-2.51l3.022,0Z" style="fill:#fff;fill-rule:nonzero;"/></g><path d="M140.764,503.022l-108.487,0l0,180.848c12.658,-59.547 46.072,-119.743 108.487,-180.848Z" style="fill:url(#_Linear2);"/><g><path d="M1131.73,36.032l0,40.273c0,8.512 2.197,15.011 6.59,19.587c4.394,4.485 10.892,6.773 19.496,6.773c8.604,0 15.103,-2.288 19.587,-6.864c4.302,-4.485 6.499,-10.984 6.499,-19.496l0,-40.273l-7.505,0l0,40.364c0,6.408 -1.465,11.259 -4.302,14.554c-3.112,3.386 -7.872,5.125 -14.279,5.125c-6.498,0 -11.258,-1.739 -14.278,-5.125c-2.929,-3.295 -4.302,-8.146 -4.302,-14.554l0,-40.364l-7.506,0Z" style="fill:#fff;fill-rule:nonzero;"/><rect x="1197.63" y="36.032" width="7.414" height="65.352" style="fill:#fff;fill-rule:nonzero;"/><path d="M1248.06,26.33l-32.493,84.207l6.59,0l32.402,-84.207l-6.499,0Z" style="fill:#fff;fill-rule:nonzero;"/><path d="M1264.54,36.032l0,40.273c0,8.512 2.197,15.011 6.59,19.587c4.394,4.485 10.892,6.773 19.496,6.773c8.604,0 15.102,-2.288 19.587,-6.864c4.302,-4.485 6.499,-10.984 6.499,-19.496l0,-40.273l-7.506,0l0,40.364c0,6.408 -1.464,11.259 -4.301,14.554c-3.112,3.386 -7.872,5.125 -14.279,5.125c-6.499,0 -11.258,-1.739 -14.279,-5.125c-2.928,-3.295 -4.301,-8.146 -4.301,-14.554l0,-40.364l-7.506,0Z" style="fill:#fff;fill-rule:nonzero;"/><path d="M1325.5,36.032l22.333,31.395l-24.072,33.957l9.244,0l19.404,-28.008l19.496,28.008l9.244,0l-24.255,-33.957l22.516,-31.395l-9.244,0l-17.757,25.445l-17.665,-25.445l-9.244,0Z" style="fill:#fff;fill-rule:nonzero;"/></g><path d="M1558.29,336.431l0,68.097l260.189,0l0,-68.097l-260.189,0Z" style="fill:url(#_Linear3);"/><path d="M1558.29,237.316l0,68.097l260.189,0l0,-68.097l-260.189,0Z" style="fill:url(#_Linear4);"/><path d="M1622.79,134.049l0,68.097l195.686,0l0,-68.097l-195.686,0Z" style="fill:url(#_Linear5);"/><path d="M1413.72,34.934l0,68.097l404.754,0l0,-68.097l-404.754,0Z" style="fill:url(#_Linear6);"/><g><path d="M1156.35,133.866c-6.224,0 -11.258,1.739 -15.103,5.308c-4.027,3.57 -6.407,8.513 -6.956,14.828l7.414,0c0.458,-4.393 1.922,-7.78 4.485,-10.16c2.471,-2.379 5.858,-3.478 10.251,-3.478c4.211,0 7.597,1.007 9.977,3.204c2.197,2.013 3.387,4.851 3.387,8.512c0,3.661 -1.19,6.499 -3.479,8.512c-2.288,1.922 -5.583,2.929 -9.976,2.929l-5.034,0l0,5.858l5.308,0c4.577,0 8.055,1.007 10.618,3.203c2.563,2.197 3.844,5.218 3.844,9.153c0,3.845 -1.373,7.048 -3.936,9.611c-2.837,2.654 -6.59,4.027 -11.258,4.027c-4.119,0 -7.505,-1.19 -10.251,-3.386c-3.204,-2.655 -4.943,-6.59 -5.126,-11.716l-7.597,0c0.549,7.322 3.112,12.906 7.78,16.75c3.936,3.112 8.97,4.759 15.194,4.759c6.773,0 12.265,-1.922 16.475,-5.766c4.119,-3.753 6.224,-8.604 6.224,-14.553c0,-3.844 -1.098,-7.048 -3.295,-9.611c-2.013,-2.563 -4.942,-4.393 -8.787,-5.583c7.14,-2.38 10.709,-7.322 10.709,-14.645c0,-5.491 -1.922,-9.793 -5.674,-12.997c-3.845,-3.203 -8.97,-4.759 -15.194,-4.759Z" style="fill:#fff;fill-rule:nonzero;"/><path d="M1189.76,135.147l0,65.352l22.699,0c10.251,0 18.123,-3.021 23.615,-8.97c5.217,-5.675 7.871,-13.638 7.871,-23.706c0,-10.251 -2.471,-18.214 -7.322,-23.706c-5.309,-6.041 -13.089,-8.97 -23.432,-8.97l-23.431,0Zm7.505,6.499l14.736,0c8.604,0 14.828,2.196 18.855,6.681c3.753,4.211 5.675,10.709 5.675,19.496c0,8.512 -2.105,15.011 -6.132,19.404c-4.302,4.485 -10.709,6.773 -19.221,6.773l-13.913,0l0,-52.354Z" style="fill:#fff;fill-rule:nonzero;"/><path d="M1284.86,135.147l0,65.352l22.699,0c10.251,0 18.123,-3.021 23.614,-8.97c5.218,-5.675 7.872,-13.638 7.872,-23.706c0,-10.251 -2.471,-18.214 -7.322,-23.706c-5.309,-6.041 -13.089,-8.97 -23.432,-8.97l-23.431,0Zm7.505,6.499l14.736,0c8.604,0 14.828,2.196 18.855,6.681c3.753,4.211 5.675,10.709 5.675,19.496c0,8.512 -2.105,15.011 -6.132,19.404c-4.302,4.485 -10.709,6.773 -19.221,6.773l-13.913,0l0,-52.354Z" style="fill:#fff;fill-rule:nonzero;"/><path d="M1349.48,135.147l0,65.352l47.87,0l0,-6.499l-40.364,0l0,-23.98l36.611,0l0,-6.499l-36.611,0l0,-21.875l38.808,0l0,-6.499l-46.314,0Z" style="fill:#fff;fill-rule:nonzero;"/><path d="M1429.75,133.866c-6.773,0 -12.356,1.464 -16.658,4.393c-4.851,3.112 -7.231,7.597 -7.231,13.272c0,5.492 2.472,9.702 7.506,12.631c2.105,1.098 7.139,2.929 15.01,5.309c7.323,2.105 11.991,3.661 13.821,4.759c4.302,2.288 6.499,5.492 6.499,9.611c0,3.478 -1.648,6.224 -4.943,8.237c-3.295,2.014 -7.688,3.021 -12.997,3.021c-5.858,0 -10.251,-1.282 -13.272,-3.661c-3.295,-2.655 -5.308,-6.865 -5.949,-12.54l-7.414,0c0.549,8.055 3.387,14.004 8.512,17.94c4.394,3.295 10.435,4.942 18.123,4.942c7.78,0 13.913,-1.647 18.489,-4.851c4.577,-3.295 6.865,-7.871 6.865,-13.546c0,-5.949 -2.746,-10.526 -8.146,-13.821c-2.746,-1.647 -8.421,-3.753 -17.025,-6.315c-6.315,-1.831 -10.343,-3.204 -11.99,-4.119c-3.753,-2.014 -5.583,-4.668 -5.583,-7.963c0,-3.753 1.556,-6.499 4.668,-8.329c2.746,-1.648 6.498,-2.38 11.349,-2.38c5.309,0 9.428,1.098 12.357,3.478c2.837,2.288 4.668,5.766 5.491,10.526l7.414,0c-0.64,-6.865 -3.112,-12.082 -7.505,-15.56c-4.21,-3.387 -10.068,-5.034 -17.391,-5.034Z" style="fill:#fff;fill-rule:nonzero;"/><rect x="1466.18" y="135.147" width="7.414" height="65.352" style="fill:#fff;fill-rule:nonzero;"/><path d="M1487.32,135.147l0,65.352l7.506,0l0,-53.728l0.274,0l37.161,53.728l7.689,0l0,-65.352l-7.506,0l0,53.179l-0.274,0l-36.978,-53.179l-7.872,0Z" style="fill:#fff;fill-rule:nonzero;"/><path d="M1553.13,135.147l0,65.352l47.869,0l0,-6.499l-40.364,0l0,-23.98l36.612,0l0,-6.499l-36.612,0l0,-21.875l38.808,0l0,-6.499l-46.313,0Z" style="fill:#fff;fill-rule:nonzero;"/></g><g><path d="M1162.76,237.133c-9.611,0 -17.208,3.386 -22.791,10.251c-5.309,6.315 -7.872,14.278 -7.872,23.981c0,9.702 2.655,17.665 7.964,23.797c5.674,6.59 13.729,9.885 24.072,9.885c5.4,0 10.434,-0.732 15.194,-2.196c4.484,-1.465 8.329,-3.387 11.441,-5.95l0,-26.726l-27.917,0l0,6.498l20.503,0l0,16.659c-2.288,1.464 -5.034,2.745 -8.238,3.661c-3.295,0.915 -6.681,1.464 -10.251,1.464c-8.512,0 -14.919,-2.563 -19.221,-7.597c-4.027,-4.759 -6.041,-11.258 -6.041,-19.495c0,-8.421 2.014,-15.103 6.224,-20.045c4.21,-5.034 9.793,-7.506 16.933,-7.506c5.766,0 10.434,1.373 14.004,4.211c3.386,2.654 5.583,6.407 6.59,11.349l7.505,0c-1.19,-7.139 -4.027,-12.539 -8.604,-16.292c-4.851,-4.027 -11.349,-5.949 -19.495,-5.949Z" style="fill:#fff;fill-rule:nonzero;"/><path d="M1203.31,238.414l0,65.352l7.506,0l0,-28.1l19.77,0c4.119,0 7.231,0.733 9.427,2.38c2.38,1.648 3.753,4.485 4.119,8.329l0.824,8.696c0.275,3.661 1.19,6.498 2.654,8.695l8.146,0c-1.922,-2.38 -3.112,-5.583 -3.478,-9.611l-1.007,-10.068c-0.732,-6.59 -4.21,-10.526 -10.434,-11.899l0,-0.183c3.753,-0.915 6.682,-2.746 8.878,-5.675c2.014,-2.837 3.021,-6.04 3.021,-9.702c0,-6.041 -2.014,-10.617 -5.858,-13.729c-3.753,-3.02 -8.878,-4.485 -15.377,-4.485l-28.191,0Zm7.506,6.499l19.77,0c5.034,0 8.787,1.006 11.166,3.02c2.197,1.922 3.387,4.943 3.387,8.97c0,3.844 -1.19,6.773 -3.478,8.878c-2.563,2.197 -6.316,3.387 -11.075,3.387l-19.77,0l0,-24.255Z" style="fill:#fff;fill-rule:nonzero;"/><path d="M1284.31,238.414l-25.72,65.352l8.054,0l6.957,-18.306l30.021,0l6.956,18.306l8.146,0l-25.719,-65.352l-8.695,0Zm-8.33,40.731l12.54,-32.676l0.366,0l12.356,32.676l-25.262,0Z" style="fill:#fff;fill-rule:nonzero;"/><path d="M1325.32,238.414l0,65.352l7.505,0l0,-26.727l19.13,0c15.01,0 22.607,-6.498 22.607,-19.404c0,-12.814 -7.505,-19.221 -22.516,-19.221l-26.726,0Zm7.505,6.499l18.763,0c5.218,0 9.062,1.006 11.625,3.203c2.562,1.922 3.844,5.126 3.844,9.519c0,4.394 -1.282,7.597 -3.753,9.702c-2.563,2.105 -6.407,3.204 -11.716,3.204l-18.763,0l0,-25.628Z" style="fill:#fff;fill-rule:nonzero;"/><path d="M1384.08,238.414l0,65.352l7.506,0l0,-30.479l37.801,0l0,30.479l7.506,0l0,-65.352l-7.506,0l0,28.374l-37.801,0l0,-28.374l-7.506,0Z" style="fill:#fff;fill-rule:nonzero;"/><rect x="1450.53" y="238.414" width="7.414" height="65.352" style="fill:#fff;fill-rule:nonzero;"/><path d="M1499.86,237.133c-10.068,0 -17.94,3.386 -23.432,10.342c-5.034,6.224 -7.505,14.187 -7.505,23.89c0,9.702 2.38,17.573 7.322,23.614c5.4,6.682 13.18,10.068 23.34,10.068c6.956,0 12.997,-2.013 18.031,-5.949c5.401,-4.21 8.787,-10.16 10.252,-17.757l-7.231,0c-1.282,5.675 -3.936,9.977 -7.78,12.906c-3.661,2.746 -8.055,4.119 -13.272,4.119c-7.688,0 -13.455,-2.563 -17.482,-7.597c-3.844,-4.76 -5.675,-11.258 -5.675,-19.404c0,-8.147 1.922,-14.645 5.767,-19.588c4.118,-5.308 9.976,-7.963 17.573,-7.963c5.126,0 9.428,1.19 12.997,3.661c3.662,2.563 6.041,6.224 6.957,10.984l7.23,0c-0.915,-6.499 -3.844,-11.716 -8.786,-15.56c-4.943,-3.844 -11.075,-5.766 -18.306,-5.766Z" style="fill:#fff;fill-rule:nonzero;"/></g><g><path d="M813.758,337.529l0,65.352l7.505,0l0,-26.727l19.13,0c15.011,0 22.608,-6.498 22.608,-19.404c0,-12.814 -7.506,-19.221 -22.516,-19.221l-26.727,0Zm7.505,6.499l18.764,0c5.217,0 9.061,1.006 11.624,3.203c2.563,1.922 3.844,5.126 3.844,9.519c0,4.394 -1.281,7.597 -3.752,9.702c-2.563,2.105 -6.407,3.204 -11.716,3.204l-18.764,0l0,-25.628Z" style="fill:#fff;fill-rule:nonzero;"/><path d="M872.52,337.529l0,65.352l7.505,0l0,-30.479l37.802,0l0,30.479l7.505,0l0,-65.352l-7.505,0l0,28.374l-37.802,0l0,-28.374l-7.505,0Z" style="fill:#fff;fill-rule:nonzero;"/><path d="M966.978,336.248c-9.885,0 -17.574,3.295 -23.249,9.885c-5.4,6.224 -8.054,14.278 -8.054,24.163c0,9.794 2.654,17.849 8.054,24.073c5.675,6.498 13.364,9.793 23.157,9.793c9.794,0 17.574,-3.295 23.249,-9.793c5.308,-6.224 8.054,-14.187 8.054,-24.073c0,-9.976 -2.746,-18.031 -8.054,-24.255c-5.675,-6.59 -13.455,-9.793 -23.157,-9.793Zm0,6.681c7.505,0 13.363,2.472 17.573,7.506c4.028,4.942 6.133,11.532 6.133,19.861c0,8.238 -2.105,14.737 -6.133,19.679c-4.21,4.943 -10.159,7.506 -17.665,7.506c-7.505,0 -13.454,-2.563 -17.665,-7.689c-4.027,-4.942 -6.041,-11.441 -6.041,-19.496c0,-8.146 2.014,-14.644 6.041,-19.587c4.302,-5.217 10.251,-7.78 17.757,-7.78Z" style="fill:#fff;fill-rule:nonzero;"/><path d="M1003.59,337.529l0,6.499l23.065,0l0,58.853l7.414,0l0,-58.853l23.065,0l0,-6.499l-53.544,0Z" style="fill:#fff;fill-rule:nonzero;"/><path d="M1093.84,336.248c-9.885,0 -17.573,3.295 -23.248,9.885c-5.4,6.224 -8.055,14.278 -8.055,24.163c0,9.794 2.655,17.849 8.055,24.073c5.675,6.498 13.363,9.793 23.157,9.793c9.793,0 17.573,-3.295 23.248,-9.793c5.309,-6.224 8.055,-14.187 8.055,-24.073c0,-9.976 -2.746,-18.031 -8.055,-24.255c-5.675,-6.59 -13.455,-9.793 -23.157,-9.793Zm0,6.681c7.506,0 13.364,2.472 17.574,7.506c4.027,4.942 6.132,11.532 6.132,19.861c0,8.238 -2.105,14.737 -6.132,19.679c-4.21,4.943 -10.16,7.506 -17.665,7.506c-7.506,0 -13.455,-2.563 -17.665,-7.689c-4.028,-4.942 -6.041,-11.441 -6.041,-19.496c0,-8.146 2.013,-14.644 6.041,-19.587c4.302,-5.217 10.251,-7.78 17.756,-7.78Z" style="fill:#fff;fill-rule:nonzero;"/><path d="M1163.4,336.248c-9.61,0 -17.207,3.386 -22.79,10.251c-5.309,6.315 -7.872,14.278 -7.872,23.981c0,9.702 2.655,17.665 7.963,23.797c5.675,6.59 13.73,9.885 24.072,9.885c5.401,0 10.435,-0.732 15.194,-2.196c4.485,-1.465 8.329,-3.387 11.441,-5.95l0,-26.726l-27.916,0l0,6.498l20.503,0l0,16.659c-2.289,1.464 -5.035,2.745 -8.238,3.661c-3.295,0.915 -6.682,1.464 -10.251,1.464c-8.513,0 -14.92,-2.563 -19.221,-7.597c-4.028,-4.759 -6.041,-11.258 -6.041,-19.495c0,-8.421 2.013,-15.103 6.224,-20.045c4.21,-5.034 9.793,-7.506 16.932,-7.506c5.767,0 10.435,1.373 14.004,4.211c3.387,2.654 5.584,6.407 6.591,11.349l7.505,0c-1.19,-7.139 -4.027,-12.539 -8.604,-16.292c-4.851,-4.027 -11.349,-5.949 -19.496,-5.949Z" style="fill:#fff;fill-rule:nonzero;"/><path d="M1203.95,337.529l0,65.352l7.505,0l0,-28.1l19.771,0c4.118,0 7.23,0.733 9.427,2.38c2.38,1.648 3.753,4.485 4.119,8.329l0.824,8.696c0.274,3.661 1.19,6.498 2.654,8.695l8.146,0c-1.922,-2.38 -3.112,-5.583 -3.478,-9.611l-1.007,-10.068c-0.732,-6.59 -4.21,-10.526 -10.434,-11.899l0,-0.183c3.753,-0.915 6.681,-2.746 8.878,-5.675c2.014,-2.837 3.021,-6.041 3.021,-9.702c0,-6.041 -2.014,-10.617 -5.858,-13.729c-3.753,-3.021 -8.879,-4.485 -15.377,-4.485l-28.191,0Zm7.505,6.499l19.771,0c5.034,0 8.786,1.006 11.166,3.02c2.197,1.922 3.387,4.943 3.387,8.97c0,3.844 -1.19,6.773 -3.478,8.878c-2.563,2.197 -6.316,3.387 -11.075,3.387l-19.771,0l0,-24.255Z" style="fill:#fff;fill-rule:nonzero;"/><path d="M1284.95,337.529l-25.719,65.352l8.054,0l6.956,-18.306l30.022,0l6.956,18.306l8.146,0l-25.72,-65.352l-8.695,0Zm-8.329,40.73l12.54,-32.675l0.366,0l12.356,32.675l-25.262,0Z" style="fill:#fff;fill-rule:nonzero;"/><path d="M1325.95,337.529l0,65.352l7.506,0l0,-26.727l19.129,0c15.011,0 22.608,-6.498 22.608,-19.404c0,-12.814 -7.505,-19.221 -22.516,-19.221l-26.727,0Zm7.506,6.499l18.763,0c5.217,0 9.062,1.006 11.624,3.203c2.563,1.922 3.845,5.126 3.845,9.519c0,4.394 -1.282,7.597 -3.753,9.702c-2.563,2.105 -6.407,3.204 -11.716,3.204l-18.763,0l0,-25.628Z" style="fill:#fff;fill-rule:nonzero;"/><path d="M1384.72,337.529l0,65.352l7.505,0l0,-30.479l37.802,0l0,30.479l7.505,0l0,-65.352l-7.505,0l0,28.374l-37.802,0l0,-28.374l-7.505,0Z" style="fill:#fff;fill-rule:nonzero;"/><rect x="1451.17" y="337.529" width="7.414" height="65.352" style="fill:#fff;fill-rule:nonzero;"/><path d="M1500.5,336.248c-10.068,0 -17.939,3.386 -23.431,10.342c-5.034,6.224 -7.505,14.187 -7.505,23.89c0,9.702 2.379,17.573 7.322,23.614c5.4,6.682 13.18,10.068 23.34,10.068c6.956,0 12.997,-2.013 18.031,-5.949c5.4,-4.21 8.787,-10.16 10.251,-17.757l-7.23,0c-1.282,5.675 -3.936,9.977 -7.78,12.906c-3.662,2.746 -8.055,4.119 -13.272,4.119c-7.689,0 -13.455,-2.563 -17.482,-7.597c-3.844,-4.76 -5.675,-11.258 -5.675,-19.404c0,-8.147 1.922,-14.645 5.766,-19.588c4.119,-5.308 9.977,-7.963 17.574,-7.963c5.126,0 9.427,1.19 12.997,3.661c3.661,2.563 6.041,6.224 6.956,10.984l7.231,0c-0.915,-6.499 -3.844,-11.716 -8.787,-15.56c-4.942,-3.844 -11.075,-5.766 -18.306,-5.766Z" style="fill:#fff;fill-rule:nonzero;"/></g><path d="M1818.48,524.421c-775.211,-29.656 -1226.93,20.25 -1315.6,159.449l1315.6,0l0,-159.449Z" style="fill:url(#_Linear7);"/></g></g><defs><linearGradient id="_Linear2" x1="0" y1="0" x2="1" y2="0" gradientUnits="userSpaceOnUse" gradientTransform="matrix(-3.50335e-13,180.849,-180.849,-3.50335e-13,32.277,503.022)"><stop offset="0" style="stop-color:#fff;stop-opacity:1"/><stop offset="1" style="stop-color:#9ad7d8;stop-opacity:1"/></linearGradient><linearGradient id="_Linear3" x1="0" y1="0" x2="1" y2="0" gradientUnits="userSpaceOnUse" gradientTransform="matrix(260.189,2.36812e-13,-5.1058e-13,113.519,1558.29,404.528)"><stop offset="0" style="stop-color:#fff;stop-opacity:1"/><stop offset="1" style="stop-color:#9ad7d8;stop-opacity:1"/></linearGradient><linearGradient id="_Linear4" x1="0" y1="0" x2="1" y2="0" gradientUnits="userSpaceOnUse" gradientTransform="matrix(260.189,2.36812e-13,-5.1058e-13,113.519,1558.29,305.413)"><stop offset="0" style="stop-color:#fff;stop-opacity:1"/><stop offset="1" style="stop-color:#9ad7d8;stop-opacity:1"/></linearGradient><linearGradient id="_Linear5" x1="0" y1="0" x2="1" y2="0" gradientUnits="userSpaceOnUse" gradientTransform="matrix(195.686,2.32621e-13,-3.85628e-13,113.519,1622.79,202.146)"><stop offset="0" style="stop-color:#fff;stop-opacity:1"/><stop offset="1" style="stop-color:#9ad7d8;stop-opacity:1"/></linearGradient><linearGradient id="_Linear6" x1="0" y1="0" x2="1" y2="0" gradientUnits="userSpaceOnUse" gradientTransform="matrix(404.754,2.46206e-13,-7.90627e-13,113.519,1413.72,103.031)"><stop offset="0" style="stop-color:#fff;stop-opacity:1"/><stop offset="1" style="stop-color:#9ad7d8;stop-opacity:1"/></linearGradient><linearGradient id="_Linear7" x1="0" y1="0" x2="1" y2="0" gradientUnits="userSpaceOnUse" gradientTransform="matrix(-4.24841e-12,159.45,-2193.1,-3.08881e-13,502.879,524.421)"><stop offset="0" style="stop-color:#fff;stop-opacity:1"/><stop offset="1" style="stop-color:#9ad7d8;stop-opacity:1"/></linearGradient></defs></svg>