<?xml version="1.0" encoding="UTF-8" standalone="no"?><!DOCTYPE svg PUBLIC "-//W3C//DTD SVG 1.1//EN" "http://www.w3.org/Graphics/SVG/1.1/DTD/svg11.dtd"><svg width="100%" height="100%" viewBox="0 0 1819 684" version="1.1" xmlns="http://www.w3.org/2000/svg" xmlns:xlink="http://www.w3.org/1999/xlink" xml:space="preserve" xmlns:serif="http://www.serif.com/" style="fill-rule:evenodd;clip-rule:evenodd;stroke-linecap:round;stroke-linejoin:round;stroke-miterlimit:1.5;"><path id="Artboard3" d="M1818.48,50c0,-13.261 -5.268,-25.979 -14.645,-35.355c-9.376,-9.377 -22.094,-14.645 -35.355,-14.645c-260.283,0 -1458.19,0 -1718.48,0c-13.261,0 -25.979,5.268 -35.355,14.645c-9.377,9.376 -14.645,22.094 -14.645,35.355c0,126.328 0,457.233 0,583.56c0,13.261 5.268,25.979 14.645,35.356c9.376,9.377 22.094,14.644 35.355,14.644c260.283,0 1458.19,0 1718.48,0c13.261,0 25.979,-5.267 35.355,-14.644c9.377,-9.377 14.645,-22.095 14.645,-35.356c0,-126.327 0,-457.232 0,-583.56Z" style="fill:none;"/><clipPath id="_clip1"><path d="M1818.48,50c0,-13.261 -5.268,-25.979 -14.645,-35.355c-9.376,-9.377 -22.094,-14.645 -35.355,-14.645c-260.283,0 -1458.19,0 -1718.48,0c-13.261,0 -25.979,5.268 -35.355,14.645c-9.377,9.376 -14.645,22.094 -14.645,35.355c0,126.328 0,457.233 0,583.56c0,13.261 5.268,25.979 14.645,35.356c9.376,9.377 22.094,14.644 35.355,14.644c260.283,0 1458.19,0 1718.48,0c13.261,0 25.979,-5.267 35.355,-14.644c9.377,-9.377 14.645,-22.095 14.645,-35.356c0,-126.327 0,-457.232 0,-583.56Z"/></clipPath><g clip-path="url(#_clip1)"><g><path d="M1818.48,50c0,-13.261 -5.268,-25.979 -14.645,-35.355c-9.376,-9.377 -22.094,-14.645 -35.355,-14.645c-260.283,0 -1458.19,0 -1718.48,0c-13.261,0 -25.979,5.268 -35.355,14.645c-9.377,9.376 -14.645,22.094 -14.645,35.355c0,126.375 0,457.495 0,583.87c0,13.261 5.268,25.979 14.645,35.356c9.376,9.377 22.094,14.644 35.355,14.644c260.283,0 1458.19,0 1718.48,0c13.261,0 25.979,-5.267 35.355,-14.644c9.377,-9.377 14.645,-22.095 14.645,-35.356c0,-126.375 0,-457.495 0,-583.87Z" style="fill:#ffe6e1;"/></g><g><path d="M387.476,431.956c-25.182,-7.74 -53.433,11.378 -63.049,42.666c-9.616,31.288 3.022,62.972 28.204,70.712c-3.489,-15.549 -3.215,-38.282 3.735,-60.896c6.95,-22.614 19.49,-41.577 31.11,-52.482Z" style="fill:#e2d0ff;"/><path d="M277.417,460.713c25.182,-7.739 53.434,11.379 63.05,42.666c9.615,31.288 -3.022,62.973 -28.205,70.712c3.49,-15.549 3.216,-38.282 -3.734,-60.896c-6.95,-22.613 -19.491,-41.576 -31.111,-52.482Z" style="fill:#e2d0ff;"/></g><rect x="867.28" y="624.908" width="83.915" height="58.652" style="fill:#e2d0ff;"/><path d="M426.756,525.448l-188.619,0l47.155,158.112l94.31,0l47.154,-158.112Z" style="fill:#ffc8e1;"/><path d="M1338.43,165.421l175.368,-55.197l-65.418,272.442l77.378,261.515" style="fill:none;stroke:#ffc2e1;stroke-width:18px;"/><path d="M1634.48,660.082c0,-13.225 -10.737,-23.962 -23.962,-23.962l-238.279,0c-13.225,0 -23.962,10.737 -23.962,23.962l0,47.924c0,13.225 10.737,23.962 23.962,23.962l238.279,0c13.225,0 23.962,-10.737 23.962,-23.962l0,-47.924Z" style="fill:#ffc8e1;"/><path d="M1459.55,638.745c0,-7.637 -6.2,-13.837 -13.837,-13.837l-27.675,0c-7.637,0 -13.837,6.2 -13.837,13.837l0,54.038c0,7.637 6.2,13.837 13.837,13.837l27.675,0c7.637,0 13.837,-6.2 13.837,-13.837l0,-54.038Z" style="fill:#ffc8e1;"/><circle cx="1301.91" cy="242.711" r="38.05" style="fill:#f8df7d;"/><path d="M1415.23,290.18l-226.639,-95.012l90.592,-57.187l113.319,47.506l22.728,104.693Z" style="fill:#ffc8e1;"/><path d="M696.679,384.355l-224.004,0l0,-264.813l224.004,0l0,264.813Zm-207.004,-247.813l0,230.813l190.004,0l0,-230.813l-190.004,0Z" style="fill:#e2d0ff;"/><rect x="464.574" y="110.224" width="224.005" height="264.813" style="fill:none;"/><clipPath id="_clip2"><rect x="464.574" y="110.224" width="224.005" height="264.813"/></clipPath><g clip-path="url(#_clip2)"><path d="M464.574,308.909l68.707,-66.279l98.532,121.303" style="fill:none;stroke:#ffc2e1;stroke-width:17px;"/><path d="M564.223,280.723l55.549,-78.668l68.806,62.07" style="fill:none;stroke:#ffc2e1;stroke-width:17px;"/></g><path d="M688.578,375.036l-224.004,0l0,-264.812l224.004,0l0,264.812Zm-207.005,-247.812l0,230.812l190.005,0l0,-230.812l-190.005,0Z" style="fill:#ffc2e1;"/><path d="M1187.85,636.12l-557.233,0l81.49,-91.399l394.253,0l81.49,91.399Zm-470.365,-79.399l-60.092,67.399l503.681,0l-60.092,-67.399l-383.497,0Z" style="fill:#ffc2e1;"/><path d="M289.543,674.227c0,0 58.554,0.542 72.259,-6.748c11.081,-5.894 15.471,-13.245 15.471,-13.245c0,0 -0.706,18.473 -14.687,22.139c-12.067,3.165 -73.043,-2.146 -73.043,-2.146Z" style="fill:#e2d0ff;"/></g></svg>