<?xml version="1.0" encoding="UTF-8" standalone="no"?><!DOCTYPE svg PUBLIC "-//W3C//DTD SVG 1.1//EN" "http://www.w3.org/Graphics/SVG/1.1/DTD/svg11.dtd"><svg width="100%" height="100%" viewBox="0 0 1819 684" version="1.1" xmlns="http://www.w3.org/2000/svg" xmlns:xlink="http://www.w3.org/1999/xlink" xml:space="preserve" xmlns:serif="http://www.serif.com/" style="fill-rule:evenodd;clip-rule:evenodd;stroke-linejoin:round;stroke-miterlimit:1.41421;"><rect id="Artboard5" x="0" y="0" width="1818.48" height="683.56" style="fill:none;"/><g><g><path d="M283.902,186.617l0,35.987c0,4.396 -0.82,7.6 -2.384,9.611c-1.639,2.086 -4.247,3.204 -7.823,3.204c-6.483,0 -9.686,-3.651 -9.686,-10.803l0,-1.789l-6.11,0l0,1.863c0,5.215 1.341,9.239 4.173,12.07c2.682,2.682 6.482,4.098 11.474,4.098c5.886,0 10.207,-1.639 12.889,-4.917c2.384,-2.981 3.577,-7.302 3.577,-13.114l0,-36.21l-6.11,0Z" style="fill-rule:nonzero;"/><path d="M299.921,201.295l0,23.842c0,10.431 4.619,15.721 14.007,15.721c5.216,0 9.388,-2.384 12.517,-7.004l0,5.961l5.961,0l0,-38.52l-5.961,0l0,23.47c-0.447,3.278 -1.713,5.96 -3.799,8.046c-2.012,1.937 -4.322,2.981 -6.855,2.981c-3.502,0 -6.035,-0.969 -7.6,-2.757c-1.564,-1.788 -2.31,-4.545 -2.31,-8.196l0,-23.544l-5.96,0Z" style="fill-rule:nonzero;"/><path d="M337.398,186.617l21.234,31.591l0,21.607l6.11,0l0,-21.607l21.234,-31.591l-7.376,0l-16.913,25.928l-16.913,-25.928l-7.376,0Z" style="fill-rule:nonzero;"/><path d="M390.968,201.295l0,23.842c0,10.431 4.62,15.721 14.008,15.721c5.215,0 9.387,-2.384 12.517,-7.004l0,5.961l5.96,0l0,-38.52l-5.96,0l0,23.47c-0.447,3.278 -1.714,5.96 -3.8,8.046c-2.012,1.937 -4.322,2.981 -6.855,2.981c-3.502,0 -6.035,-0.969 -7.599,-2.757c-1.565,-1.788 -2.31,-4.545 -2.31,-8.196l0,-23.544l-5.961,0Z" style="fill-rule:nonzero;"/><path d="M448.562,200.252c-5.588,0 -9.984,2.011 -13.262,6.035c-3.278,3.8 -4.843,8.568 -4.843,14.231c0,6.258 1.639,11.176 5.066,14.901c3.279,3.576 7.749,5.439 13.263,5.439c4.991,0 9.089,-1.49 12.293,-4.321c2.608,-2.385 4.322,-5.365 5.216,-9.09l-5.961,0c-0.968,2.682 -2.235,4.694 -3.874,6.035c-1.937,1.564 -4.545,2.384 -7.674,2.384c-3.651,0 -6.557,-1.192 -8.643,-3.576c-2.086,-2.385 -3.204,-5.737 -3.502,-10.059l30.399,0c-0.149,-6.705 -1.639,-11.995 -4.471,-15.721c-3.129,-4.172 -7.823,-6.258 -14.007,-6.258Zm0.149,4.992c7.302,0 11.4,4.098 12.145,12.368l-24.066,0c0.372,-3.8 1.565,-6.78 3.651,-9.015c2.086,-2.236 4.843,-3.353 8.27,-3.353Z" style="fill-rule:nonzero;"/><rect x="500.046" y="186.617" width="6.035" height="53.198" style="fill-rule:nonzero;"/><path d="M534.543,200.252c-2.533,0 -4.843,0.596 -6.929,1.788c-2.086,1.118 -3.8,2.757 -5.141,4.917l0,-5.662l-5.961,0l0,38.52l5.961,0l0,-23.246c0.223,-3.502 1.341,-6.259 3.427,-8.345c1.937,-1.937 4.247,-2.906 6.929,-2.906c6.706,0 10.133,3.726 10.133,11.251l0,23.246l5.961,0l0,-23.693c0,-10.58 -4.843,-15.87 -14.38,-15.87Z" style="fill-rule:nonzero;"/><path d="M574.777,200.252c-5.737,0 -10.282,2.011 -13.561,6.109c-3.054,3.726 -4.545,8.494 -4.545,14.38c0,5.886 1.491,10.655 4.545,14.305c3.204,3.875 7.674,5.812 13.486,5.812c4.768,0 8.568,-1.267 11.474,-3.725c2.98,-2.534 4.843,-6.333 5.737,-11.251l-5.96,0c-0.895,6.631 -4.694,9.984 -11.251,9.984c-3.874,0 -6.855,-1.416 -8.866,-4.098c-2.086,-2.682 -3.055,-6.407 -3.055,-11.101c0,-4.694 1.043,-8.42 3.129,-11.176c2.161,-2.832 5.141,-4.247 8.867,-4.247c3.054,0 5.513,0.67 7.45,2.16c1.863,1.491 3.055,3.726 3.577,6.706l5.886,0c-0.671,-4.694 -2.459,-8.196 -5.439,-10.505c-2.906,-2.236 -6.706,-3.353 -11.474,-3.353Z" style="fill-rule:nonzero;"/><path d="M604.132,230.949c-1.341,0 -2.384,0.447 -3.204,1.341c-0.894,0.894 -1.341,1.937 -1.341,3.278c0,1.267 0.447,2.31 1.341,3.204c0.82,0.894 1.863,1.341 3.204,1.341c1.192,0 2.31,-0.447 3.204,-1.341c0.894,-0.894 1.341,-1.937 1.341,-3.204c0,-1.341 -0.447,-2.384 -1.341,-3.278c-0.894,-0.894 -2.012,-1.341 -3.204,-1.341Z" style="fill-rule:nonzero;"/><path d="M657.032,200.252c-4.321,0 -7.898,0.968 -10.58,2.906c-2.906,1.937 -4.321,4.47 -4.321,7.748c0,3.279 1.415,5.737 4.396,7.525c1.788,1.193 4.992,2.31 9.536,3.428c4.173,1.043 6.93,1.862 8.196,2.458c2.384,1.193 3.651,2.832 3.651,4.992c0,4.322 -3.502,6.557 -10.356,6.557c-3.279,0 -5.737,-0.596 -7.377,-1.788c-1.639,-1.341 -2.756,-3.502 -3.203,-6.557l-5.812,0c0.894,8.867 6.408,13.337 16.541,13.337c10.878,0 16.317,-4.023 16.317,-11.921c0,-3.353 -1.565,-5.961 -4.62,-7.898c-2.012,-1.266 -5.29,-2.459 -9.909,-3.576c-3.875,-1.043 -6.557,-1.863 -7.972,-2.533c-2.236,-1.118 -3.279,-2.534 -3.279,-4.173c0,-1.713 0.82,-3.055 2.459,-4.023c1.49,-1.043 3.576,-1.49 6.259,-1.49c3.054,0 5.439,0.596 7.078,1.788c1.49,1.043 2.458,2.831 2.98,5.215l5.811,0c-1.043,-8.046 -6.258,-11.995 -15.795,-11.995Z" style="fill-rule:nonzero;"/><path d="M691.305,188.852l-5.886,2.459l0,9.984l-7.749,0l0,4.992l7.749,0l0,24.513c0,2.905 0.596,5.066 1.863,6.556c1.341,1.639 3.651,2.459 6.78,2.459l5.811,0l0,-4.992l-4.917,0c-1.341,0 -2.31,-0.373 -2.831,-0.969c-0.596,-0.596 -0.82,-1.639 -0.82,-3.054l0,-24.513l9.537,0l0,-4.992l-9.537,0l0,-12.443Z" style="fill-rule:nonzero;"/><path d="M724.237,200.252c-4.619,0 -8.27,0.894 -11.101,2.682c-3.13,1.937 -5.141,4.992 -5.961,9.015l5.886,0.447c0.596,-2.458 1.863,-4.321 3.875,-5.513c1.788,-1.192 4.097,-1.714 6.929,-1.714c6.705,0 10.058,3.204 10.058,9.686l0,2.012l-9.239,0.149c-5.811,0.074 -10.282,1.192 -13.411,3.278c-3.576,2.235 -5.29,5.514 -5.29,9.91c0,3.129 1.192,5.737 3.576,7.748c2.31,1.937 5.365,2.906 9.239,2.906c3.577,0 6.78,-0.82 9.612,-2.384c2.384,-1.341 4.395,-3.055 5.886,-5.141l0,6.482l5.588,0l0,-24.736c0,-4.471 -1.193,-7.973 -3.428,-10.506c-2.682,-2.906 -6.705,-4.321 -12.219,-4.321Zm9.686,21.085l0,3.279c0,2.98 -1.416,5.662 -4.172,7.972c-2.832,2.384 -6.035,3.576 -9.686,3.576c-2.384,0 -4.322,-0.596 -5.812,-1.714c-1.49,-1.192 -2.16,-2.607 -2.16,-4.395c0,-5.589 4.321,-8.42 12.964,-8.569l8.866,-0.149Z" style="fill-rule:nonzero;"/><path d="M766.035,200.252c-2.682,0 -4.991,0.819 -7.003,2.459c-1.639,1.266 -2.98,3.054 -4.024,5.289l0,-6.705l-5.886,0l0,38.52l5.886,0l0,-20.415c0,-3.576 0.969,-6.631 3.055,-9.164c2.012,-2.683 4.545,-3.949 7.525,-3.949c1.863,0 3.8,0.223 5.737,0.819l0,-5.96c-1.415,-0.596 -3.203,-0.894 -5.29,-0.894Z" style="fill-rule:nonzero;"/><path d="M786.599,188.852l-5.886,2.459l0,9.984l-7.748,0l0,4.992l7.748,0l0,24.513c0,2.905 0.596,5.066 1.863,6.556c1.341,1.639 3.651,2.459 6.78,2.459l5.812,0l0,-4.992l-4.918,0c-1.341,0 -2.31,-0.373 -2.831,-0.969c-0.596,-0.596 -0.82,-1.639 -0.82,-3.054l0,-24.513l9.537,0l0,-4.992l-9.537,0l0,-12.443Z" style="fill-rule:nonzero;"/><path d="M823.331,201.295l13.113,38.52l5.588,0l9.09,-30.995l8.941,30.995l5.663,0l13.113,-38.52l-6.557,0l-9.462,31.218l-8.941,-31.218l-5.588,0l-8.941,31.218l-9.462,-31.218l-6.557,0Z" style="fill-rule:nonzero;"/><path d="M901.042,200.252c-5.812,0 -10.357,1.937 -13.784,5.96c-3.278,3.8 -4.917,8.569 -4.917,14.38c0,5.737 1.639,10.506 4.917,14.231c3.427,4.023 7.972,6.035 13.784,6.035c5.737,0 10.356,-2.012 13.858,-6.035c3.204,-3.725 4.843,-8.494 4.843,-14.231c0,-5.811 -1.639,-10.58 -4.917,-14.38c-3.428,-4.023 -8.047,-5.96 -13.784,-5.96Zm0,4.992c4.023,0 7.227,1.564 9.611,4.694c2.012,2.831 3.055,6.333 3.055,10.654c0,4.173 -1.043,7.749 -3.055,10.58c-2.384,3.129 -5.588,4.694 -9.611,4.694c-4.098,0 -7.302,-1.565 -9.537,-4.694c-2.086,-2.831 -3.055,-6.333 -3.055,-10.58c0,-4.321 0.969,-7.823 3.055,-10.654c2.235,-3.13 5.439,-4.694 9.537,-4.694Z" style="fill-rule:nonzero;"/><path d="M944.405,200.252c-2.682,0 -4.992,0.819 -7.004,2.459c-1.639,1.266 -2.98,3.054 -4.023,5.289l0,-6.705l-5.886,0l0,38.52l5.886,0l0,-20.415c0,-3.576 0.968,-6.631 3.055,-9.164c2.011,-2.683 4.544,-3.949 7.525,-3.949c1.862,0 3.8,0.223 5.737,0.819l0,-5.96c-1.416,-0.596 -3.204,-0.894 -5.29,-0.894Z" style="fill-rule:nonzero;"/><path d="M954.687,185.574l0,54.241l5.96,0l0,-13.635l6.11,-5.513l15.05,19.148l7.674,0l-18.626,-23.023l16.987,-15.497l-7.897,0l-19.298,17.882l0,-33.603l-5.96,0Z" style="fill-rule:nonzero;"/><path d="M999.018,186.766c-1.266,0 -2.309,0.373 -3.204,1.267c-0.894,0.745 -1.266,1.788 -1.266,3.129c0,1.267 0.372,2.31 1.266,3.204c0.895,0.819 1.938,1.266 3.204,1.266c1.267,0 2.31,-0.447 3.204,-1.266c0.894,-0.894 1.341,-1.937 1.341,-3.204c0,-1.341 -0.447,-2.384 -1.341,-3.129c-0.894,-0.894 -1.937,-1.267 -3.204,-1.267Zm-2.98,14.529l0,38.52l5.961,0l0,-38.52l-5.961,0Z" style="fill-rule:nonzero;"/><path d="M1031.2,200.252c-2.533,0 -4.843,0.596 -6.929,1.788c-2.086,1.118 -3.8,2.757 -5.141,4.917l0,-5.662l-5.96,0l0,38.52l5.96,0l0,-23.246c0.224,-3.502 1.341,-6.259 3.427,-8.345c1.938,-1.937 4.247,-2.906 6.93,-2.906c6.705,0 10.132,3.726 10.132,11.251l0,23.246l5.961,0l0,-23.693c0,-10.58 -4.843,-15.87 -14.38,-15.87Z" style="fill-rule:nonzero;"/><path d="M1070.69,200.252c-5.365,0 -9.612,1.862 -12.741,5.662c-3.129,3.577 -4.619,8.122 -4.619,13.784c0,5.588 1.49,10.133 4.619,13.709c3.129,3.651 7.376,5.514 12.741,5.514c5.811,0 10.133,-2.608 12.964,-7.749l0,6.78c0,8.494 -3.874,12.815 -11.623,12.815c-3.502,0 -6.11,-0.67 -7.823,-1.937c-1.714,-1.192 -2.832,-3.129 -3.279,-5.737l-5.96,0c0.67,4.173 2.384,7.302 5.141,9.388c2.682,2.086 6.705,3.129 11.921,3.129c11.697,0 17.584,-6.184 17.584,-18.477l0,-35.838l-5.961,0l0,6.631c-2.831,-5.141 -7.153,-7.674 -12.964,-7.674Zm0.894,4.917c3.8,0 6.78,1.341 9.015,4.173c2.086,2.533 3.129,6.035 3.129,10.356c0,4.172 -1.043,7.6 -3.129,10.207c-2.235,2.683 -5.215,4.024 -9.09,4.024c-4.172,0 -7.227,-1.49 -9.313,-4.322c-1.863,-2.533 -2.757,-5.886 -2.757,-9.909c0,-4.321 1.043,-7.823 3.13,-10.356c2.16,-2.832 5.141,-4.173 9.015,-4.173Z" style="fill-rule:nonzero;"/><path d="M1140.43,200.252c-4.619,0 -8.27,0.894 -11.101,2.682c-3.13,1.937 -5.141,4.992 -5.961,9.015l5.886,0.447c0.596,-2.458 1.863,-4.321 3.874,-5.513c1.789,-1.192 4.098,-1.714 6.93,-1.714c6.705,0 10.058,3.204 10.058,9.686l0,2.012l-9.239,0.149c-5.811,0.074 -10.282,1.192 -13.411,3.278c-3.576,2.235 -5.29,5.514 -5.29,9.91c0,3.129 1.192,5.737 3.576,7.748c2.31,1.937 5.365,2.906 9.239,2.906c3.576,0 6.78,-0.82 9.612,-2.384c2.384,-1.341 4.395,-3.055 5.886,-5.141l0,6.482l5.588,0l0,-24.736c0,-4.471 -1.193,-7.973 -3.428,-10.506c-2.682,-2.906 -6.705,-4.321 -12.219,-4.321Zm9.686,21.085l0,3.279c0,2.98 -1.416,5.662 -4.172,7.972c-2.832,2.384 -6.035,3.576 -9.686,3.576c-2.384,0 -4.322,-0.596 -5.812,-1.714c-1.49,-1.192 -2.16,-2.607 -2.16,-4.395c0,-5.589 4.321,-8.42 12.964,-8.569l8.866,-0.149Z" style="fill-rule:nonzero;"/><path d="M1175.6,188.852l-5.886,2.459l0,9.984l-7.748,0l0,4.992l7.748,0l0,24.513c0,2.905 0.596,5.066 1.863,6.556c1.341,1.639 3.651,2.459 6.78,2.459l5.812,0l0,-4.992l-4.918,0c-1.341,0 -2.31,-0.373 -2.831,-0.969c-0.596,-0.596 -0.82,-1.639 -0.82,-3.054l0,-24.513l9.537,0l0,-4.992l-9.537,0l0,-12.443Z" style="fill-rule:nonzero;"/><path d="M1217.32,186.617l0,53.198l6.11,0l0,-42.32l0.223,0l18.403,42.32l5.514,0l18.403,-42.32l0.224,0l0,42.32l6.109,0l0,-53.198l-7.6,0l-19.744,45.375l-0.223,0l-19.819,-45.375l-7.6,0Z" style="fill-rule:nonzero;"/><path d="M1299.06,200.252c-4.619,0 -8.27,0.894 -11.101,2.682c-3.13,1.937 -5.141,4.992 -5.961,9.015l5.886,0.447c0.596,-2.458 1.863,-4.321 3.874,-5.513c1.789,-1.192 4.098,-1.714 6.93,-1.714c6.705,0 10.058,3.204 10.058,9.686l0,2.012l-9.239,0.149c-5.811,0.074 -10.282,1.192 -13.411,3.278c-3.576,2.235 -5.29,5.514 -5.29,9.91c0,3.129 1.192,5.737 3.576,7.748c2.31,1.937 5.365,2.906 9.239,2.906c3.576,0 6.78,-0.82 9.611,-2.384c2.385,-1.341 4.396,-3.055 5.887,-5.141l0,6.482l5.588,0l0,-24.736c0,-4.471 -1.193,-7.973 -3.428,-10.506c-2.682,-2.906 -6.705,-4.321 -12.219,-4.321Zm9.686,21.085l0,3.279c0,2.98 -1.416,5.662 -4.172,7.972c-2.832,2.384 -6.035,3.576 -9.686,3.576c-2.384,0 -4.322,-0.596 -5.812,-1.714c-1.49,-1.192 -2.16,-2.607 -2.16,-4.395c0,-5.589 4.321,-8.42 12.964,-8.569l8.866,-0.149Z" style="fill-rule:nonzero;"/><path d="M1319.7,201.295l15.273,37.626l-6.631,15.646l6.482,0l21.086,-53.272l-6.557,0l-11.399,30.399l-11.772,-30.399l-6.482,0Z" style="fill-rule:nonzero;"/><path d="M1366.11,230.949c-1.49,0 -2.608,0.372 -3.427,1.266c-0.969,0.82 -1.416,1.937 -1.416,3.353c0,1.267 0.447,2.384 1.341,3.278c0.894,0.894 1.938,1.341 3.204,1.341c0.745,0 1.267,-0.149 1.639,-0.298c0,1.789 -0.521,3.428 -1.639,4.992c-1.192,1.49 -2.831,2.608 -4.768,3.279l0,3.65c3.204,-0.819 5.811,-2.458 7.748,-4.842c1.938,-2.534 2.906,-5.439 2.906,-8.718c0,-2.16 -0.521,-3.874 -1.49,-5.215c-1.043,-1.416 -2.459,-2.086 -4.098,-2.086Z" style="fill-rule:nonzero;"/><path d="M1423.86,185.574c-5.364,0 -9.76,1.788 -13.039,5.364c-3.278,3.502 -4.992,8.271 -4.992,14.231l6.11,0c0.074,-4.694 1.192,-8.27 3.278,-10.654c1.937,-2.533 4.769,-3.726 8.419,-3.726c3.428,0 6.185,0.894 8.122,2.683c1.937,1.788 2.905,4.247 2.905,7.525c0,3.427 -1.415,6.631 -4.097,9.537c-1.416,1.49 -4.173,3.651 -8.345,6.631c-5.663,3.874 -9.463,7.078 -11.549,9.462c-3.576,3.949 -5.29,8.345 -5.29,13.188l35.466,0l0,-5.439l-27.94,0c0.968,-3.576 4.842,-7.674 11.623,-12.219c5.513,-3.726 9.164,-6.631 11.027,-8.569c3.427,-3.725 5.215,-7.897 5.215,-12.517c0,-4.619 -1.639,-8.419 -4.768,-11.25c-3.204,-2.831 -7.228,-4.247 -12.145,-4.247Z" style="fill-rule:nonzero;"/><path d="M1467.82,185.574c-6.408,0 -11.176,2.757 -14.38,8.419c-2.831,4.769 -4.247,11.176 -4.247,19.223c0,8.047 1.416,14.454 4.247,19.223c3.204,5.588 7.972,8.419 14.38,8.419c6.333,0 11.102,-2.831 14.38,-8.419c2.831,-4.769 4.247,-11.176 4.247,-19.223c0,-8.047 -1.416,-14.454 -4.247,-19.223c-3.278,-5.662 -8.047,-8.419 -14.38,-8.419Zm0,5.215c4.768,0 8.196,2.534 10.282,7.675c1.49,3.576 2.31,8.493 2.31,14.752c0,6.184 -0.82,11.101 -2.31,14.752c-2.086,5.067 -5.514,7.675 -10.282,7.675c-4.768,0 -8.196,-2.608 -10.282,-7.675c-1.49,-3.651 -2.235,-8.568 -2.235,-14.752c0,-6.259 0.745,-11.176 2.235,-14.752c2.086,-5.141 5.514,-7.675 10.282,-7.675Z" style="fill-rule:nonzero;"/><path d="M1507.3,186.617c-1.789,2.012 -3.875,3.8 -6.408,5.439c-2.533,1.49 -5.066,2.533 -7.451,3.204l0,6.109c4.992,-1.49 9.165,-3.874 12.517,-7.301l0,45.747l6.11,0l0,-53.198l-4.768,0Z" style="fill-rule:nonzero;"/><path d="M1541.8,185.574c-5.215,0 -9.537,1.714 -12.889,5.215c-3.428,3.428 -5.067,7.749 -5.067,13.039c0,5.141 1.49,9.313 4.545,12.517c3.129,3.353 7.227,5.067 12.368,5.067c3.129,0 5.886,-0.82 8.27,-2.31c2.459,-1.565 4.396,-3.725 5.737,-6.408l0.298,0c0,0.894 0.075,1.565 0.075,1.938c0,5.96 -1.192,10.952 -3.502,14.901c-2.459,4.098 -5.737,6.184 -9.835,6.184c-6.258,0 -9.909,-3.055 -11.027,-9.09l-6.035,0c1.416,9.463 7.078,14.231 16.988,14.231c5.96,0 10.729,-2.831 14.305,-8.345c3.278,-5.364 4.992,-12.219 4.992,-20.713c0,-8.195 -1.565,-14.603 -4.694,-19.073c-3.278,-4.769 -8.121,-7.153 -14.529,-7.153Zm0.149,5.141c3.651,0 6.631,1.267 8.867,3.8c2.16,2.384 3.278,5.439 3.278,9.164c0,3.651 -1.192,6.706 -3.427,9.09c-2.385,2.384 -5.29,3.576 -8.718,3.576c-3.725,0 -6.631,-1.192 -8.792,-3.502c-2.235,-2.235 -3.278,-5.29 -3.278,-9.015c0,-3.874 1.043,-7.004 3.278,-9.462c2.236,-2.459 5.141,-3.651 8.792,-3.651Z" style="fill-rule:nonzero;"/></g><g><path d="M574.798,348.561l9.84,34.272l3.456,0l8.4,-30.144l0.144,0l8.4,30.144l3.456,0l9.84,-34.272l-3.312,0l-8.208,30.336l-0.144,0l-8.4,-30.336l-3.408,0l-8.4,30.336l-0.144,0l-8.208,-30.336l-3.312,0Z" style="fill-rule:nonzero;"/><path d="M631.63,357.345c-3.504,0 -6.288,1.296 -8.4,3.888c-2.064,2.496 -3.072,5.52 -3.072,9.168c0,3.936 1.056,7.152 3.216,9.552c2.064,2.352 4.848,3.552 8.352,3.552c3.168,0 5.712,-0.912 7.728,-2.736c1.632,-1.536 2.736,-3.504 3.312,-5.904l-2.928,0c-0.624,1.92 -1.488,3.36 -2.64,4.368c-1.392,1.152 -3.216,1.776 -5.472,1.776c-2.592,0 -4.608,-0.864 -6.144,-2.592c-1.488,-1.728 -2.304,-4.128 -2.448,-7.152l20.16,0c-0.144,-4.272 -1.104,-7.584 -2.832,-9.936c-1.968,-2.688 -4.896,-3.984 -8.832,-3.984Zm0.048,2.496c5.232,0 8.112,3.024 8.592,9.072l-17.088,0c0.24,-2.688 1.104,-4.848 2.592,-6.528c1.488,-1.728 3.456,-2.544 5.904,-2.544Z" style="fill-rule:nonzero;"/><path d="M682.606,347.889l0,15.36c-1.824,-3.936 -4.752,-5.904 -8.688,-5.904c-3.504,0 -6.24,1.296 -8.256,3.984c-1.824,2.4 -2.736,5.424 -2.736,9.072c0,3.696 0.912,6.768 2.736,9.168c2.016,2.592 4.8,3.936 8.4,3.936c4.08,0 6.96,-1.872 8.688,-5.568l0,4.896l2.736,0l0,-34.944l-2.88,0Zm-8.16,11.904c2.496,0 4.512,0.96 6.048,2.976c1.44,1.92 2.208,4.368 2.208,7.44l0,0.576c0,2.928 -0.72,5.328 -2.064,7.2c-1.488,2.016 -3.6,3.072 -6.288,3.072c-2.832,0 -4.992,-1.056 -6.48,-3.168c-1.344,-1.872 -2.016,-4.368 -2.016,-7.488c0,-3.12 0.672,-5.616 2.064,-7.44c1.536,-2.112 3.696,-3.168 6.528,-3.168Z" style="fill-rule:nonzero;"/><path d="M701.566,357.345c-3.504,0 -6.288,1.296 -8.4,3.888c-2.064,2.496 -3.072,5.52 -3.072,9.168c0,3.936 1.056,7.152 3.216,9.552c2.064,2.352 4.848,3.552 8.352,3.552c3.168,0 5.712,-0.912 7.728,-2.736c1.632,-1.536 2.736,-3.504 3.312,-5.904l-2.928,0c-0.624,1.92 -1.488,3.36 -2.64,4.368c-1.392,1.152 -3.216,1.776 -5.472,1.776c-2.592,0 -4.608,-0.864 -6.144,-2.592c-1.488,-1.728 -2.304,-4.128 -2.448,-7.152l20.16,0c-0.144,-4.272 -1.104,-7.584 -2.832,-9.936c-1.968,-2.688 -4.896,-3.984 -8.832,-3.984Zm0.048,2.496c5.232,0 8.112,3.024 8.592,9.072l-17.088,0c0.24,-2.688 1.104,-4.848 2.592,-6.528c1.488,-1.728 3.456,-2.544 5.904,-2.544Z" style="fill-rule:nonzero;"/><path d="M726.286,357.345c-2.592,0 -4.8,0.576 -6.528,1.776c-1.824,1.248 -2.688,2.832 -2.688,4.848c0,2.016 0.912,3.6 2.832,4.752c1.152,0.72 3.168,1.44 6.048,2.208c2.832,0.72 4.656,1.296 5.52,1.728c1.632,0.816 2.448,1.968 2.448,3.456c0,3.264 -2.4,4.896 -7.2,4.896c-2.304,0 -4.032,-0.432 -5.184,-1.296c-1.248,-0.96 -2.016,-2.544 -2.304,-4.704l-2.832,0c0.576,5.664 4.032,8.496 10.416,8.496c6.72,0 10.08,-2.544 10.08,-7.536c0,-2.112 -1.008,-3.792 -2.976,-4.992c-1.248,-0.768 -3.408,-1.536 -6.432,-2.304c-2.544,-0.672 -4.272,-1.248 -5.232,-1.728c-1.488,-0.768 -2.208,-1.776 -2.208,-3.024c0,-1.248 0.576,-2.208 1.728,-2.976c1.152,-0.768 2.64,-1.104 4.464,-1.104c2.208,0 3.888,0.432 5.04,1.344c1.056,0.816 1.728,2.064 2.064,3.792l2.832,0c-0.72,-5.088 -4.032,-7.632 -9.888,-7.632Z" style="fill-rule:nonzero;"/><path d="M744.382,349.089c-0.72,0 -1.296,0.24 -1.728,0.72c-0.48,0.384 -0.72,0.96 -0.72,1.68c0,0.672 0.24,1.248 0.72,1.728c0.432,0.432 1.008,0.672 1.728,0.672c0.672,0 1.2,-0.24 1.68,-0.672c0.48,-0.48 0.768,-1.056 0.768,-1.728c0,-0.72 -0.24,-1.296 -0.72,-1.68c-0.48,-0.48 -1.056,-0.72 -1.728,-0.72Zm-1.44,8.928l0,24.816l2.88,0l0,-24.816l-2.88,0Z" style="fill-rule:nonzero;"/><path d="M763.534,357.345c-3.456,0 -6.24,1.248 -8.304,3.744c-1.92,2.304 -2.88,5.232 -2.88,8.736c0,3.552 0.96,6.432 2.88,8.736c2.064,2.448 4.848,3.696 8.304,3.696c4.08,0 7.056,-1.92 8.88,-5.664l0,4.752c0,6.144 -2.784,9.264 -8.256,9.264c-2.448,0 -4.272,-0.528 -5.52,-1.536c-1.2,-0.912 -1.968,-2.304 -2.304,-4.128l-2.88,0c0.432,2.64 1.488,4.608 3.168,5.952c1.776,1.392 4.272,2.112 7.536,2.112c7.392,0 11.136,-4.032 11.136,-12l0,-22.992l-2.88,0l0,4.992c-1.824,-3.792 -4.8,-5.664 -8.88,-5.664Zm0.336,2.448c2.688,0 4.848,0.96 6.384,2.976c1.44,1.824 2.16,4.176 2.16,7.056c0,2.88 -0.72,5.232 -2.16,7.056c-1.536,1.92 -3.696,2.88 -6.432,2.88c-2.832,0 -4.992,-1.008 -6.48,-3.024c-1.392,-1.824 -2.064,-4.128 -2.064,-6.912c0,-2.88 0.72,-5.232 2.208,-7.056c1.536,-2.016 3.648,-2.976 6.384,-2.976Z" style="fill-rule:nonzero;"/><path d="M792.286,357.345c-1.728,0 -3.312,0.384 -4.704,1.248c-1.392,0.864 -2.496,2.016 -3.36,3.504l0,-4.08l-2.88,0l0,24.816l2.88,0l0,-14.976c0.144,-2.448 0.912,-4.416 2.352,-5.856c1.344,-1.44 2.976,-2.16 4.992,-2.16c4.704,0 7.056,2.64 7.056,7.92l0,15.072l2.88,0l0,-15.264c0,-6.816 -3.072,-10.224 -9.216,-10.224Z" style="fill-rule:nonzero;"/><path d="M834.046,357.345c-2.832,0 -5.136,0.576 -6.912,1.776c-2.016,1.248 -3.264,3.168 -3.744,5.664l2.832,0.192c0.384,-1.728 1.296,-3.024 2.736,-3.936c1.296,-0.864 2.928,-1.248 4.944,-1.248c4.8,0 7.2,2.352 7.2,7.056l0,1.488l-6.336,0.096c-3.744,0 -6.672,0.672 -8.688,1.968c-2.352,1.344 -3.504,3.456 -3.504,6.336c0,2.016 0.768,3.696 2.352,4.944c1.44,1.2 3.408,1.824 5.808,1.824c2.352,0 4.512,-0.624 6.528,-1.776c1.632,-0.96 2.976,-2.208 3.984,-3.648l0,4.752l2.736,0l0,-15.984c0,-2.88 -0.768,-5.088 -2.208,-6.672c-1.68,-1.92 -4.272,-2.832 -7.728,-2.832Zm7.056,13.248l0,2.592c0,1.92 -1.008,3.744 -2.976,5.376c-2.016,1.728 -4.32,2.592 -6.816,2.592c-1.728,0 -3.168,-0.432 -4.224,-1.248c-1.056,-0.816 -1.584,-1.872 -1.584,-3.216c0,-3.936 3.12,-5.952 9.408,-6l6.192,-0.096Z" style="fill-rule:nonzero;"/><rect x="850.942" y="347.889" width="2.88" height="34.944" style="fill-rule:nonzero;"/><rect x="861.694" y="347.889" width="2.88" height="34.944" style="fill-rule:nonzero;"/><path d="M898.03,357.345c-2.832,0 -5.136,0.576 -6.912,1.776c-2.016,1.248 -3.264,3.168 -3.744,5.664l2.832,0.192c0.384,-1.728 1.296,-3.024 2.736,-3.936c1.296,-0.864 2.928,-1.248 4.944,-1.248c4.8,0 7.2,2.352 7.2,7.056l0,1.488l-6.336,0.096c-3.744,0 -6.672,0.672 -8.688,1.968c-2.352,1.344 -3.504,3.456 -3.504,6.336c0,2.016 0.768,3.696 2.352,4.944c1.44,1.2 3.408,1.824 5.808,1.824c2.352,0 4.512,-0.624 6.528,-1.776c1.632,-0.96 2.976,-2.208 3.984,-3.648l0,4.752l2.736,0l0,-15.984c0,-2.88 -0.768,-5.088 -2.208,-6.672c-1.68,-1.92 -4.272,-2.832 -7.728,-2.832Zm7.056,13.248l0,2.592c0,1.92 -1.008,3.744 -2.976,5.376c-2.016,1.728 -4.32,2.592 -6.816,2.592c-1.728,0 -3.168,-0.432 -4.224,-1.248c-1.056,-0.816 -1.584,-1.872 -1.584,-3.216c0,-3.936 3.12,-5.952 9.408,-6l6.192,-0.096Z" style="fill-rule:nonzero;"/><path d="M914.014,347.889l0,34.944l2.736,0l0,-4.896c1.68,3.696 4.608,5.568 8.736,5.568c3.552,0 6.336,-1.344 8.352,-3.936c1.824,-2.4 2.736,-5.472 2.736,-9.168c0,-3.648 -0.912,-6.672 -2.736,-9.072c-2.016,-2.688 -4.8,-3.984 -8.256,-3.984c-3.984,0 -6.864,1.968 -8.688,5.904l0,-15.36l-2.88,0Zm11.04,11.904c2.832,0 4.992,1.056 6.528,3.168c1.344,1.824 2.064,4.32 2.064,7.44c0,3.12 -0.672,5.616 -2.016,7.488c-1.536,2.112 -3.696,3.168 -6.48,3.168c-2.736,0 -4.848,-1.056 -6.288,-3.072c-1.392,-1.872 -2.064,-4.272 -2.064,-7.2l0,-0.576c0,-3.072 0.72,-5.52 2.208,-7.44c1.488,-2.016 3.504,-2.976 6.048,-2.976Z" style="fill-rule:nonzero;"/><path d="M952.51,357.345c-3.648,0 -6.576,1.296 -8.736,3.936c-2.064,2.448 -3.072,5.52 -3.072,9.168c0,3.648 1.008,6.672 3.024,9.12c2.208,2.592 5.136,3.936 8.784,3.936c3.648,0 6.576,-1.344 8.784,-3.936c2.016,-2.448 3.024,-5.472 3.024,-9.12c0,-3.648 -1.008,-6.72 -3.024,-9.168c-2.208,-2.64 -5.136,-3.936 -8.784,-3.936Zm0,2.496c2.832,0 5.088,1.056 6.72,3.264c1.44,1.92 2.208,4.368 2.208,7.344c0,2.88 -0.768,5.328 -2.208,7.296c-1.632,2.16 -3.888,3.264 -6.72,3.264c-2.832,0 -5.04,-1.104 -6.672,-3.264c-1.488,-1.92 -2.208,-4.368 -2.208,-7.296c0,-2.976 0.72,-5.424 2.208,-7.344c1.632,-2.208 3.84,-3.264 6.672,-3.264Z" style="fill-rule:nonzero;"/><path d="M969.406,358.017l0,15.312c0,6.768 3.024,10.176 9.072,10.176c3.552,0 6.336,-1.632 8.256,-4.848l0,4.176l2.88,0l0,-24.816l-2.88,0l0,15.072c-0.192,2.352 -1.008,4.272 -2.448,5.712c-1.44,1.44 -3.12,2.208 -5.04,2.208c-2.4,0 -4.176,-0.672 -5.328,-2.016c-1.104,-1.296 -1.632,-3.216 -1.632,-5.808l0,-15.168l-2.88,0Z" style="fill-rule:nonzero;"/><path d="M1001.66,350.001l-2.88,1.2l0,6.816l-5.28,0l0,2.496l5.28,0l0,16.8c0,1.824 0.336,3.168 1.104,4.032c0.816,0.96 2.208,1.488 4.128,1.488l3.504,0l0,-2.496l-3.12,0c-1.056,0 -1.776,-0.24 -2.16,-0.672c-0.384,-0.48 -0.576,-1.296 -0.576,-2.352l0,-16.8l6.48,0l0,-2.496l-6.48,0l0,-8.016Z" style="fill-rule:nonzero;"/><path d="M1025.71,358.017l9.84,24.192l-4.176,10.128l3.12,0l13.68,-34.32l-3.168,0l-8.016,20.688l-8.112,-20.688l-3.168,0Z" style="fill-rule:nonzero;"/><path d="M1062.29,357.345c-3.648,0 -6.576,1.296 -8.736,3.936c-2.064,2.448 -3.072,5.52 -3.072,9.168c0,3.648 1.008,6.672 3.024,9.12c2.208,2.592 5.136,3.936 8.784,3.936c3.648,0 6.576,-1.344 8.784,-3.936c2.016,-2.448 3.024,-5.472 3.024,-9.12c0,-3.648 -1.008,-6.72 -3.024,-9.168c-2.208,-2.64 -5.136,-3.936 -8.784,-3.936Zm0,2.496c2.832,0 5.088,1.056 6.72,3.264c1.44,1.92 2.208,4.368 2.208,7.344c0,2.88 -0.768,5.328 -2.208,7.296c-1.632,2.16 -3.888,3.264 -6.72,3.264c-2.832,0 -5.04,-1.104 -6.672,-3.264c-1.488,-1.92 -2.208,-4.368 -2.208,-7.296c0,-2.976 0.72,-5.424 2.208,-7.344c1.632,-2.208 3.84,-3.264 6.672,-3.264Z" style="fill-rule:nonzero;"/><path d="M1079.18,358.017l0,15.312c0,6.768 3.024,10.176 9.072,10.176c3.552,0 6.336,-1.632 8.256,-4.848l0,4.176l2.88,0l0,-24.816l-2.88,0l0,15.072c-0.192,2.352 -1.008,4.272 -2.448,5.712c-1.44,1.44 -3.12,2.208 -5.04,2.208c-2.4,0 -4.176,-0.672 -5.328,-2.016c-1.104,-1.296 -1.632,-3.216 -1.632,-5.808l0,-15.168l-2.88,0Z" style="fill-rule:nonzero;"/><path d="M1115.85,357.345c-1.824,0 -3.456,0.576 -4.8,1.728c-1.152,0.912 -2.064,2.16 -2.736,3.696l0,-4.752l-2.88,0l0,24.816l2.88,0l0,-13.104c0,-2.496 0.624,-4.656 1.968,-6.48c1.344,-2.016 3.168,-2.976 5.376,-2.976c1.248,0 2.496,0.144 3.792,0.528l0,-2.928c-0.96,-0.384 -2.16,-0.528 -3.6,-0.528Z" style="fill-rule:nonzero;"/><path d="M1141.58,349.089c-0.72,0 -1.296,0.24 -1.728,0.72c-0.48,0.384 -0.72,0.96 -0.72,1.68c0,0.672 0.24,1.248 0.72,1.728c0.432,0.432 1.008,0.672 1.728,0.672c0.672,0 1.2,-0.24 1.68,-0.672c0.48,-0.48 0.768,-1.056 0.768,-1.728c0,-0.72 -0.24,-1.296 -0.72,-1.68c-0.48,-0.48 -1.056,-0.72 -1.728,-0.72Zm-1.44,8.928l0,24.816l2.88,0l0,-24.816l-2.88,0Z" style="fill-rule:nonzero;"/><path d="M1169.23,347.889l0,15.36c-1.824,-3.936 -4.752,-5.904 -8.688,-5.904c-3.504,0 -6.24,1.296 -8.256,3.984c-1.824,2.4 -2.736,5.424 -2.736,9.072c0,3.696 0.912,6.768 2.736,9.168c2.016,2.592 4.8,3.936 8.4,3.936c4.08,0 6.96,-1.872 8.688,-5.568l0,4.896l2.736,0l0,-34.944l-2.88,0Zm-8.16,11.904c2.496,0 4.512,0.96 6.048,2.976c1.44,1.92 2.208,4.368 2.208,7.44l0,0.576c0,2.928 -0.72,5.328 -2.064,7.2c-1.488,2.016 -3.6,3.072 -6.288,3.072c-2.832,0 -4.992,-1.056 -6.48,-3.168c-1.344,-1.872 -2.016,-4.368 -2.016,-7.488c0,-3.12 0.672,-5.616 2.064,-7.44c1.536,-2.112 3.696,-3.168 6.528,-3.168Z" style="fill-rule:nonzero;"/><path d="M1188.19,357.345c-3.504,0 -6.288,1.296 -8.4,3.888c-2.064,2.496 -3.072,5.52 -3.072,9.168c0,3.936 1.056,7.152 3.216,9.552c2.064,2.352 4.848,3.552 8.352,3.552c3.168,0 5.712,-0.912 7.728,-2.736c1.632,-1.536 2.736,-3.504 3.312,-5.904l-2.928,0c-0.624,1.92 -1.488,3.36 -2.64,4.368c-1.392,1.152 -3.216,1.776 -5.472,1.776c-2.592,0 -4.608,-0.864 -6.144,-2.592c-1.488,-1.728 -2.304,-4.128 -2.448,-7.152l20.16,0c-0.144,-4.272 -1.104,-7.584 -2.832,-9.936c-1.968,-2.688 -4.896,-3.984 -8.832,-3.984Zm0.048,2.496c5.232,0 8.112,3.024 8.592,9.072l-17.088,0c0.24,-2.688 1.104,-4.848 2.592,-6.528c1.488,-1.728 3.456,-2.544 5.904,-2.544Z" style="fill-rule:nonzero;"/><path d="M1214.97,357.345c-2.832,0 -5.136,0.576 -6.912,1.776c-2.016,1.248 -3.264,3.168 -3.744,5.664l2.832,0.192c0.384,-1.728 1.296,-3.024 2.736,-3.936c1.296,-0.864 2.928,-1.248 4.944,-1.248c4.8,0 7.2,2.352 7.2,7.056l0,1.488l-6.336,0.096c-3.744,0 -6.672,0.672 -8.688,1.968c-2.352,1.344 -3.504,3.456 -3.504,6.336c0,2.016 0.768,3.696 2.352,4.944c1.44,1.2 3.408,1.824 5.808,1.824c2.352,0 4.512,-0.624 6.528,-1.776c1.632,-0.96 2.976,-2.208 3.984,-3.648l0,4.752l2.736,0l0,-15.984c0,-2.88 -0.768,-5.088 -2.208,-6.672c-1.68,-1.92 -4.272,-2.832 -7.728,-2.832Zm7.056,13.248l0,2.592c0,1.92 -1.008,3.744 -2.976,5.376c-2.016,1.728 -4.32,2.592 -6.816,2.592c-1.728,0 -3.168,-0.432 -4.224,-1.248c-1.056,-0.816 -1.584,-1.872 -1.584,-3.216c0,-3.936 3.12,-5.952 9.408,-6l6.192,-0.096Z" style="fill-rule:nonzero;"/><path d="M1234.32,348.561l0.48,25.392l2.304,0l0.48,-25.392l-3.264,0Zm1.632,29.472c-0.72,0 -1.296,0.192 -1.728,0.672c-0.48,0.432 -0.72,1.008 -0.72,1.728c0,0.672 0.24,1.2 0.72,1.68c0.432,0.48 1.008,0.72 1.728,0.72c0.672,0 1.248,-0.24 1.728,-0.672c0.48,-0.48 0.72,-1.056 0.72,-1.728c0,-0.72 -0.24,-1.296 -0.72,-1.728c-0.48,-0.48 -1.056,-0.672 -1.728,-0.672Z" style="fill-rule:nonzero;"/><path d="M252.382,396.561l9.84,34.272l3.456,0l8.4,-30.144l0.144,0l8.4,30.144l3.456,0l9.84,-34.272l-3.312,0l-8.208,30.336l-0.144,0l-8.4,-30.336l-3.408,0l-8.4,30.336l-0.144,0l-8.208,-30.336l-3.312,0Z" style="fill-rule:nonzero;"/><path d="M309.214,405.345c-3.504,0 -6.288,1.296 -8.4,3.888c-2.064,2.496 -3.072,5.52 -3.072,9.168c0,3.936 1.056,7.152 3.216,9.552c2.064,2.352 4.848,3.552 8.352,3.552c3.168,0 5.712,-0.912 7.728,-2.736c1.632,-1.536 2.736,-3.504 3.312,-5.904l-2.928,0c-0.624,1.92 -1.488,3.36 -2.64,4.368c-1.392,1.152 -3.216,1.776 -5.472,1.776c-2.592,0 -4.608,-0.864 -6.144,-2.592c-1.488,-1.728 -2.304,-4.128 -2.448,-7.152l20.16,0c-0.144,-4.272 -1.104,-7.584 -2.832,-9.936c-1.968,-2.688 -4.896,-3.984 -8.832,-3.984Zm0.048,2.496c5.232,0 8.112,3.024 8.592,9.072l-17.088,0c0.24,-2.688 1.104,-4.848 2.592,-6.528c1.488,-1.728 3.456,-2.544 5.904,-2.544Z" style="fill-rule:nonzero;"/><path d="M351.982,405.345c-2.832,0 -5.136,0.576 -6.912,1.776c-2.016,1.248 -3.264,3.168 -3.744,5.664l2.832,0.192c0.384,-1.728 1.296,-3.024 2.736,-3.936c1.296,-0.864 2.928,-1.248 4.944,-1.248c4.8,0 7.2,2.352 7.2,7.056l0,1.488l-6.336,0.096c-3.744,0 -6.672,0.672 -8.688,1.968c-2.352,1.344 -3.504,3.456 -3.504,6.336c0,2.016 0.768,3.696 2.352,4.944c1.44,1.2 3.408,1.824 5.808,1.824c2.352,0 4.512,-0.624 6.528,-1.776c1.632,-0.96 2.976,-2.208 3.984,-3.648l0,4.752l2.736,0l0,-15.984c0,-2.88 -0.768,-5.088 -2.208,-6.672c-1.68,-1.92 -4.272,-2.832 -7.728,-2.832Zm7.056,13.248l0,2.592c0,1.92 -1.008,3.744 -2.976,5.376c-2.016,1.728 -4.32,2.592 -6.816,2.592c-1.728,0 -3.168,-0.432 -4.224,-1.248c-1.056,-0.816 -1.584,-1.872 -1.584,-3.216c0,-3.936 3.12,-5.952 9.408,-6l6.192,-0.096Z" style="fill-rule:nonzero;"/><rect x="368.878" y="395.889" width="2.88" height="34.944" style="fill-rule:nonzero;"/><path d="M387.166,405.345c-2.592,0 -4.8,0.576 -6.528,1.776c-1.824,1.248 -2.688,2.832 -2.688,4.848c0,2.016 0.912,3.6 2.832,4.752c1.152,0.72 3.168,1.44 6.048,2.208c2.832,0.72 4.656,1.296 5.52,1.728c1.632,0.816 2.448,1.968 2.448,3.456c0,3.264 -2.4,4.896 -7.2,4.896c-2.304,0 -4.032,-0.432 -5.184,-1.296c-1.248,-0.96 -2.016,-2.544 -2.304,-4.704l-2.832,0c0.576,5.664 4.032,8.496 10.416,8.496c6.72,0 10.08,-2.544 10.08,-7.536c0,-2.112 -1.008,-3.792 -2.976,-4.992c-1.248,-0.768 -3.408,-1.536 -6.432,-2.304c-2.544,-0.672 -4.272,-1.248 -5.232,-1.728c-1.488,-0.768 -2.208,-1.776 -2.208,-3.024c0,-1.248 0.576,-2.208 1.728,-2.976c1.152,-0.768 2.64,-1.104 4.464,-1.104c2.208,0 3.888,0.432 5.04,1.344c1.056,0.816 1.728,2.064 2.064,3.792l2.832,0c-0.72,-5.088 -4.032,-7.632 -9.888,-7.632Z" style="fill-rule:nonzero;"/><path d="M413.23,405.345c-3.648,0 -6.576,1.296 -8.736,3.936c-2.064,2.448 -3.072,5.52 -3.072,9.168c0,3.648 1.008,6.672 3.024,9.12c2.208,2.592 5.136,3.936 8.784,3.936c3.648,0 6.576,-1.344 8.784,-3.936c2.016,-2.448 3.024,-5.472 3.024,-9.12c0,-3.648 -1.008,-6.72 -3.024,-9.168c-2.208,-2.64 -5.136,-3.936 -8.784,-3.936Zm0,2.496c2.832,0 5.088,1.056 6.72,3.264c1.44,1.92 2.208,4.368 2.208,7.344c0,2.88 -0.768,5.328 -2.208,7.296c-1.632,2.16 -3.888,3.264 -6.72,3.264c-2.832,0 -5.04,-1.104 -6.672,-3.264c-1.488,-1.92 -2.208,-4.368 -2.208,-7.296c0,-2.976 0.72,-5.424 2.208,-7.344c1.632,-2.208 3.84,-3.264 6.672,-3.264Z" style="fill-rule:nonzero;"/><path d="M446.11,395.889l0,34.944l2.928,0l0,-14.352c0,-2.448 0.672,-4.512 2.112,-6.144c1.44,-1.68 3.168,-2.496 5.232,-2.496c2.208,0 3.888,0.624 5.136,1.92c1.2,1.344 1.824,3.216 1.824,5.616l0,15.456l2.88,0l0,-15.84c0,-3.072 -0.816,-5.472 -2.4,-7.152c-1.584,-1.68 -3.792,-2.496 -6.624,-2.496c-1.728,0 -3.312,0.432 -4.704,1.296c-1.44,0.912 -2.592,2.208 -3.456,3.888l0,-14.64l-2.928,0Z" style="fill-rule:nonzero;"/><path d="M482.782,405.345c-2.832,0 -5.136,0.576 -6.912,1.776c-2.016,1.248 -3.264,3.168 -3.744,5.664l2.832,0.192c0.384,-1.728 1.296,-3.024 2.736,-3.936c1.296,-0.864 2.928,-1.248 4.944,-1.248c4.8,0 7.2,2.352 7.2,7.056l0,1.488l-6.336,0.096c-3.744,0 -6.672,0.672 -8.688,1.968c-2.352,1.344 -3.504,3.456 -3.504,6.336c0,2.016 0.768,3.696 2.352,4.944c1.44,1.2 3.408,1.824 5.808,1.824c2.352,0 4.512,-0.624 6.528,-1.776c1.632,-0.96 2.976,-2.208 3.984,-3.648l0,4.752l2.736,0l0,-15.984c0,-2.88 -0.768,-5.088 -2.208,-6.672c-1.68,-1.92 -4.272,-2.832 -7.728,-2.832Zm7.056,13.248l0,2.592c0,1.92 -1.008,3.744 -2.976,5.376c-2.016,1.728 -4.32,2.592 -6.816,2.592c-1.728,0 -3.168,-0.432 -4.224,-1.248c-1.056,-0.816 -1.584,-1.872 -1.584,-3.216c0,-3.936 3.12,-5.952 9.408,-6l6.192,-0.096Z" style="fill-rule:nonzero;"/><path d="M495.982,406.017l9.504,24.816l2.976,0l9.504,-24.816l-3.216,0l-7.776,21.168l-7.824,-21.168l-3.168,0Z" style="fill-rule:nonzero;"/><path d="M531.262,405.345c-3.504,0 -6.288,1.296 -8.4,3.888c-2.064,2.496 -3.072,5.52 -3.072,9.168c0,3.936 1.056,7.152 3.216,9.552c2.064,2.352 4.848,3.552 8.352,3.552c3.168,0 5.712,-0.912 7.728,-2.736c1.632,-1.536 2.736,-3.504 3.312,-5.904l-2.928,0c-0.624,1.92 -1.488,3.36 -2.64,4.368c-1.392,1.152 -3.216,1.776 -5.472,1.776c-2.592,0 -4.608,-0.864 -6.144,-2.592c-1.488,-1.728 -2.304,-4.128 -2.448,-7.152l20.16,0c-0.144,-4.272 -1.104,-7.584 -2.832,-9.936c-1.968,-2.688 -4.896,-3.984 -8.832,-3.984Zm0.048,2.496c5.232,0 8.112,3.024 8.592,9.072l-17.088,0c0.24,-2.688 1.104,-4.848 2.592,-6.528c1.488,-1.728 3.456,-2.544 5.904,-2.544Z" style="fill-rule:nonzero;"/><rect x="564.43" y="395.889" width="2.88" height="34.944" style="fill-rule:nonzero;"/><path d="M585.118,405.345c-3.648,0 -6.576,1.296 -8.736,3.936c-2.064,2.448 -3.072,5.52 -3.072,9.168c0,3.648 1.008,6.672 3.024,9.12c2.208,2.592 5.136,3.936 8.784,3.936c3.648,0 6.576,-1.344 8.784,-3.936c2.016,-2.448 3.024,-5.472 3.024,-9.12c0,-3.648 -1.008,-6.72 -3.024,-9.168c-2.208,-2.64 -5.136,-3.936 -8.784,-3.936Zm0,2.496c2.832,0 5.088,1.056 6.72,3.264c1.44,1.92 2.208,4.368 2.208,7.344c0,2.88 -0.768,5.328 -2.208,7.296c-1.632,2.16 -3.888,3.264 -6.72,3.264c-2.832,0 -5.04,-1.104 -6.672,-3.264c-1.488,-1.92 -2.208,-4.368 -2.208,-7.296c0,-2.976 0.72,-5.424 2.208,-7.344c1.632,-2.208 3.84,-3.264 6.672,-3.264Z" style="fill-rule:nonzero;"/><path d="M608.014,398.001l-2.88,1.2l0,6.816l-5.28,0l0,2.496l5.28,0l0,16.8c0,1.824 0.336,3.168 1.104,4.032c0.816,0.96 2.208,1.488 4.128,1.488l3.504,0l0,-2.496l-3.12,0c-1.056,0 -1.776,-0.24 -2.16,-0.672c-0.384,-0.48 -0.576,-1.296 -0.576,-2.352l0,-16.8l6.48,0l0,-2.496l-6.48,0l0,-8.016Z" style="fill-rule:nonzero;"/><path d="M627.31,405.345c-2.592,0 -4.8,0.576 -6.528,1.776c-1.824,1.248 -2.688,2.832 -2.688,4.848c0,2.016 0.912,3.6 2.832,4.752c1.152,0.72 3.168,1.44 6.048,2.208c2.832,0.72 4.656,1.296 5.52,1.728c1.632,0.816 2.448,1.968 2.448,3.456c0,3.264 -2.4,4.896 -7.2,4.896c-2.304,0 -4.032,-0.432 -5.184,-1.296c-1.248,-0.96 -2.016,-2.544 -2.304,-4.704l-2.832,0c0.576,5.664 4.032,8.496 10.416,8.496c6.72,0 10.08,-2.544 10.08,-7.536c0,-2.112 -1.008,-3.792 -2.976,-4.992c-1.248,-0.768 -3.408,-1.536 -6.432,-2.304c-2.544,-0.672 -4.272,-1.248 -5.232,-1.728c-1.488,-0.768 -2.208,-1.776 -2.208,-3.024c0,-1.248 0.576,-2.208 1.728,-2.976c1.152,-0.768 2.64,-1.104 4.464,-1.104c2.208,0 3.888,0.432 5.04,1.344c1.056,0.816 1.728,2.064 2.064,3.792l2.832,0c-0.72,-5.088 -4.032,-7.632 -9.888,-7.632Z" style="fill-rule:nonzero;"/><path d="M669.358,405.345c-3.648,0 -6.576,1.296 -8.736,3.936c-2.064,2.448 -3.072,5.52 -3.072,9.168c0,3.648 1.008,6.672 3.024,9.12c2.208,2.592 5.136,3.936 8.784,3.936c3.648,0 6.576,-1.344 8.784,-3.936c2.016,-2.448 3.024,-5.472 3.024,-9.12c0,-3.648 -1.008,-6.72 -3.024,-9.168c-2.208,-2.64 -5.136,-3.936 -8.784,-3.936Zm0,2.496c2.832,0 5.088,1.056 6.72,3.264c1.44,1.92 2.208,4.368 2.208,7.344c0,2.88 -0.768,5.328 -2.208,7.296c-1.632,2.16 -3.888,3.264 -6.72,3.264c-2.832,0 -5.04,-1.104 -6.672,-3.264c-1.488,-1.92 -2.208,-4.368 -2.208,-7.296c0,-2.976 0.72,-5.424 2.208,-7.344c1.632,-2.208 3.84,-3.264 6.672,-3.264Z" style="fill-rule:nonzero;"/><path d="M696.334,396.561c-2.112,0 -3.648,0.576 -4.704,1.776c-1.056,1.104 -1.536,2.688 -1.536,4.752l0,2.928l-6.624,0l0,2.496l6.624,0l0,22.32l2.88,0l0,-22.32l7.44,0l0,-2.496l-7.44,0l0,-2.88c0,-1.44 0.288,-2.448 0.864,-3.072c0.576,-0.672 1.488,-0.96 2.736,-0.96l4.176,0l0,-2.544l-4.416,0Z" style="fill-rule:nonzero;"/><path d="M728.446,405.345c-2.592,0 -4.8,0.576 -6.528,1.776c-1.824,1.248 -2.688,2.832 -2.688,4.848c0,2.016 0.912,3.6 2.832,4.752c1.152,0.72 3.168,1.44 6.048,2.208c2.832,0.72 4.656,1.296 5.52,1.728c1.632,0.816 2.448,1.968 2.448,3.456c0,3.264 -2.4,4.896 -7.2,4.896c-2.304,0 -4.032,-0.432 -5.184,-1.296c-1.248,-0.96 -2.016,-2.544 -2.304,-4.704l-2.832,0c0.576,5.664 4.032,8.496 10.416,8.496c6.72,0 10.08,-2.544 10.08,-7.536c0,-2.112 -1.008,-3.792 -2.976,-4.992c-1.248,-0.768 -3.408,-1.536 -6.432,-2.304c-2.544,-0.672 -4.272,-1.248 -5.232,-1.728c-1.488,-0.768 -2.208,-1.776 -2.208,-3.024c0,-1.248 0.576,-2.208 1.728,-2.976c1.152,-0.768 2.64,-1.104 4.464,-1.104c2.208,0 3.888,0.432 5.04,1.344c1.056,0.816 1.728,2.064 2.064,3.792l2.832,0c-0.72,-5.088 -4.032,-7.632 -9.888,-7.632Z" style="fill-rule:nonzero;"/><path d="M754.51,405.345c-3.648,0 -6.576,1.296 -8.736,3.936c-2.064,2.448 -3.072,5.52 -3.072,9.168c0,3.648 1.008,6.672 3.024,9.12c2.208,2.592 5.136,3.936 8.784,3.936c3.648,0 6.576,-1.344 8.784,-3.936c2.016,-2.448 3.024,-5.472 3.024,-9.12c0,-3.648 -1.008,-6.72 -3.024,-9.168c-2.208,-2.64 -5.136,-3.936 -8.784,-3.936Zm0,2.496c2.832,0 5.088,1.056 6.72,3.264c1.44,1.92 2.208,4.368 2.208,7.344c0,2.88 -0.768,5.328 -2.208,7.296c-1.632,2.16 -3.888,3.264 -6.72,3.264c-2.832,0 -5.04,-1.104 -6.672,-3.264c-1.488,-1.92 -2.208,-4.368 -2.208,-7.296c0,-2.976 0.72,-5.424 2.208,-7.344c1.632,-2.208 3.84,-3.264 6.672,-3.264Z" style="fill-rule:nonzero;"/><path d="M771.406,406.017l0,15.312c0,6.768 3.024,10.176 9.072,10.176c3.552,0 6.336,-1.632 8.256,-4.848l0,4.176l2.88,0l0,-24.816l-2.88,0l0,15.072c-0.192,2.352 -1.008,4.272 -2.448,5.712c-1.44,1.44 -3.12,2.208 -5.04,2.208c-2.4,0 -4.176,-0.672 -5.328,-2.016c-1.104,-1.296 -1.632,-3.216 -1.632,-5.808l0,-15.168l-2.88,0Z" style="fill-rule:nonzero;"/><path d="M808.078,405.345c-1.824,0 -3.456,0.576 -4.8,1.728c-1.152,0.912 -2.064,2.16 -2.736,3.696l0,-4.752l-2.88,0l0,24.816l2.88,0l0,-13.104c0,-2.496 0.624,-4.656 1.968,-6.48c1.344,-2.016 3.168,-2.976 5.376,-2.976c1.248,0 2.496,0.144 3.792,0.528l0,-2.928c-0.96,-0.384 -2.16,-0.528 -3.6,-0.528Z" style="fill-rule:nonzero;"/><path d="M825.406,405.345c-3.6,0 -6.432,1.296 -8.496,3.936c-1.968,2.448 -2.928,5.568 -2.928,9.312c0,3.792 0.912,6.864 2.832,9.168c2.016,2.496 4.896,3.744 8.544,3.744c2.976,0 5.424,-0.816 7.248,-2.4c1.872,-1.632 3.072,-4.032 3.552,-7.152l-2.832,0c-0.72,4.704 -3.36,7.056 -7.968,7.056c-2.736,0 -4.848,-0.96 -6.288,-2.832c-1.44,-1.872 -2.16,-4.416 -2.16,-7.584c0,-3.216 0.72,-5.808 2.256,-7.728c1.536,-2.016 3.648,-3.024 6.24,-3.024c2.16,0 3.936,0.528 5.28,1.584c1.344,1.056 2.16,2.592 2.496,4.704l2.88,0c-0.384,-2.976 -1.536,-5.184 -3.408,-6.624c-1.872,-1.44 -4.272,-2.16 -7.248,-2.16Z" style="fill-rule:nonzero;"/><path d="M850.798,405.345c-3.504,0 -6.288,1.296 -8.4,3.888c-2.064,2.496 -3.072,5.52 -3.072,9.168c0,3.936 1.056,7.152 3.216,9.552c2.064,2.352 4.848,3.552 8.352,3.552c3.168,0 5.712,-0.912 7.728,-2.736c1.632,-1.536 2.736,-3.504 3.312,-5.904l-2.928,0c-0.624,1.92 -1.488,3.36 -2.64,4.368c-1.392,1.152 -3.216,1.776 -5.472,1.776c-2.592,0 -4.608,-0.864 -6.144,-2.592c-1.488,-1.728 -2.304,-4.128 -2.448,-7.152l20.16,0c-0.144,-4.272 -1.104,-7.584 -2.832,-9.936c-1.968,-2.688 -4.896,-3.984 -8.832,-3.984Zm0.048,2.496c5.232,0 8.112,3.024 8.592,9.072l-17.088,0c0.24,-2.688 1.104,-4.848 2.592,-6.528c1.488,-1.728 3.456,-2.544 5.904,-2.544Z" style="fill-rule:nonzero;"/><path d="M893.566,405.345c-2.832,0 -5.136,0.576 -6.912,1.776c-2.016,1.248 -3.264,3.168 -3.744,5.664l2.832,0.192c0.384,-1.728 1.296,-3.024 2.736,-3.936c1.296,-0.864 2.928,-1.248 4.944,-1.248c4.8,0 7.2,2.352 7.2,7.056l0,1.488l-6.336,0.096c-3.744,0 -6.672,0.672 -8.688,1.968c-2.352,1.344 -3.504,3.456 -3.504,6.336c0,2.016 0.768,3.696 2.352,4.944c1.44,1.2 3.408,1.824 5.808,1.824c2.352,0 4.512,-0.624 6.528,-1.776c1.632,-0.96 2.976,-2.208 3.984,-3.648l0,4.752l2.736,0l0,-15.984c0,-2.88 -0.768,-5.088 -2.208,-6.672c-1.68,-1.92 -4.272,-2.832 -7.728,-2.832Zm7.056,13.248l0,2.592c0,1.92 -1.008,3.744 -2.976,5.376c-2.016,1.728 -4.32,2.592 -6.816,2.592c-1.728,0 -3.168,-0.432 -4.224,-1.248c-1.056,-0.816 -1.584,-1.872 -1.584,-3.216c0,-3.936 3.12,-5.952 9.408,-6l6.192,-0.096Z" style="fill-rule:nonzero;"/><path d="M920.494,405.345c-1.728,0 -3.312,0.384 -4.704,1.248c-1.392,0.864 -2.496,2.016 -3.36,3.504l0,-4.08l-2.88,0l0,24.816l2.88,0l0,-14.976c0.144,-2.448 0.912,-4.416 2.352,-5.856c1.344,-1.44 2.976,-2.16 4.992,-2.16c4.704,0 7.056,2.64 7.056,7.92l0,15.072l2.88,0l0,-15.264c0,-6.816 -3.072,-10.224 -9.216,-10.224Z" style="fill-rule:nonzero;"/><path d="M954.478,395.889l0,15.36c-1.824,-3.936 -4.752,-5.904 -8.688,-5.904c-3.504,0 -6.24,1.296 -8.256,3.984c-1.824,2.4 -2.736,5.424 -2.736,9.072c0,3.696 0.912,6.768 2.736,9.168c2.016,2.592 4.8,3.936 8.4,3.936c4.08,0 6.96,-1.872 8.688,-5.568l0,4.896l2.736,0l0,-34.944l-2.88,0Zm-8.16,11.904c2.496,0 4.512,0.96 6.048,2.976c1.44,1.92 2.208,4.368 2.208,7.44l0,0.576c0,2.928 -0.72,5.328 -2.064,7.2c-1.488,2.016 -3.6,3.072 -6.288,3.072c-2.832,0 -4.992,-1.056 -6.48,-3.168c-1.344,-1.872 -2.016,-4.368 -2.016,-7.488c0,-3.12 0.672,-5.616 2.064,-7.44c1.536,-2.112 3.696,-3.168 6.528,-3.168Z" style="fill-rule:nonzero;"/><path d="M989.614,405.345c-3.456,0 -6.24,1.248 -8.304,3.744c-1.92,2.304 -2.88,5.232 -2.88,8.736c0,3.552 0.96,6.432 2.88,8.736c2.064,2.448 4.848,3.696 8.304,3.696c4.08,0 7.056,-1.92 8.88,-5.664l0,4.752c0,6.144 -2.784,9.264 -8.256,9.264c-2.448,0 -4.272,-0.528 -5.52,-1.536c-1.2,-0.912 -1.968,-2.304 -2.304,-4.128l-2.88,0c0.432,2.64 1.488,4.608 3.168,5.952c1.776,1.392 4.272,2.112 7.536,2.112c7.392,0 11.136,-4.032 11.136,-12l0,-22.992l-2.88,0l0,4.992c-1.824,-3.792 -4.8,-5.664 -8.88,-5.664Zm0.336,2.448c2.688,0 4.848,0.96 6.384,2.976c1.44,1.824 2.16,4.176 2.16,7.056c0,2.88 -0.72,5.232 -2.16,7.056c-1.536,1.92 -3.696,2.88 -6.432,2.88c-2.832,0 -4.992,-1.008 -6.48,-3.024c-1.392,-1.824 -2.064,-4.128 -2.064,-6.912c0,-2.88 0.72,-5.232 2.208,-7.056c1.536,-2.016 3.648,-2.976 6.384,-2.976Z" style="fill-rule:nonzero;"/><path d="M1017.84,405.345c-1.824,0 -3.456,0.576 -4.8,1.728c-1.152,0.912 -2.064,2.16 -2.736,3.696l0,-4.752l-2.88,0l0,24.816l2.88,0l0,-13.104c0,-2.496 0.624,-4.656 1.968,-6.48c1.344,-2.016 3.168,-2.976 5.376,-2.976c1.248,0 2.496,0.144 3.792,0.528l0,-2.928c-0.96,-0.384 -2.16,-0.528 -3.6,-0.528Z" style="fill-rule:nonzero;"/><path d="M1034.73,405.345c-3.504,0 -6.288,1.296 -8.4,3.888c-2.064,2.496 -3.072,5.52 -3.072,9.168c0,3.936 1.056,7.152 3.216,9.552c2.064,2.352 4.848,3.552 8.352,3.552c3.168,0 5.712,-0.912 7.728,-2.736c1.632,-1.536 2.736,-3.504 3.312,-5.904l-2.928,0c-0.624,1.92 -1.488,3.36 -2.64,4.368c-1.392,1.152 -3.216,1.776 -5.472,1.776c-2.592,0 -4.608,-0.864 -6.144,-2.592c-1.488,-1.728 -2.304,-4.128 -2.448,-7.152l20.16,0c-0.144,-4.272 -1.104,-7.584 -2.832,-9.936c-1.968,-2.688 -4.896,-3.984 -8.832,-3.984Zm0.048,2.496c5.232,0 8.112,3.024 8.592,9.072l-17.088,0c0.24,-2.688 1.104,-4.848 2.592,-6.528c1.488,-1.728 3.456,-2.544 5.904,-2.544Z" style="fill-rule:nonzero;"/><path d="M1061.52,405.345c-2.832,0 -5.136,0.576 -6.912,1.776c-2.016,1.248 -3.264,3.168 -3.744,5.664l2.832,0.192c0.384,-1.728 1.296,-3.024 2.736,-3.936c1.296,-0.864 2.928,-1.248 4.944,-1.248c4.8,0 7.2,2.352 7.2,7.056l0,1.488l-6.336,0.096c-3.744,0 -6.672,0.672 -8.688,1.968c-2.352,1.344 -3.504,3.456 -3.504,6.336c0,2.016 0.768,3.696 2.352,4.944c1.44,1.2 3.408,1.824 5.808,1.824c2.352,0 4.512,-0.624 6.528,-1.776c1.632,-0.96 2.976,-2.208 3.984,-3.648l0,4.752l2.736,0l0,-15.984c0,-2.88 -0.768,-5.088 -2.208,-6.672c-1.68,-1.92 -4.272,-2.832 -7.728,-2.832Zm7.056,13.248l0,2.592c0,1.92 -1.008,3.744 -2.976,5.376c-2.016,1.728 -4.32,2.592 -6.816,2.592c-1.728,0 -3.168,-0.432 -4.224,-1.248c-1.056,-0.816 -1.584,-1.872 -1.584,-3.216c0,-3.936 3.12,-5.952 9.408,-6l6.192,-0.096Z" style="fill-rule:nonzero;"/><path d="M1083.5,398.001l-2.88,1.2l0,6.816l-5.28,0l0,2.496l5.28,0l0,16.8c0,1.824 0.336,3.168 1.104,4.032c0.816,0.96 2.208,1.488 4.128,1.488l3.504,0l0,-2.496l-3.12,0c-1.056,0 -1.776,-0.24 -2.16,-0.672c-0.384,-0.48 -0.576,-1.296 -0.576,-2.352l0,-16.8l6.48,0l0,-2.496l-6.48,0l0,-8.016Z" style="fill-rule:nonzero;"/><path d="M1120.8,405.345c-3.6,0 -6.432,1.296 -8.496,3.936c-1.968,2.448 -2.928,5.568 -2.928,9.312c0,3.792 0.912,6.864 2.832,9.168c2.016,2.496 4.896,3.744 8.544,3.744c2.976,0 5.424,-0.816 7.248,-2.4c1.872,-1.632 3.072,-4.032 3.552,-7.152l-2.832,0c-0.72,4.704 -3.36,7.056 -7.968,7.056c-2.736,0 -4.848,-0.96 -6.288,-2.832c-1.44,-1.872 -2.16,-4.416 -2.16,-7.584c0,-3.216 0.72,-5.808 2.256,-7.728c1.536,-2.016 3.648,-3.024 6.24,-3.024c2.16,0 3.936,0.528 5.28,1.584c1.344,1.056 2.16,2.592 2.496,4.704l2.88,0c-0.384,-2.976 -1.536,-5.184 -3.408,-6.624c-1.872,-1.44 -4.272,-2.16 -7.248,-2.16Z" style="fill-rule:nonzero;"/><path d="M1147.01,405.345c-3.648,0 -6.576,1.296 -8.736,3.936c-2.064,2.448 -3.072,5.52 -3.072,9.168c0,3.648 1.008,6.672 3.024,9.12c2.208,2.592 5.136,3.936 8.784,3.936c3.648,0 6.576,-1.344 8.784,-3.936c2.016,-2.448 3.024,-5.472 3.024,-9.12c0,-3.648 -1.008,-6.72 -3.024,-9.168c-2.208,-2.64 -5.136,-3.936 -8.784,-3.936Zm0,2.496c2.832,0 5.088,1.056 6.72,3.264c1.44,1.92 2.208,4.368 2.208,7.344c0,2.88 -0.768,5.328 -2.208,7.296c-1.632,2.16 -3.888,3.264 -6.72,3.264c-2.832,0 -5.04,-1.104 -6.672,-3.264c-1.488,-1.92 -2.208,-4.368 -2.208,-7.296c0,-2.976 0.72,-5.424 2.208,-7.344c1.632,-2.208 3.84,-3.264 6.672,-3.264Z" style="fill-rule:nonzero;"/><path d="M1173.98,405.345c-3.024,0 -5.424,1.44 -7.2,4.416l0,-3.744l-2.88,0l0,24.816l2.88,0l0,-15.264c0,-2.16 0.624,-3.984 1.92,-5.472c1.248,-1.536 2.784,-2.256 4.656,-2.256c4.128,0 6.192,2.352 6.192,7.152l0,15.84l2.928,0l0,-15.792c0,-2.112 0.576,-3.792 1.824,-5.136c1.2,-1.392 2.688,-2.064 4.512,-2.064c2.208,0 3.888,0.624 4.944,1.872c0.96,1.152 1.44,2.928 1.44,5.28l0,15.84l2.88,0l0,-16.224c0,-2.928 -0.768,-5.184 -2.256,-6.816c-1.536,-1.632 -3.648,-2.448 -6.24,-2.448c-1.728,0 -3.264,0.432 -4.512,1.296c-1.344,0.864 -2.448,2.112 -3.312,3.792c-1.248,-3.408 -3.84,-5.088 -7.776,-5.088Z" style="fill-rule:nonzero;"/><path d="M1215.6,405.345c-4.032,0 -6.912,1.824 -8.736,5.568l0,-4.896l-2.736,0l0,34.32l2.88,0l0,-14.688c1.824,3.888 4.704,5.856 8.688,5.856c3.552,0 6.288,-1.344 8.304,-3.936c1.776,-2.4 2.688,-5.424 2.688,-9.072c0,-3.744 -0.912,-6.768 -2.736,-9.168c-2.064,-2.688 -4.848,-3.984 -8.352,-3.984Zm-0.336,2.448c2.784,0 4.944,1.056 6.48,3.216c1.296,1.872 1.968,4.368 1.968,7.488c0,3.12 -0.672,5.616 -2.016,7.488c-1.536,2.016 -3.696,3.072 -6.528,3.072c-2.544,0 -4.56,-0.96 -6.048,-2.88c-1.488,-1.92 -2.208,-4.368 -2.208,-7.344l0,-0.528c0,-3.024 0.672,-5.472 2.064,-7.344c1.488,-2.112 3.6,-3.168 6.288,-3.168Z" style="fill-rule:nonzero;"/><path d="M1242.29,405.345c-2.832,0 -5.136,0.576 -6.912,1.776c-2.016,1.248 -3.264,3.168 -3.744,5.664l2.832,0.192c0.384,-1.728 1.296,-3.024 2.736,-3.936c1.296,-0.864 2.928,-1.248 4.944,-1.248c4.8,0 7.2,2.352 7.2,7.056l0,1.488l-6.336,0.096c-3.744,0 -6.672,0.672 -8.688,1.968c-2.352,1.344 -3.504,3.456 -3.504,6.336c0,2.016 0.768,3.696 2.352,4.944c1.44,1.2 3.408,1.824 5.808,1.824c2.352,0 4.512,-0.624 6.528,-1.776c1.632,-0.96 2.976,-2.208 3.984,-3.648l0,4.752l2.736,0l0,-15.984c0,-2.88 -0.768,-5.088 -2.208,-6.672c-1.68,-1.92 -4.272,-2.832 -7.728,-2.832Zm7.056,13.248l0,2.592c0,1.92 -1.008,3.744 -2.976,5.376c-2.016,1.728 -4.32,2.592 -6.816,2.592c-1.728,0 -3.168,-0.432 -4.224,-1.248c-1.056,-0.816 -1.584,-1.872 -1.584,-3.216c0,-3.936 3.12,-5.952 9.408,-6l6.192,-0.096Z" style="fill-rule:nonzero;"/><path d="M1269.21,405.345c-1.728,0 -3.312,0.384 -4.704,1.248c-1.392,0.864 -2.496,2.016 -3.36,3.504l0,-4.08l-2.88,0l0,24.816l2.88,0l0,-14.976c0.144,-2.448 0.912,-4.416 2.352,-5.856c1.344,-1.44 2.976,-2.16 4.992,-2.16c4.704,0 7.056,2.64 7.056,7.92l0,15.072l2.88,0l0,-15.264c0,-6.816 -3.072,-10.224 -9.216,-10.224Z" style="fill-rule:nonzero;"/><path d="M1281.69,406.017l9.84,24.192l-4.176,10.128l3.12,0l13.68,-34.32l-3.168,0l-8.016,20.688l-8.112,-20.688l-3.168,0Z" style="fill-rule:nonzero;"/><path d="M1333.87,405.345c-3.6,0 -6.432,1.296 -8.496,3.936c-1.968,2.448 -2.928,5.568 -2.928,9.312c0,3.792 0.912,6.864 2.832,9.168c2.016,2.496 4.896,3.744 8.544,3.744c2.976,0 5.424,-0.816 7.248,-2.4c1.872,-1.632 3.072,-4.032 3.552,-7.152l-2.832,0c-0.72,4.704 -3.36,7.056 -7.968,7.056c-2.736,0 -4.848,-0.96 -6.288,-2.832c-1.44,-1.872 -2.16,-4.416 -2.16,-7.584c0,-3.216 0.72,-5.808 2.256,-7.728c1.536,-2.016 3.648,-3.024 6.24,-3.024c2.16,0 3.936,0.528 5.28,1.584c1.344,1.056 2.16,2.592 2.496,4.704l2.88,0c-0.384,-2.976 -1.536,-5.184 -3.408,-6.624c-1.872,-1.44 -4.272,-2.16 -7.248,-2.16Z" style="fill-rule:nonzero;"/><path d="M1359.74,405.345c-2.832,0 -5.136,0.576 -6.912,1.776c-2.016,1.248 -3.264,3.168 -3.744,5.664l2.832,0.192c0.384,-1.728 1.296,-3.024 2.736,-3.936c1.296,-0.864 2.928,-1.248 4.944,-1.248c4.8,0 7.2,2.352 7.2,7.056l0,1.488l-6.336,0.096c-3.744,0 -6.672,0.672 -8.688,1.968c-2.352,1.344 -3.504,3.456 -3.504,6.336c0,2.016 0.768,3.696 2.352,4.944c1.44,1.2 3.408,1.824 5.808,1.824c2.352,0 4.512,-0.624 6.528,-1.776c1.632,-0.96 2.976,-2.208 3.984,-3.648l0,4.752l2.736,0l0,-15.984c0,-2.88 -0.768,-5.088 -2.208,-6.672c-1.68,-1.92 -4.272,-2.832 -7.728,-2.832Zm7.056,13.248l0,2.592c0,1.92 -1.008,3.744 -2.976,5.376c-2.016,1.728 -4.32,2.592 -6.816,2.592c-1.728,0 -3.168,-0.432 -4.224,-1.248c-1.056,-0.816 -1.584,-1.872 -1.584,-3.216c0,-3.936 3.12,-5.952 9.408,-6l6.192,-0.096Z" style="fill-rule:nonzero;"/><path d="M1386.67,405.345c-1.728,0 -3.312,0.384 -4.704,1.248c-1.392,0.864 -2.496,2.016 -3.36,3.504l0,-4.08l-2.88,0l0,24.816l2.88,0l0,-14.976c0.144,-2.448 0.912,-4.416 2.352,-5.856c1.344,-1.44 2.976,-2.16 4.992,-2.16c4.704,0 7.056,2.64 7.056,7.92l0,15.072l2.88,0l0,-15.264c0,-6.816 -3.072,-10.224 -9.216,-10.224Z" style="fill-rule:nonzero;"/><path d="M1417.92,395.889l0,34.944l2.928,0l0,-14.352c0,-2.448 0.672,-4.512 2.112,-6.144c1.44,-1.68 3.168,-2.496 5.232,-2.496c2.208,0 3.888,0.624 5.136,1.92c1.2,1.344 1.824,3.216 1.824,5.616l0,15.456l2.88,0l0,-15.84c0,-3.072 -0.816,-5.472 -2.4,-7.152c-1.584,-1.68 -3.792,-2.496 -6.624,-2.496c-1.728,0 -3.312,0.432 -4.704,1.296c-1.44,0.912 -2.592,2.208 -3.456,3.888l0,-14.64l-2.928,0Z" style="fill-rule:nonzero;"/><path d="M1454.11,405.345c-3.504,0 -6.288,1.296 -8.4,3.888c-2.064,2.496 -3.072,5.52 -3.072,9.168c0,3.936 1.056,7.152 3.216,9.552c2.064,2.352 4.848,3.552 8.352,3.552c3.168,0 5.712,-0.912 7.728,-2.736c1.632,-1.536 2.736,-3.504 3.312,-5.904l-2.928,0c-0.624,1.92 -1.488,3.36 -2.64,4.368c-1.392,1.152 -3.216,1.776 -5.472,1.776c-2.592,0 -4.608,-0.864 -6.144,-2.592c-1.488,-1.728 -2.304,-4.128 -2.448,-7.152l20.16,0c-0.144,-4.272 -1.104,-7.584 -2.832,-9.936c-1.968,-2.688 -4.896,-3.984 -8.832,-3.984Zm0.048,2.496c5.232,0 8.112,3.024 8.592,9.072l-17.088,0c0.24,-2.688 1.104,-4.848 2.592,-6.528c1.488,-1.728 3.456,-2.544 5.904,-2.544Z" style="fill-rule:nonzero;"/><rect x="1471.29" y="395.889" width="2.88" height="34.944" style="fill-rule:nonzero;"/><path d="M1492.61,405.345c-4.032,0 -6.912,1.824 -8.736,5.568l0,-4.896l-2.736,0l0,34.32l2.88,0l0,-14.688c1.824,3.888 4.704,5.856 8.688,5.856c3.552,0 6.288,-1.344 8.304,-3.936c1.776,-2.4 2.688,-5.424 2.688,-9.072c0,-3.744 -0.912,-6.768 -2.736,-9.168c-2.064,-2.688 -4.848,-3.984 -8.352,-3.984Zm-0.336,2.448c2.784,0 4.944,1.056 6.48,3.216c1.296,1.872 1.968,4.368 1.968,7.488c0,3.12 -0.672,5.616 -2.016,7.488c-1.536,2.016 -3.696,3.072 -6.528,3.072c-2.544,0 -4.56,-0.96 -6.048,-2.88c-1.488,-1.92 -2.208,-4.368 -2.208,-7.344l0,-0.528c0,-3.024 0.672,-5.472 2.064,-7.344c1.488,-2.112 3.6,-3.168 6.288,-3.168Z" style="fill-rule:nonzero;"/><path d="M1530.77,398.001l-2.88,1.2l0,6.816l-5.28,0l0,2.496l5.28,0l0,16.8c0,1.824 0.336,3.168 1.104,4.032c0.816,0.96 2.208,1.488 4.128,1.488l3.504,0l0,-2.496l-3.12,0c-1.056,0 -1.776,-0.24 -2.16,-0.672c-0.384,-0.48 -0.576,-1.296 -0.576,-2.352l0,-16.8l6.48,0l0,-2.496l-6.48,0l0,-8.016Z" style="fill-rule:nonzero;"/><path d="M1552.46,405.345c-3.648,0 -6.576,1.296 -8.736,3.936c-2.064,2.448 -3.072,5.52 -3.072,9.168c0,3.648 1.008,6.672 3.024,9.12c2.208,2.592 5.136,3.936 8.784,3.936c3.648,0 6.576,-1.344 8.784,-3.936c2.016,-2.448 3.024,-5.472 3.024,-9.12c0,-3.648 -1.008,-6.72 -3.024,-9.168c-2.208,-2.64 -5.136,-3.936 -8.784,-3.936Zm0,2.496c2.832,0 5.088,1.056 6.72,3.264c1.44,1.92 2.208,4.368 2.208,7.344c0,2.88 -0.768,5.328 -2.208,7.296c-1.632,2.16 -3.888,3.264 -6.72,3.264c-2.832,0 -5.04,-1.104 -6.672,-3.264c-1.488,-1.92 -2.208,-4.368 -2.208,-7.296c0,-2.976 0.72,-5.424 2.208,-7.344c1.632,-2.208 3.84,-3.264 6.672,-3.264Z" style="fill-rule:nonzero;"/><path d="M734.254,443.889l0,34.944l2.736,0l0,-4.896c1.68,3.696 4.608,5.568 8.736,5.568c3.552,0 6.336,-1.344 8.352,-3.936c1.824,-2.4 2.736,-5.472 2.736,-9.168c0,-3.648 -0.912,-6.672 -2.736,-9.072c-2.016,-2.688 -4.8,-3.984 -8.256,-3.984c-3.984,0 -6.864,1.968 -8.688,5.904l0,-15.36l-2.88,0Zm11.04,11.904c2.832,0 4.992,1.056 6.528,3.168c1.344,1.824 2.064,4.32 2.064,7.44c0,3.12 -0.672,5.616 -2.016,7.488c-1.536,2.112 -3.696,3.168 -6.48,3.168c-2.736,0 -4.848,-1.056 -6.288,-3.072c-1.392,-1.872 -2.064,-4.272 -2.064,-7.2l0,-0.576c0,-3.072 0.72,-5.52 2.208,-7.44c1.488,-2.016 3.504,-2.976 6.048,-2.976Z" style="fill-rule:nonzero;"/><path d="M761.902,454.017l0,15.312c0,6.768 3.024,10.176 9.072,10.176c3.552,0 6.336,-1.632 8.256,-4.848l0,4.176l2.88,0l0,-24.816l-2.88,0l0,15.072c-0.192,2.352 -1.008,4.272 -2.448,5.712c-1.44,1.44 -3.12,2.208 -5.04,2.208c-2.4,0 -4.176,-0.672 -5.328,-2.016c-1.104,-1.296 -1.632,-3.216 -1.632,-5.808l0,-15.168l-2.88,0Z" style="fill-rule:nonzero;"/><path d="M791.038,445.089c-0.72,0 -1.296,0.24 -1.728,0.72c-0.48,0.384 -0.72,0.96 -0.72,1.68c0,0.672 0.24,1.248 0.72,1.728c0.432,0.432 1.008,0.672 1.728,0.672c0.672,0 1.2,-0.24 1.68,-0.672c0.48,-0.48 0.768,-1.056 0.768,-1.728c0,-0.72 -0.24,-1.296 -0.72,-1.68c-0.48,-0.48 -1.056,-0.72 -1.728,-0.72Zm-1.44,8.928l0,24.816l2.88,0l0,-24.816l-2.88,0Z" style="fill-rule:nonzero;"/><rect x="800.878" y="443.889" width="2.88" height="34.944" style="fill-rule:nonzero;"/><path d="M829.438,443.889l0,15.36c-1.824,-3.936 -4.752,-5.904 -8.688,-5.904c-3.504,0 -6.24,1.296 -8.256,3.984c-1.824,2.4 -2.736,5.424 -2.736,9.072c0,3.696 0.912,6.768 2.736,9.168c2.016,2.592 4.8,3.936 8.4,3.936c4.08,0 6.96,-1.872 8.688,-5.568l0,4.896l2.736,0l0,-34.944l-2.88,0Zm-8.16,11.904c2.496,0 4.512,0.96 6.048,2.976c1.44,1.92 2.208,4.368 2.208,7.44l0,0.576c0,2.928 -0.72,5.328 -2.064,7.2c-1.488,2.016 -3.6,3.072 -6.288,3.072c-2.832,0 -4.992,-1.056 -6.48,-3.168c-1.344,-1.872 -2.016,-4.368 -2.016,-7.488c0,-3.12 0.672,-5.616 2.064,-7.44c1.536,-2.112 3.696,-3.168 6.528,-3.168Z" style="fill-rule:nonzero;"/><path d="M864.382,453.345c-3.504,0 -6.288,1.296 -8.4,3.888c-2.064,2.496 -3.072,5.52 -3.072,9.168c0,3.936 1.056,7.152 3.216,9.552c2.064,2.352 4.848,3.552 8.352,3.552c3.168,0 5.712,-0.912 7.728,-2.736c1.632,-1.536 2.736,-3.504 3.312,-5.904l-2.928,0c-0.624,1.92 -1.488,3.36 -2.64,4.368c-1.392,1.152 -3.216,1.776 -5.472,1.776c-2.592,0 -4.608,-0.864 -6.144,-2.592c-1.488,-1.728 -2.304,-4.128 -2.448,-7.152l20.16,0c-0.144,-4.272 -1.104,-7.584 -2.832,-9.936c-1.968,-2.688 -4.896,-3.984 -8.832,-3.984Zm0.048,2.496c5.232,0 8.112,3.024 8.592,9.072l-17.088,0c0.24,-2.688 1.104,-4.848 2.592,-6.528c1.488,-1.728 3.456,-2.544 5.904,-2.544Z" style="fill-rule:nonzero;"/><path d="M877.87,454.017l9.504,24.816l2.976,0l9.504,-24.816l-3.216,0l-7.776,21.168l-7.824,-21.168l-3.168,0Z" style="fill-rule:nonzero;"/><path d="M913.15,453.345c-3.504,0 -6.288,1.296 -8.4,3.888c-2.064,2.496 -3.072,5.52 -3.072,9.168c0,3.936 1.056,7.152 3.216,9.552c2.064,2.352 4.848,3.552 8.352,3.552c3.168,0 5.712,-0.912 7.728,-2.736c1.632,-1.536 2.736,-3.504 3.312,-5.904l-2.928,0c-0.624,1.92 -1.488,3.36 -2.64,4.368c-1.392,1.152 -3.216,1.776 -5.472,1.776c-2.592,0 -4.608,-0.864 -6.144,-2.592c-1.488,-1.728 -2.304,-4.128 -2.448,-7.152l20.16,0c-0.144,-4.272 -1.104,-7.584 -2.832,-9.936c-1.968,-2.688 -4.896,-3.984 -8.832,-3.984Zm0.048,2.496c5.232,0 8.112,3.024 8.592,9.072l-17.088,0c0.24,-2.688 1.104,-4.848 2.592,-6.528c1.488,-1.728 3.456,-2.544 5.904,-2.544Z" style="fill-rule:nonzero;"/><path d="M939.838,453.345c-1.824,0 -3.456,0.576 -4.8,1.728c-1.152,0.912 -2.064,2.16 -2.736,3.696l0,-4.752l-2.88,0l0,24.816l2.88,0l0,-13.104c0,-2.496 0.624,-4.656 1.968,-6.48c1.344,-2.016 3.168,-2.976 5.376,-2.976c1.248,0 2.496,0.144 3.792,0.528l0,-2.928c-0.96,-0.384 -2.16,-0.528 -3.6,-0.528Z" style="fill-rule:nonzero;"/><path d="M943.918,454.017l9.84,24.192l-4.176,10.128l3.12,0l13.68,-34.32l-3.168,0l-8.016,20.688l-8.112,-20.688l-3.168,0Z" style="fill-rule:nonzero;"/><path d="M988.51,445.089c-0.72,0 -1.296,0.24 -1.728,0.72c-0.48,0.384 -0.72,0.96 -0.72,1.68c0,0.672 0.24,1.248 0.72,1.728c0.432,0.432 1.008,0.672 1.728,0.672c0.672,0 1.2,-0.24 1.68,-0.672c0.48,-0.48 0.768,-1.056 0.768,-1.728c0,-0.72 -0.24,-1.296 -0.72,-1.68c-0.48,-0.48 -1.056,-0.72 -1.728,-0.72Zm-1.44,8.928l0,24.816l2.88,0l0,-24.816l-2.88,0Z" style="fill-rule:nonzero;"/><path d="M1016.16,443.889l0,15.36c-1.824,-3.936 -4.752,-5.904 -8.688,-5.904c-3.504,0 -6.24,1.296 -8.256,3.984c-1.824,2.4 -2.736,5.424 -2.736,9.072c0,3.696 0.912,6.768 2.736,9.168c2.016,2.592 4.8,3.936 8.4,3.936c4.08,0 6.96,-1.872 8.688,-5.568l0,4.896l2.736,0l0,-34.944l-2.88,0Zm-8.16,11.904c2.496,0 4.512,0.96 6.048,2.976c1.44,1.92 2.208,4.368 2.208,7.44l0,0.576c0,2.928 -0.72,5.328 -2.064,7.2c-1.488,2.016 -3.6,3.072 -6.288,3.072c-2.832,0 -4.992,-1.056 -6.48,-3.168c-1.344,-1.872 -2.016,-4.368 -2.016,-7.488c0,-3.12 0.672,-5.616 2.064,-7.44c1.536,-2.112 3.696,-3.168 6.528,-3.168Z" style="fill-rule:nonzero;"/><path d="M1035.12,453.345c-3.504,0 -6.288,1.296 -8.4,3.888c-2.064,2.496 -3.072,5.52 -3.072,9.168c0,3.936 1.056,7.152 3.216,9.552c2.064,2.352 4.848,3.552 8.352,3.552c3.168,0 5.712,-0.912 7.728,-2.736c1.632,-1.536 2.736,-3.504 3.312,-5.904l-2.928,0c-0.624,1.92 -1.488,3.36 -2.64,4.368c-1.392,1.152 -3.216,1.776 -5.472,1.776c-2.592,0 -4.608,-0.864 -6.144,-2.592c-1.488,-1.728 -2.304,-4.128 -2.448,-7.152l20.16,0c-0.144,-4.272 -1.104,-7.584 -2.832,-9.936c-1.968,-2.688 -4.896,-3.984 -8.832,-3.984Zm0.048,2.496c5.232,0 8.112,3.024 8.592,9.072l-17.088,0c0.24,-2.688 1.104,-4.848 2.592,-6.528c1.488,-1.728 3.456,-2.544 5.904,-2.544Z" style="fill-rule:nonzero;"/><path d="M1061.9,453.345c-2.832,0 -5.136,0.576 -6.912,1.776c-2.016,1.248 -3.264,3.168 -3.744,5.664l2.832,0.192c0.384,-1.728 1.296,-3.024 2.736,-3.936c1.296,-0.864 2.928,-1.248 4.944,-1.248c4.8,0 7.2,2.352 7.2,7.056l0,1.488l-6.336,0.096c-3.744,0 -6.672,0.672 -8.688,1.968c-2.352,1.344 -3.504,3.456 -3.504,6.336c0,2.016 0.768,3.696 2.352,4.944c1.44,1.2 3.408,1.824 5.808,1.824c2.352,0 4.512,-0.624 6.528,-1.776c1.632,-0.96 2.976,-2.208 3.984,-3.648l0,4.752l2.736,0l0,-15.984c0,-2.88 -0.768,-5.088 -2.208,-6.672c-1.68,-1.92 -4.272,-2.832 -7.728,-2.832Zm7.056,13.248l0,2.592c0,1.92 -1.008,3.744 -2.976,5.376c-2.016,1.728 -4.32,2.592 -6.816,2.592c-1.728,0 -3.168,-0.432 -4.224,-1.248c-1.056,-0.816 -1.584,-1.872 -1.584,-3.216c0,-3.936 3.12,-5.952 9.408,-6l6.192,-0.096Z" style="fill-rule:nonzero;"/><path d="M1081.05,474.033c-0.72,0 -1.296,0.24 -1.728,0.72c-0.48,0.48 -0.72,1.056 -0.72,1.728c0,0.672 0.24,1.296 0.72,1.776c0.432,0.432 1.008,0.672 1.728,0.672c0.672,0 1.248,-0.24 1.728,-0.672c0.48,-0.48 0.72,-1.104 0.72,-1.776c0,-0.672 -0.24,-1.248 -0.72,-1.728c-0.48,-0.48 -1.056,-0.72 -1.728,-0.72Z" style="fill-rule:nonzero;"/></g></g></svg>