<?xml version="1.0" encoding="UTF-8" standalone="no"?><!DOCTYPE svg PUBLIC "-//W3C//DTD SVG 1.1//EN" "http://www.w3.org/Graphics/SVG/1.1/DTD/svg11.dtd"><svg width="100%" height="100%" viewBox="0 0 300 100" version="1.1" xmlns="http://www.w3.org/2000/svg" xmlns:xlink="http://www.w3.org/1999/xlink" xml:space="preserve" xmlns:serif="http://www.serif.com/" style="fill-rule:evenodd;clip-rule:evenodd;stroke-linejoin:round;stroke-miterlimit:1.41421;"><rect id="Artboard3" x="0" y="0" width="300" height="100" style="fill:none;"/><g><path d="M76.86,32.411l10.1,35.178l2.463,0l9.362,-32.764l0.147,0l9.312,32.764l2.464,0l10.149,-35.178l-2.168,0l-9.114,32.862l-0.198,0l-9.262,-32.862l-2.513,0l-9.312,32.862l-0.148,0l-9.114,-32.862l-2.168,0Z" style="fill-rule:nonzero;"/><path d="M139.777,31.721c-5.124,0 -9.214,1.774 -12.219,5.37c-2.858,3.351 -4.287,7.686 -4.287,12.909c0,5.223 1.429,9.558 4.287,12.909c2.956,3.547 7.045,5.37 12.219,5.37c5.124,0 9.164,-1.774 12.218,-5.321c2.809,-3.4 4.238,-7.735 4.238,-12.958c0,-5.272 -1.429,-9.558 -4.238,-12.909c-3.005,-3.596 -7.094,-5.37 -12.218,-5.37Zm0,1.823c4.532,0 8.08,1.577 10.74,4.73c2.513,2.956 3.794,6.898 3.794,11.726c0,4.828 -1.281,8.721 -3.794,11.726c-2.66,3.153 -6.208,4.73 -10.74,4.73c-4.533,0 -8.13,-1.577 -10.79,-4.73c-2.562,-3.005 -3.794,-6.898 -3.794,-11.726c0,-4.779 1.232,-8.671 3.794,-11.726c2.66,-3.153 6.257,-4.73 10.79,-4.73Z" style="fill-rule:nonzero;"/><path d="M162.046,32.411l0,35.178l1.922,0l0,-16.111l12.613,0c2.414,0 4.335,0.444 5.715,1.33c1.577,0.986 2.463,2.612 2.661,4.878l0.443,5.075c0.197,1.971 0.591,3.596 1.281,4.828l2.119,0c-0.838,-1.281 -1.331,-3.005 -1.528,-5.173l-0.443,-5.124c-0.345,-3.646 -2.414,-5.863 -6.159,-6.651l0,-0.099c2.168,-0.493 3.892,-1.478 5.124,-3.055c1.183,-1.576 1.774,-3.449 1.774,-5.616c0,-3.055 -0.986,-5.371 -2.907,-6.997c-1.971,-1.675 -4.631,-2.463 -8.031,-2.463l-14.584,0Zm1.922,1.774l12.514,0c3.153,0 5.469,0.64 7.046,2.02c1.379,1.281 2.118,3.202 2.118,5.715c0,2.315 -0.788,4.188 -2.266,5.567c-1.626,1.478 -3.892,2.217 -6.848,2.217l-12.564,0l0,-15.519Z" style="fill-rule:nonzero;"/><path d="M218.213,32.411l-22.122,20.348l0,-20.348l-1.921,0l0,35.178l1.921,0l0,-12.514l7.046,-6.455l17.343,18.969l2.66,0l-18.624,-20.2l16.407,-14.978l-2.71,0Z" style="fill-rule:nonzero;"/></g></svg>